<mxfile host="app.diagrams.net" agent="Mozilla/5.0 (Windows NT 10.0; Win64; x64) AppleWebKit/537.36 (KHTML, like Gecko) Chrome/135.0.0.0 Safari/537.36" version="26.0.16">
  <diagram name="Page-1" id="hmVq4zyAUlaNlR4sTEFU">
    <mxGraphModel dx="2546" dy="2000" grid="1" gridSize="10" guides="1" tooltips="1" connect="1" arrows="1" fold="1" page="1" pageScale="1" pageWidth="827" pageHeight="1169" math="0" shadow="0">
      <root>
        <mxCell id="0" />
        <mxCell id="1" parent="0" />
        <UserObject label="" plantUmlData="{&#xa;  &quot;data&quot;: &quot;@startuml\n&#39; Entities\nentity \&quot;User\&quot; {\n  * user_id : PK\n  --\n  username\n  role\n  technical_specialty\n}\n\nentity \&quot;Student\&quot; {\n  * student_id : PK\n  --\n  user_id : FK\n  level\n}\n\nentity \&quot;Administrator\&quot; {\n  * admin_id : PK\n  --\n  user_id : FK\n}\n\nentity \&quot;Content\&quot; {\n  * content_id : PK\n  --\n  content_text\n  context\n}\n\nentity \&quot;Progress\&quot; {\n  * progress_id : PK\n  --\n  student_id : FK\n  content_id : FK\n  test_id : FK\n  progress_status\n}\n\nentity \&quot;Tag\&quot; {\n  * tag_id : PK\n  --\n  tag_name\n}\n\nentity \&quot;Report\&quot; {\n  * report_id : PK\n  --\n  admin_id : FK\n  report_data\n}\n\nentity \&quot;Test\&quot; {\n  * test_id : PK\n  --\n  content_id : FK\n  test_name\n  difficulty_level\n}\n\nentity \&quot;Student_Test\&quot; {\n  * student_id : FK\n  * test_id : FK\n  --\n  score\n}\n\nentity \&quot;Content_Tag\&quot; {\n  * content_id : FK\n  * tag_id : FK\n}\n\n&#39; Relationships\nUser ||--o{ Student : is_a\nUser ||--o{ Administrator : is_a\nStudent ||--o{ Progress : has\nProgress }o--|| Content : tracks\nProgress }o--o| Test : evaluates\nContent ||--o{ Test : has\nStudent }o--o{ Test : takes\nStudent ||--o{ Student_Test\nTest ||--o{ Student_Test\nContent }o--o{ Tag : has\nContent ||--o{ Content_Tag\nTag ||--o{ Content_Tag\nAdministrator ||--o{ Report : generates\n\n@enduml&quot;,&#xa;  &quot;format&quot;: &quot;svg&quot;&#xa;}" id="eH3C5GJAdZREXU2qmAJp-1">
          <mxCell style="shape=image;noLabel=1;verticalAlign=top;aspect=fixed;imageAspect=0;image=data:image/svg+xml,PHN2ZyB4bWxucz0iaHR0cDovL3d3dy53My5vcmcvMjAwMC9zdmciIHhtbG5zOnhsaW5rPSJodHRwOi8vd3d3LnczLm9yZy8xOTk5L3hsaW5rIiBjb250ZW50U3R5bGVUeXBlPSJ0ZXh0L2NzcyIgZGF0YS1kaWFncmFtLXR5cGU9IkNMQVNTIiBoZWlnaHQ9Ijk5MnB4IiBwcmVzZXJ2ZUFzcGVjdFJhdGlvPSJub25lIiBzdHlsZT0id2lkdGg6NDU2cHg7aGVpZ2h0Ojk5MnB4O2JhY2tncm91bmQ6I0ZGRkZGRjsiIHZlcnNpb249IjEuMSIgdmlld0JveD0iMCAwIDQ1NiA5OTIiIHdpZHRoPSI0NTZweCIgem9vbUFuZFBhbj0ibWFnbmlmeSI+PGRlZnMvPjxnPjwhLS1jbGFzcyBVc2VyLS0+PGcgY2xhc3M9ImVudGl0eSIgZGF0YS1lbnRpdHk9IlVzZXIiIGRhdGEtc291cmNlLWxpbmU9IjIiIGRhdGEtdWlkPSJlbnQwMDAyIiBpZD0iZW50aXR5X1VzZXIiPjxyZWN0IGZpbGw9IiNGMUYxRjEiIGhlaWdodD0iMTA3LjkzNzUiIHJ4PSIyLjUiIHJ5PSIyLjUiIHN0eWxlPSJzdHJva2U6IzE4MTgxODtzdHJva2Utd2lkdGg6MC41OyIgd2lkdGg9IjE0NSIgeD0iMTM4IiB5PSI3Ii8+PGVsbGlwc2UgY3g9IjE5Mi4yNSIgY3k9IjIzIiBmaWxsPSIjQUREMUIyIiByeD0iMTEiIHJ5PSIxMSIgc3R5bGU9InN0cm9rZTojMTgxODE4O3N0cm9rZS13aWR0aDoxOyIvPjxwYXRoIGQ9Ik0xOTUuODc1LDI5IEwxOTUuODc1LDI3LjI1IEwxOTAuNTYyNSwyNy4yNSBRMTkwLjU2MjUsMjcuMjUgMTkwLjU2MjUsMjMuNjg3NSBMMTk0LjgxMjUsMjMuNjg3NSBMMTk0LjgxMjUsMjEuOTM3NSBMMTkwLjU2MjUsMjEuOTM3NSBMMTkwLjU2MjUsMTkuNDM3NSBMMTk1Ljg3NSwxOS40Mzc1IEwxOTUuODc1LDE3LjY4NzUgTDE4OC44MTI1LDE3LjY4NzUgUTE4OC44MTI1LDE3LjY4NzUgMTg4LjgxMjUsMjkgTDE5NS44NzUsMjkgWiAiIGZpbGw9IiMwMDAwMDAiLz48dGV4dCBmaWxsPSIjMDAwMDAwIiBmb250LWZhbWlseT0ic2Fucy1zZXJpZiIgZm9udC1zaXplPSIxNCIgbGVuZ3RoQWRqdXN0PSJzcGFjaW5nIiB0ZXh0TGVuZ3RoPSIyOCIgeD0iMjEyLjc1IiB5PSIyOC43NDIyIj5Vc2VyPC90ZXh0PjxsaW5lIHN0eWxlPSJzdHJva2U6IzE4MTgxODtzdHJva2Utd2lkdGg6MC41OyIgeDE9IjEzOSIgeDI9IjI4MiIgeTE9IjM5IiB5Mj0iMzkiLz48ZWxsaXBzZSBjeD0iMTQ5IiBjeT0iNTEuOTkyMiIgZmlsbD0iIzAwMDAwMCIgcng9IjMiIHJ5PSIzIiBzdHlsZT0ic3Ryb2tlOiMwMDAwMDA7c3Ryb2tlLXdpZHRoOjE7Ii8+PHRleHQgZmlsbD0iIzAwMDAwMCIgZm9udC1mYW1pbHk9InNhbnMtc2VyaWYiIGZvbnQtc2l6ZT0iMTQiIGxlbmd0aEFkanVzdD0ic3BhY2luZyIgdGV4dExlbmd0aD0iODQiIHg9IjE1OCIgeT0iNTYuMjM0NCI+dXNlcl9pZCA6IFBLPC90ZXh0PjxsaW5lIHN0eWxlPSJzdHJva2U6IzE4MTgxODtzdHJva2Utd2lkdGg6MTsiIHgxPSIxMzkiIHgyPSIyODIiIHkxPSI2MS45ODQ0IiB5Mj0iNjEuOTg0NCIvPjx0ZXh0IGZpbGw9IiMwMDAwMDAiIGZvbnQtZmFtaWx5PSJzYW5zLXNlcmlmIiBmb250LXNpemU9IjE0IiBsZW5ndGhBZGp1c3Q9InNwYWNpbmciIHRleHRMZW5ndGg9IjU2IiB4PSIxNDQiIHk9Ijc5LjIxODgiPnVzZXJuYW1lPC90ZXh0Pjx0ZXh0IGZpbGw9IiMwMDAwMDAiIGZvbnQtZmFtaWx5PSJzYW5zLXNlcmlmIiBmb250LXNpemU9IjE0IiBsZW5ndGhBZGp1c3Q9InNwYWNpbmciIHRleHRMZW5ndGg9IjI4IiB4PSIxNDQiIHk9Ijk0LjIwMzEiPnJvbGU8L3RleHQ+PHRleHQgZmlsbD0iIzAwMDAwMCIgZm9udC1mYW1pbHk9InNhbnMtc2VyaWYiIGZvbnQtc2l6ZT0iMTQiIGxlbmd0aEFkanVzdD0ic3BhY2luZyIgdGV4dExlbmd0aD0iMTMzIiB4PSIxNDQiIHk9IjEwOS4xODc1Ij50ZWNobmljYWxfc3BlY2lhbHR5PC90ZXh0PjwvZz48IS0tY2xhc3MgU3R1ZGVudC0tPjxnIGNsYXNzPSJlbnRpdHkiIGRhdGEtZW50aXR5PSJTdHVkZW50IiBkYXRhLXNvdXJjZS1saW5lPSIxMCIgZGF0YS11aWQ9ImVudDAwMDMiIGlkPSJlbnRpdHlfU3R1ZGVudCI+PHJlY3QgZmlsbD0iI0YxRjFGMSIgaGVpZ2h0PSI5Mi45NTMxIiByeD0iMi41IiByeT0iMi41IiBzdHlsZT0ic3Ryb2tlOiMxODE4MTg7c3Ryb2tlLXdpZHRoOjAuNTsiIHdpZHRoPSIxMzEiIHg9IjYyIiB5PSIxOTAiLz48ZWxsaXBzZSBjeD0iOTkuNSIgY3k9IjIwNiIgZmlsbD0iI0FERDFCMiIgcng9IjExIiByeT0iMTEiIHN0eWxlPSJzdHJva2U6IzE4MTgxODtzdHJva2Utd2lkdGg6MTsiLz48cGF0aCBkPSJNMTAzLjEyNSwyMTIgTDEwMy4xMjUsMjEwLjI1IEw5Ny44MTI1LDIxMC4yNSBROTcuODEyNSwyMTAuMjUgOTcuODEyNSwyMDYuNjg3NSBMMTAyLjA2MjUsMjA2LjY4NzUgTDEwMi4wNjI1LDIwNC45Mzc1IEw5Ny44MTI1LDIwNC45Mzc1IEw5Ny44MTI1LDIwMi40Mzc1IEwxMDMuMTI1LDIwMi40Mzc1IEwxMDMuMTI1LDIwMC42ODc1IEw5Ni4wNjI1LDIwMC42ODc1IFE5Ni4wNjI1LDIwMC42ODc1IDk2LjA2MjUsMjEyIEwxMDMuMTI1LDIxMiBaICIgZmlsbD0iIzAwMDAwMCIvPjx0ZXh0IGZpbGw9IiMwMDAwMDAiIGZvbnQtZmFtaWx5PSJzYW5zLXNlcmlmIiBmb250LXNpemU9IjE0IiBsZW5ndGhBZGp1c3Q9InNwYWNpbmciIHRleHRMZW5ndGg9IjQ5IiB4PSIxMTguNSIgeT0iMjExLjc0MjIiPlN0dWRlbnQ8L3RleHQ+PGxpbmUgc3R5bGU9InN0cm9rZTojMTgxODE4O3N0cm9rZS13aWR0aDowLjU7IiB4MT0iNjMiIHgyPSIxOTIiIHkxPSIyMjIiIHkyPSIyMjIiLz48ZWxsaXBzZSBjeD0iNzMiIGN5PSIyMzQuOTkyMiIgZmlsbD0iIzAwMDAwMCIgcng9IjMiIHJ5PSIzIiBzdHlsZT0ic3Ryb2tlOiMwMDAwMDA7c3Ryb2tlLXdpZHRoOjE7Ii8+PHRleHQgZmlsbD0iIzAwMDAwMCIgZm9udC1mYW1pbHk9InNhbnMtc2VyaWYiIGZvbnQtc2l6ZT0iMTQiIGxlbmd0aEFkanVzdD0ic3BhY2luZyIgdGV4dExlbmd0aD0iMTA1IiB4PSI4MiIgeT0iMjM5LjIzNDQiPnN0dWRlbnRfaWQgOiBQSzwvdGV4dD48bGluZSBzdHlsZT0ic3Ryb2tlOiMxODE4MTg7c3Ryb2tlLXdpZHRoOjE7IiB4MT0iNjMiIHgyPSIxOTIiIHkxPSIyNDQuOTg0NCIgeTI9IjI0NC45ODQ0Ii8+PHRleHQgZmlsbD0iIzAwMDAwMCIgZm9udC1mYW1pbHk9InNhbnMtc2VyaWYiIGZvbnQtc2l6ZT0iMTQiIGxlbmd0aEFkanVzdD0ic3BhY2luZyIgdGV4dExlbmd0aD0iODQiIHg9IjY4IiB5PSIyNjIuMjE4OCI+dXNlcl9pZCA6IEZLPC90ZXh0Pjx0ZXh0IGZpbGw9IiMwMDAwMDAiIGZvbnQtZmFtaWx5PSJzYW5zLXNlcmlmIiBmb250LXNpemU9IjE0IiBsZW5ndGhBZGp1c3Q9InNwYWNpbmciIHRleHRMZW5ndGg9IjM1IiB4PSI2OCIgeT0iMjc3LjIwMzEiPmxldmVsPC90ZXh0PjwvZz48IS0tY2xhc3MgQWRtaW5pc3RyYXRvci0tPjxnIGNsYXNzPSJlbnRpdHkiIGRhdGEtZW50aXR5PSJBZG1pbmlzdHJhdG9yIiBkYXRhLXNvdXJjZS1saW5lPSIxNyIgZGF0YS11aWQ9ImVudDAwMDQiIGlkPSJlbnRpdHlfQWRtaW5pc3RyYXRvciI+PHJlY3QgZmlsbD0iI0YxRjFGMSIgaGVpZ2h0PSI3Ny45Njg4IiByeD0iMi41IiByeT0iMi41IiBzdHlsZT0ic3Ryb2tlOiMxODE4MTg7c3Ryb2tlLXdpZHRoOjAuNTsiIHdpZHRoPSIxMjMiIHg9IjI2OSIgeT0iMTk3LjUiLz48ZWxsaXBzZSBjeD0iMjg0IiBjeT0iMjEzLjUiIGZpbGw9IiNBREQxQjIiIHJ4PSIxMSIgcnk9IjExIiBzdHlsZT0ic3Ryb2tlOiMxODE4MTg7c3Ryb2tlLXdpZHRoOjE7Ii8+PHBhdGggZD0iTTI4Ny42MjUsMjE5LjUgTDI4Ny42MjUsMjE3Ljc1IEwyODIuMzEyNSwyMTcuNzUgUTI4Mi4zMTI1LDIxNy43NSAyODIuMzEyNSwyMTQuMTg3NSBMMjg2LjU2MjUsMjE0LjE4NzUgTDI4Ni41NjI1LDIxMi40Mzc1IEwyODIuMzEyNSwyMTIuNDM3NSBMMjgyLjMxMjUsMjA5LjkzNzUgTDI4Ny42MjUsMjA5LjkzNzUgTDI4Ny42MjUsMjA4LjE4NzUgTDI4MC41NjI1LDIwOC4xODc1IFEyODAuNTYyNSwyMDguMTg3NSAyODAuNTYyNSwyMTkuNSBMMjg3LjYyNSwyMTkuNSBaICIgZmlsbD0iIzAwMDAwMCIvPjx0ZXh0IGZpbGw9IiMwMDAwMDAiIGZvbnQtZmFtaWx5PSJzYW5zLXNlcmlmIiBmb250LXNpemU9IjE0IiBsZW5ndGhBZGp1c3Q9InNwYWNpbmciIHRleHRMZW5ndGg9IjkxIiB4PSIyOTgiIHk9IjIxOS4yNDIyIj5BZG1pbmlzdHJhdG9yPC90ZXh0PjxsaW5lIHN0eWxlPSJzdHJva2U6IzE4MTgxODtzdHJva2Utd2lkdGg6MC41OyIgeDE9IjI3MCIgeDI9IjM5MSIgeTE9IjIyOS41IiB5Mj0iMjI5LjUiLz48ZWxsaXBzZSBjeD0iMjgwIiBjeT0iMjQyLjQ5MjIiIGZpbGw9IiMwMDAwMDAiIHJ4PSIzIiByeT0iMyIgc3R5bGU9InN0cm9rZTojMDAwMDAwO3N0cm9rZS13aWR0aDoxOyIvPjx0ZXh0IGZpbGw9IiMwMDAwMDAiIGZvbnQtZmFtaWx5PSJzYW5zLXNlcmlmIiBmb250LXNpemU9IjE0IiBsZW5ndGhBZGp1c3Q9InNwYWNpbmciIHRleHRMZW5ndGg9IjkxIiB4PSIyODkiIHk9IjI0Ni43MzQ0Ij5hZG1pbl9pZCA6IFBLPC90ZXh0PjxsaW5lIHN0eWxlPSJzdHJva2U6IzE4MTgxODtzdHJva2Utd2lkdGg6MTsiIHgxPSIyNzAiIHgyPSIzOTEiIHkxPSIyNTIuNDg0NCIgeTI9IjI1Mi40ODQ0Ii8+PHRleHQgZmlsbD0iIzAwMDAwMCIgZm9udC1mYW1pbHk9InNhbnMtc2VyaWYiIGZvbnQtc2l6ZT0iMTQiIGxlbmd0aEFkanVzdD0ic3BhY2luZyIgdGV4dExlbmd0aD0iODQiIHg9IjI3NSIgeT0iMjY5LjcxODgiPnVzZXJfaWQgOiBGSzwvdGV4dD48L2c+PCEtLWNsYXNzIENvbnRlbnQtLT48ZyBjbGFzcz0iZW50aXR5IiBkYXRhLWVudGl0eT0iQ29udGVudCIgZGF0YS1zb3VyY2UtbGluZT0iMjMiIGRhdGEtdWlkPSJlbnQwMDA1IiBpZD0iZW50aXR5X0NvbnRlbnQiPjxyZWN0IGZpbGw9IiNGMUYxRjEiIGhlaWdodD0iOTIuOTUzMSIgcng9IjIuNSIgcnk9IjIuNSIgc3R5bGU9InN0cm9rZTojMTgxODE4O3N0cm9rZS13aWR0aDowLjU7IiB3aWR0aD0iMTMxIiB4PSIyNjYiIHk9IjU1NiIvPjxlbGxpcHNlIGN4PSIzMDMuNSIgY3k9IjU3MiIgZmlsbD0iI0FERDFCMiIgcng9IjExIiByeT0iMTEiIHN0eWxlPSJzdHJva2U6IzE4MTgxODtzdHJva2Utd2lkdGg6MTsiLz48cGF0aCBkPSJNMzA3LjEyNSw1NzggTDMwNy4xMjUsNTc2LjI1IEwzMDEuODEyNSw1NzYuMjUgUTMwMS44MTI1LDU3Ni4yNSAzMDEuODEyNSw1NzIuNjg3NSBMMzA2LjA2MjUsNTcyLjY4NzUgTDMwNi4wNjI1LDU3MC45Mzc1IEwzMDEuODEyNSw1NzAuOTM3NSBMMzAxLjgxMjUsNTY4LjQzNzUgTDMwNy4xMjUsNTY4LjQzNzUgTDMwNy4xMjUsNTY2LjY4NzUgTDMwMC4wNjI1LDU2Ni42ODc1IFEzMDAuMDYyNSw1NjYuNjg3NSAzMDAuMDYyNSw1NzggTDMwNy4xMjUsNTc4IFogIiBmaWxsPSIjMDAwMDAwIi8+PHRleHQgZmlsbD0iIzAwMDAwMCIgZm9udC1mYW1pbHk9InNhbnMtc2VyaWYiIGZvbnQtc2l6ZT0iMTQiIGxlbmd0aEFkanVzdD0ic3BhY2luZyIgdGV4dExlbmd0aD0iNDkiIHg9IjMyMi41IiB5PSI1NzcuNzQyMiI+Q29udGVudDwvdGV4dD48bGluZSBzdHlsZT0ic3Ryb2tlOiMxODE4MTg7c3Ryb2tlLXdpZHRoOjAuNTsiIHgxPSIyNjciIHgyPSIzOTYiIHkxPSI1ODgiIHkyPSI1ODgiLz48ZWxsaXBzZSBjeD0iMjc3IiBjeT0iNjAwLjk5MjIiIGZpbGw9IiMwMDAwMDAiIHJ4PSIzIiByeT0iMyIgc3R5bGU9InN0cm9rZTojMDAwMDAwO3N0cm9rZS13aWR0aDoxOyIvPjx0ZXh0IGZpbGw9IiMwMDAwMDAiIGZvbnQtZmFtaWx5PSJzYW5zLXNlcmlmIiBmb250LXNpemU9IjE0IiBsZW5ndGhBZGp1c3Q9InNwYWNpbmciIHRleHRMZW5ndGg9IjEwNSIgeD0iMjg2IiB5PSI2MDUuMjM0NCI+Y29udGVudF9pZCA6IFBLPC90ZXh0PjxsaW5lIHN0eWxlPSJzdHJva2U6IzE4MTgxODtzdHJva2Utd2lkdGg6MTsiIHgxPSIyNjciIHgyPSIzOTYiIHkxPSI2MTAuOTg0NCIgeTI9IjYxMC45ODQ0Ii8+PHRleHQgZmlsbD0iIzAwMDAwMCIgZm9udC1mYW1pbHk9InNhbnMtc2VyaWYiIGZvbnQtc2l6ZT0iMTQiIGxlbmd0aEFkanVzdD0ic3BhY2luZyIgdGV4dExlbmd0aD0iODQiIHg9IjI3MiIgeT0iNjI4LjIxODgiPmNvbnRlbnRfdGV4dDwvdGV4dD48dGV4dCBmaWxsPSIjMDAwMDAwIiBmb250LWZhbWlseT0ic2Fucy1zZXJpZiIgZm9udC1zaXplPSIxNCIgbGVuZ3RoQWRqdXN0PSJzcGFjaW5nIiB0ZXh0TGVuZ3RoPSI0OSIgeD0iMjcyIiB5PSI2NDMuMjAzMSI+Y29udGV4dDwvdGV4dD48L2c+PCEtLWNsYXNzIFByb2dyZXNzLS0+PGcgY2xhc3M9ImVudGl0eSIgZGF0YS1lbnRpdHk9IlByb2dyZXNzIiBkYXRhLXNvdXJjZS1saW5lPSIzMCIgZGF0YS11aWQ9ImVudDAwMDYiIGlkPSJlbnRpdHlfUHJvZ3Jlc3MiPjxyZWN0IGZpbGw9IiNGMUYxRjEiIGhlaWdodD0iMTIyLjkyMTkiIHJ4PSIyLjUiIHJ5PSIyLjUiIHN0eWxlPSJzdHJva2U6IzE4MTgxODtzdHJva2Utd2lkdGg6MC41OyIgd2lkdGg9IjEzOCIgeD0iMTM1LjUiIHk9IjM1OCIvPjxlbGxpcHNlIGN4PSIxNzMiIGN5PSIzNzQiIGZpbGw9IiNBREQxQjIiIHJ4PSIxMSIgcnk9IjExIiBzdHlsZT0ic3Ryb2tlOiMxODE4MTg7c3Ryb2tlLXdpZHRoOjE7Ii8+PHBhdGggZD0iTTE3Ni42MjUsMzgwIEwxNzYuNjI1LDM3OC4yNSBMMTcxLjMxMjUsMzc4LjI1IFExNzEuMzEyNSwzNzguMjUgMTcxLjMxMjUsMzc0LjY4NzUgTDE3NS41NjI1LDM3NC42ODc1IEwxNzUuNTYyNSwzNzIuOTM3NSBMMTcxLjMxMjUsMzcyLjkzNzUgTDE3MS4zMTI1LDM3MC40Mzc1IEwxNzYuNjI1LDM3MC40Mzc1IEwxNzYuNjI1LDM2OC42ODc1IEwxNjkuNTYyNSwzNjguNjg3NSBRMTY5LjU2MjUsMzY4LjY4NzUgMTY5LjU2MjUsMzgwIEwxNzYuNjI1LDM4MCBaICIgZmlsbD0iIzAwMDAwMCIvPjx0ZXh0IGZpbGw9IiMwMDAwMDAiIGZvbnQtZmFtaWx5PSJzYW5zLXNlcmlmIiBmb250LXNpemU9IjE0IiBsZW5ndGhBZGp1c3Q9InNwYWNpbmciIHRleHRMZW5ndGg9IjU2IiB4PSIxOTIiIHk9IjM3OS43NDIyIj5Qcm9ncmVzczwvdGV4dD48bGluZSBzdHlsZT0ic3Ryb2tlOiMxODE4MTg7c3Ryb2tlLXdpZHRoOjAuNTsiIHgxPSIxMzYuNSIgeDI9IjI3Mi41IiB5MT0iMzkwIiB5Mj0iMzkwIi8+PGVsbGlwc2UgY3g9IjE0Ni41IiBjeT0iNDAyLjk5MjIiIGZpbGw9IiMwMDAwMDAiIHJ4PSIzIiByeT0iMyIgc3R5bGU9InN0cm9rZTojMDAwMDAwO3N0cm9rZS13aWR0aDoxOyIvPjx0ZXh0IGZpbGw9IiMwMDAwMDAiIGZvbnQtZmFtaWx5PSJzYW5zLXNlcmlmIiBmb250LXNpemU9IjE0IiBsZW5ndGhBZGp1c3Q9InNwYWNpbmciIHRleHRMZW5ndGg9IjExMiIgeD0iMTU1LjUiIHk9IjQwNy4yMzQ0Ij5wcm9ncmVzc19pZCA6IFBLPC90ZXh0PjxsaW5lIHN0eWxlPSJzdHJva2U6IzE4MTgxODtzdHJva2Utd2lkdGg6MTsiIHgxPSIxMzYuNSIgeDI9IjI3Mi41IiB5MT0iNDEyLjk4NDQiIHkyPSI0MTIuOTg0NCIvPjx0ZXh0IGZpbGw9IiMwMDAwMDAiIGZvbnQtZmFtaWx5PSJzYW5zLXNlcmlmIiBmb250LXNpemU9IjE0IiBsZW5ndGhBZGp1c3Q9InNwYWNpbmciIHRleHRMZW5ndGg9IjEwNSIgeD0iMTQxLjUiIHk9IjQzMC4yMTg4Ij5zdHVkZW50X2lkIDogRks8L3RleHQ+PHRleHQgZmlsbD0iIzAwMDAwMCIgZm9udC1mYW1pbHk9InNhbnMtc2VyaWYiIGZvbnQtc2l6ZT0iMTQiIGxlbmd0aEFkanVzdD0ic3BhY2luZyIgdGV4dExlbmd0aD0iMTA1IiB4PSIxNDEuNSIgeT0iNDQ1LjIwMzEiPmNvbnRlbnRfaWQgOiBGSzwvdGV4dD48dGV4dCBmaWxsPSIjMDAwMDAwIiBmb250LWZhbWlseT0ic2Fucy1zZXJpZiIgZm9udC1zaXplPSIxNCIgbGVuZ3RoQWRqdXN0PSJzcGFjaW5nIiB0ZXh0TGVuZ3RoPSI4NCIgeD0iMTQxLjUiIHk9IjQ2MC4xODc1Ij50ZXN0X2lkIDogRks8L3RleHQ+PHRleHQgZmlsbD0iIzAwMDAwMCIgZm9udC1mYW1pbHk9InNhbnMtc2VyaWYiIGZvbnQtc2l6ZT0iMTQiIGxlbmd0aEFkanVzdD0ic3BhY2luZyIgdGV4dExlbmd0aD0iMTA1IiB4PSIxNDEuNSIgeT0iNDc1LjE3MTkiPnByb2dyZXNzX3N0YXR1czwvdGV4dD48L2c+PCEtLWNsYXNzIFRhZy0tPjxnIGNsYXNzPSJlbnRpdHkiIGRhdGEtZW50aXR5PSJUYWciIGRhdGEtc291cmNlLWxpbmU9IjM5IiBkYXRhLXVpZD0iZW50MDAwNyIgaWQ9ImVudGl0eV9UYWciPjxyZWN0IGZpbGw9IiNGMUYxRjEiIGhlaWdodD0iNzcuOTY4OCIgcng9IjIuNSIgcnk9IjIuNSIgc3R5bGU9InN0cm9rZTojMTgxODE4O3N0cm9rZS13aWR0aDowLjU7IiB3aWR0aD0iMTAzIiB4PSIyNjMiIHk9IjczOSIvPjxlbGxpcHNlIGN4PSIzMDAuNSIgY3k9Ijc1NSIgZmlsbD0iI0FERDFCMiIgcng9IjExIiByeT0iMTEiIHN0eWxlPSJzdHJva2U6IzE4MTgxODtzdHJva2Utd2lkdGg6MTsiLz48cGF0aCBkPSJNMzA0LjEyNSw3NjEgTDMwNC4xMjUsNzU5LjI1IEwyOTguODEyNSw3NTkuMjUgUTI5OC44MTI1LDc1OS4yNSAyOTguODEyNSw3NTUuNjg3NSBMMzAzLjA2MjUsNzU1LjY4NzUgTDMwMy4wNjI1LDc1My45Mzc1IEwyOTguODEyNSw3NTMuOTM3NSBMMjk4LjgxMjUsNzUxLjQzNzUgTDMwNC4xMjUsNzUxLjQzNzUgTDMwNC4xMjUsNzQ5LjY4NzUgTDI5Ny4wNjI1LDc0OS42ODc1IFEyOTcuMDYyNSw3NDkuNjg3NSAyOTcuMDYyNSw3NjEgTDMwNC4xMjUsNzYxIFogIiBmaWxsPSIjMDAwMDAwIi8+PHRleHQgZmlsbD0iIzAwMDAwMCIgZm9udC1mYW1pbHk9InNhbnMtc2VyaWYiIGZvbnQtc2l6ZT0iMTQiIGxlbmd0aEFkanVzdD0ic3BhY2luZyIgdGV4dExlbmd0aD0iMjEiIHg9IjMxOS41IiB5PSI3NjAuNzQyMiI+VGFnPC90ZXh0PjxsaW5lIHN0eWxlPSJzdHJva2U6IzE4MTgxODtzdHJva2Utd2lkdGg6MC41OyIgeDE9IjI2NCIgeDI9IjM2NSIgeTE9Ijc3MSIgeTI9Ijc3MSIvPjxlbGxpcHNlIGN4PSIyNzQiIGN5PSI3ODMuOTkyMiIgZmlsbD0iIzAwMDAwMCIgcng9IjMiIHJ5PSIzIiBzdHlsZT0ic3Ryb2tlOiMwMDAwMDA7c3Ryb2tlLXdpZHRoOjE7Ii8+PHRleHQgZmlsbD0iIzAwMDAwMCIgZm9udC1mYW1pbHk9InNhbnMtc2VyaWYiIGZvbnQtc2l6ZT0iMTQiIGxlbmd0aEFkanVzdD0ic3BhY2luZyIgdGV4dExlbmd0aD0iNzciIHg9IjI4MyIgeT0iNzg4LjIzNDQiPnRhZ19pZCA6IFBLPC90ZXh0PjxsaW5lIHN0eWxlPSJzdHJva2U6IzE4MTgxODtzdHJva2Utd2lkdGg6MTsiIHgxPSIyNjQiIHgyPSIzNjUiIHkxPSI3OTMuOTg0NCIgeTI9Ijc5My45ODQ0Ii8+PHRleHQgZmlsbD0iIzAwMDAwMCIgZm9udC1mYW1pbHk9InNhbnMtc2VyaWYiIGZvbnQtc2l6ZT0iMTQiIGxlbmd0aEFkanVzdD0ic3BhY2luZyIgdGV4dExlbmd0aD0iNTYiIHg9IjI2OSIgeT0iODExLjIxODgiPnRhZ19uYW1lPC90ZXh0PjwvZz48IS0tY2xhc3MgUmVwb3J0LS0+PGcgY2xhc3M9ImVudGl0eSIgZGF0YS1lbnRpdHk9IlJlcG9ydCIgZGF0YS1zb3VyY2UtbGluZT0iNDUiIGRhdGEtdWlkPSJlbnQwMDA4IiBpZD0iZW50aXR5X1JlcG9ydCI+PHJlY3QgZmlsbD0iI0YxRjFGMSIgaGVpZ2h0PSI5Mi45NTMxIiByeD0iMi41IiByeT0iMi41IiBzdHlsZT0ic3Ryb2tlOiMxODE4MTg7c3Ryb2tlLXdpZHRoOjAuNTsiIHdpZHRoPSIxMjQiIHg9IjMwOC41IiB5PSIzNzMiLz48ZWxsaXBzZSBjeD0iMzQ2IiBjeT0iMzg5IiBmaWxsPSIjQUREMUIyIiByeD0iMTEiIHJ5PSIxMSIgc3R5bGU9InN0cm9rZTojMTgxODE4O3N0cm9rZS13aWR0aDoxOyIvPjxwYXRoIGQ9Ik0zNDkuNjI1LDM5NSBMMzQ5LjYyNSwzOTMuMjUgTDM0NC4zMTI1LDM5My4yNSBRMzQ0LjMxMjUsMzkzLjI1IDM0NC4zMTI1LDM4OS42ODc1IEwzNDguNTYyNSwzODkuNjg3NSBMMzQ4LjU2MjUsMzg3LjkzNzUgTDM0NC4zMTI1LDM4Ny45Mzc1IEwzNDQuMzEyNSwzODUuNDM3NSBMMzQ5LjYyNSwzODUuNDM3NSBMMzQ5LjYyNSwzODMuNjg3NSBMMzQyLjU2MjUsMzgzLjY4NzUgUTM0Mi41NjI1LDM4My42ODc1IDM0Mi41NjI1LDM5NSBMMzQ5LjYyNSwzOTUgWiAiIGZpbGw9IiMwMDAwMDAiLz48dGV4dCBmaWxsPSIjMDAwMDAwIiBmb250LWZhbWlseT0ic2Fucy1zZXJpZiIgZm9udC1zaXplPSIxNCIgbGVuZ3RoQWRqdXN0PSJzcGFjaW5nIiB0ZXh0TGVuZ3RoPSI0MiIgeD0iMzY1IiB5PSIzOTQuNzQyMiI+UmVwb3J0PC90ZXh0PjxsaW5lIHN0eWxlPSJzdHJva2U6IzE4MTgxODtzdHJva2Utd2lkdGg6MC41OyIgeDE9IjMwOS41IiB4Mj0iNDMxLjUiIHkxPSI0MDUiIHkyPSI0MDUiLz48ZWxsaXBzZSBjeD0iMzE5LjUiIGN5PSI0MTcuOTkyMiIgZmlsbD0iIzAwMDAwMCIgcng9IjMiIHJ5PSIzIiBzdHlsZT0ic3Ryb2tlOiMwMDAwMDA7c3Ryb2tlLXdpZHRoOjE7Ii8+PHRleHQgZmlsbD0iIzAwMDAwMCIgZm9udC1mYW1pbHk9InNhbnMtc2VyaWYiIGZvbnQtc2l6ZT0iMTQiIGxlbmd0aEFkanVzdD0ic3BhY2luZyIgdGV4dExlbmd0aD0iOTgiIHg9IjMyOC41IiB5PSI0MjIuMjM0NCI+cmVwb3J0X2lkIDogUEs8L3RleHQ+PGxpbmUgc3R5bGU9InN0cm9rZTojMTgxODE4O3N0cm9rZS13aWR0aDoxOyIgeDE9IjMwOS41IiB4Mj0iNDMxLjUiIHkxPSI0MjcuOTg0NCIgeTI9IjQyNy45ODQ0Ii8+PHRleHQgZmlsbD0iIzAwMDAwMCIgZm9udC1mYW1pbHk9InNhbnMtc2VyaWYiIGZvbnQtc2l6ZT0iMTQiIGxlbmd0aEFkanVzdD0ic3BhY2luZyIgdGV4dExlbmd0aD0iOTEiIHg9IjMxNC41IiB5PSI0NDUuMjE4OCI+YWRtaW5faWQgOiBGSzwvdGV4dD48dGV4dCBmaWxsPSIjMDAwMDAwIiBmb250LWZhbWlseT0ic2Fucy1zZXJpZiIgZm9udC1zaXplPSIxNCIgbGVuZ3RoQWRqdXN0PSJzcGFjaW5nIiB0ZXh0TGVuZ3RoPSI3NyIgeD0iMzE0LjUiIHk9IjQ2MC4yMDMxIj5yZXBvcnRfZGF0YTwvdGV4dD48L2c+PCEtLWNsYXNzIFRlc3QtLT48ZyBjbGFzcz0iZW50aXR5IiBkYXRhLWVudGl0eT0iVGVzdCIgZGF0YS1zb3VyY2UtbGluZT0iNTIiIGRhdGEtdWlkPSJlbnQwMDA5IiBpZD0iZW50aXR5X1Rlc3QiPjxyZWN0IGZpbGw9IiNGMUYxRjEiIGhlaWdodD0iMTA3LjkzNzUiIHJ4PSIyLjUiIHJ5PSIyLjUiIHN0eWxlPSJzdHJva2U6IzE4MTgxODtzdHJva2Utd2lkdGg6MC41OyIgd2lkdGg9IjEyNCIgeD0iODYuNSIgeT0iNzI0Ii8+PGVsbGlwc2UgY3g9IjEzMC4zIiBjeT0iNzQwIiBmaWxsPSIjQUREMUIyIiByeD0iMTEiIHJ5PSIxMSIgc3R5bGU9InN0cm9rZTojMTgxODE4O3N0cm9rZS13aWR0aDoxOyIvPjxwYXRoIGQ9Ik0xMzMuOTI1LDc0NiBMMTMzLjkyNSw3NDQuMjUgTDEyOC42MTI1LDc0NC4yNSBRMTI4LjYxMjUsNzQ0LjI1IDEyOC42MTI1LDc0MC42ODc1IEwxMzIuODYyNSw3NDAuNjg3NSBMMTMyLjg2MjUsNzM4LjkzNzUgTDEyOC42MTI1LDczOC45Mzc1IEwxMjguNjEyNSw3MzYuNDM3NSBMMTMzLjkyNSw3MzYuNDM3NSBMMTMzLjkyNSw3MzQuNjg3NSBMMTI2Ljg2MjUsNzM0LjY4NzUgUTEyNi44NjI1LDczNC42ODc1IDEyNi44NjI1LDc0NiBMMTMzLjkyNSw3NDYgWiAiIGZpbGw9IiMwMDAwMDAiLz48dGV4dCBmaWxsPSIjMDAwMDAwIiBmb250LWZhbWlseT0ic2Fucy1zZXJpZiIgZm9udC1zaXplPSIxNCIgbGVuZ3RoQWRqdXN0PSJzcGFjaW5nIiB0ZXh0TGVuZ3RoPSIyOCIgeD0iMTUwLjciIHk9Ijc0NS43NDIyIj5UZXN0PC90ZXh0PjxsaW5lIHN0eWxlPSJzdHJva2U6IzE4MTgxODtzdHJva2Utd2lkdGg6MC41OyIgeDE9Ijg3LjUiIHgyPSIyMDkuNSIgeTE9Ijc1NiIgeTI9Ijc1NiIvPjxlbGxpcHNlIGN4PSI5Ny41IiBjeT0iNzY4Ljk5MjIiIGZpbGw9IiMwMDAwMDAiIHJ4PSIzIiByeT0iMyIgc3R5bGU9InN0cm9rZTojMDAwMDAwO3N0cm9rZS13aWR0aDoxOyIvPjx0ZXh0IGZpbGw9IiMwMDAwMDAiIGZvbnQtZmFtaWx5PSJzYW5zLXNlcmlmIiBmb250LXNpemU9IjE0IiBsZW5ndGhBZGp1c3Q9InNwYWNpbmciIHRleHRMZW5ndGg9Ijg0IiB4PSIxMDYuNSIgeT0iNzczLjIzNDQiPnRlc3RfaWQgOiBQSzwvdGV4dD48bGluZSBzdHlsZT0ic3Ryb2tlOiMxODE4MTg7c3Ryb2tlLXdpZHRoOjE7IiB4MT0iODcuNSIgeDI9IjIwOS41IiB5MT0iNzc4Ljk4NDQiIHkyPSI3NzguOTg0NCIvPjx0ZXh0IGZpbGw9IiMwMDAwMDAiIGZvbnQtZmFtaWx5PSJzYW5zLXNlcmlmIiBmb250LXNpemU9IjE0IiBsZW5ndGhBZGp1c3Q9InNwYWNpbmciIHRleHRMZW5ndGg9IjEwNSIgeD0iOTIuNSIgeT0iNzk2LjIxODgiPmNvbnRlbnRfaWQgOiBGSzwvdGV4dD48dGV4dCBmaWxsPSIjMDAwMDAwIiBmb250LWZhbWlseT0ic2Fucy1zZXJpZiIgZm9udC1zaXplPSIxNCIgbGVuZ3RoQWRqdXN0PSJzcGFjaW5nIiB0ZXh0TGVuZ3RoPSI2MyIgeD0iOTIuNSIgeT0iODExLjIwMzEiPnRlc3RfbmFtZTwvdGV4dD48dGV4dCBmaWxsPSIjMDAwMDAwIiBmb250LWZhbWlseT0ic2Fucy1zZXJpZiIgZm9udC1zaXplPSIxNCIgbGVuZ3RoQWRqdXN0PSJzcGFjaW5nIiB0ZXh0TGVuZ3RoPSIxMTIiIHg9IjkyLjUiIHk9IjgyNi4xODc1Ij5kaWZmaWN1bHR5X2xldmVsPC90ZXh0PjwvZz48IS0tY2xhc3MgU3R1ZGVudF9UZXN0LS0+PGcgY2xhc3M9ImVudGl0eSIgZGF0YS1lbnRpdHk9IlN0dWRlbnRfVGVzdCIgZGF0YS1zb3VyY2UtbGluZT0iNjAiIGRhdGEtdWlkPSJlbnQwMDEwIiBpZD0iZW50aXR5X1N0dWRlbnRfVGVzdCI+PHJlY3QgZmlsbD0iI0YxRjFGMSIgaGVpZ2h0PSI5Mi45NTMxIiByeD0iMi41IiByeT0iMi41IiBzdHlsZT0ic3Ryb2tlOiMxODE4MTg7c3Ryb2tlLXdpZHRoOjAuNTsiIHdpZHRoPSIxMzEiIHg9IjciIHk9Ijg5MyIvPjxlbGxpcHNlIGN4PSIyOC43NSIgY3k9IjkwOSIgZmlsbD0iI0FERDFCMiIgcng9IjExIiByeT0iMTEiIHN0eWxlPSJzdHJva2U6IzE4MTgxODtzdHJva2Utd2lkdGg6MTsiLz48cGF0aCBkPSJNMzIuMzc1LDkxNSBMMzIuMzc1LDkxMy4yNSBMMjcuMDYyNSw5MTMuMjUgUTI3LjA2MjUsOTEzLjI1IDI3LjA2MjUsOTA5LjY4NzUgTDMxLjMxMjUsOTA5LjY4NzUgTDMxLjMxMjUsOTA3LjkzNzUgTDI3LjA2MjUsOTA3LjkzNzUgTDI3LjA2MjUsOTA1LjQzNzUgTDMyLjM3NSw5MDUuNDM3NSBMMzIuMzc1LDkwMy42ODc1IEwyNS4zMTI1LDkwMy42ODc1IFEyNS4zMTI1LDkwMy42ODc1IDI1LjMxMjUsOTE1IEwzMi4zNzUsOTE1IFogIiBmaWxsPSIjMDAwMDAwIi8+PHRleHQgZmlsbD0iIzAwMDAwMCIgZm9udC1mYW1pbHk9InNhbnMtc2VyaWYiIGZvbnQtc2l6ZT0iMTQiIGxlbmd0aEFkanVzdD0ic3BhY2luZyIgdGV4dExlbmd0aD0iODQiIHg9IjQ0LjI1IiB5PSI5MTQuNzQyMiI+U3R1ZGVudF9UZXN0PC90ZXh0PjxsaW5lIHN0eWxlPSJzdHJva2U6IzE4MTgxODtzdHJva2Utd2lkdGg6MC41OyIgeDE9IjgiIHgyPSIxMzciIHkxPSI5MjUiIHkyPSI5MjUiLz48ZWxsaXBzZSBjeD0iMTgiIGN5PSI5MzcuOTkyMiIgZmlsbD0iIzAwMDAwMCIgcng9IjMiIHJ5PSIzIiBzdHlsZT0ic3Ryb2tlOiMwMDAwMDA7c3Ryb2tlLXdpZHRoOjE7Ii8+PHRleHQgZmlsbD0iIzAwMDAwMCIgZm9udC1mYW1pbHk9InNhbnMtc2VyaWYiIGZvbnQtc2l6ZT0iMTQiIGxlbmd0aEFkanVzdD0ic3BhY2luZyIgdGV4dExlbmd0aD0iMTA1IiB4PSIyNyIgeT0iOTQyLjIzNDQiPnN0dWRlbnRfaWQgOiBGSzwvdGV4dD48ZWxsaXBzZSBjeD0iMTgiIGN5PSI5NTIuOTc2NiIgZmlsbD0iIzAwMDAwMCIgcng9IjMiIHJ5PSIzIiBzdHlsZT0ic3Ryb2tlOiMwMDAwMDA7c3Ryb2tlLXdpZHRoOjE7Ii8+PHRleHQgZmlsbD0iIzAwMDAwMCIgZm9udC1mYW1pbHk9InNhbnMtc2VyaWYiIGZvbnQtc2l6ZT0iMTQiIGxlbmd0aEFkanVzdD0ic3BhY2luZyIgdGV4dExlbmd0aD0iODQiIHg9IjI3IiB5PSI5NTcuMjE4OCI+dGVzdF9pZCA6IEZLPC90ZXh0PjxsaW5lIHN0eWxlPSJzdHJva2U6IzE4MTgxODtzdHJva2Utd2lkdGg6MTsiIHgxPSI4IiB4Mj0iMTM3IiB5MT0iOTYyLjk2ODgiIHkyPSI5NjIuOTY4OCIvPjx0ZXh0IGZpbGw9IiMwMDAwMDAiIGZvbnQtZmFtaWx5PSJzYW5zLXNlcmlmIiBmb250LXNpemU9IjE0IiBsZW5ndGhBZGp1c3Q9InNwYWNpbmciIHRleHRMZW5ndGg9IjM1IiB4PSIxMyIgeT0iOTgwLjIwMzEiPnNjb3JlPC90ZXh0PjwvZz48IS0tY2xhc3MgQ29udGVudF9UYWctLT48ZyBjbGFzcz0iZW50aXR5IiBkYXRhLWVudGl0eT0iQ29udGVudF9UYWciIGRhdGEtc291cmNlLWxpbmU9IjY3IiBkYXRhLXVpZD0iZW50MDAxMSIgaWQ9ImVudGl0eV9Db250ZW50X1RhZyI+PHJlY3QgZmlsbD0iI0YxRjFGMSIgaGVpZ2h0PSI3Ny45Njg4IiByeD0iMi41IiByeT0iMi41IiBzdHlsZT0ic3Ryb2tlOiMxODE4MTg7c3Ryb2tlLXdpZHRoOjAuNTsiIHdpZHRoPSIxMzEiIHg9IjMxOCIgeT0iOTAwLjUiLz48ZWxsaXBzZSBjeD0iMzQyLjkiIGN5PSI5MTYuNSIgZmlsbD0iI0FERDFCMiIgcng9IjExIiByeT0iMTEiIHN0eWxlPSJzdHJva2U6IzE4MTgxODtzdHJva2Utd2lkdGg6MTsiLz48cGF0aCBkPSJNMzQ2LjUyNSw5MjIuNSBMMzQ2LjUyNSw5MjAuNzUgTDM0MS4yMTI1LDkyMC43NSBRMzQxLjIxMjUsOTIwLjc1IDM0MS4yMTI1LDkxNy4xODc1IEwzNDUuNDYyNSw5MTcuMTg3NSBMMzQ1LjQ2MjUsOTE1LjQzNzUgTDM0MS4yMTI1LDkxNS40Mzc1IEwzNDEuMjEyNSw5MTIuOTM3NSBMMzQ2LjUyNSw5MTIuOTM3NSBMMzQ2LjUyNSw5MTEuMTg3NSBMMzM5LjQ2MjUsOTExLjE4NzUgUTMzOS40NjI1LDkxMS4xODc1IDMzOS40NjI1LDkyMi41IEwzNDYuNTI1LDkyMi41IFogIiBmaWxsPSIjMDAwMDAwIi8+PHRleHQgZmlsbD0iIzAwMDAwMCIgZm9udC1mYW1pbHk9InNhbnMtc2VyaWYiIGZvbnQtc2l6ZT0iMTQiIGxlbmd0aEFkanVzdD0ic3BhY2luZyIgdGV4dExlbmd0aD0iNzciIHg9IjM1OS4xIiB5PSI5MjIuMjQyMiI+Q29udGVudF9UYWc8L3RleHQ+PGxpbmUgc3R5bGU9InN0cm9rZTojMTgxODE4O3N0cm9rZS13aWR0aDowLjU7IiB4MT0iMzE5IiB4Mj0iNDQ4IiB5MT0iOTMyLjUiIHkyPSI5MzIuNSIvPjxlbGxpcHNlIGN4PSIzMjkiIGN5PSI5NDUuNDkyMiIgZmlsbD0iIzAwMDAwMCIgcng9IjMiIHJ5PSIzIiBzdHlsZT0ic3Ryb2tlOiMwMDAwMDA7c3Ryb2tlLXdpZHRoOjE7Ii8+PHRleHQgZmlsbD0iIzAwMDAwMCIgZm9udC1mYW1pbHk9InNhbnMtc2VyaWYiIGZvbnQtc2l6ZT0iMTQiIGxlbmd0aEFkanVzdD0ic3BhY2luZyIgdGV4dExlbmd0aD0iMTA1IiB4PSIzMzgiIHk9Ijk0OS43MzQ0Ij5jb250ZW50X2lkIDogRks8L3RleHQ+PGVsbGlwc2UgY3g9IjMyOSIgY3k9Ijk2MC40NzY2IiBmaWxsPSIjMDAwMDAwIiByeD0iMyIgcnk9IjMiIHN0eWxlPSJzdHJva2U6IzAwMDAwMDtzdHJva2Utd2lkdGg6MTsiLz48dGV4dCBmaWxsPSIjMDAwMDAwIiBmb250LWZhbWlseT0ic2Fucy1zZXJpZiIgZm9udC1zaXplPSIxNCIgbGVuZ3RoQWRqdXN0PSJzcGFjaW5nIiB0ZXh0TGVuZ3RoPSI3NyIgeD0iMzM4IiB5PSI5NjQuNzE4OCI+dGFnX2lkIDogRks8L3RleHQ+PGxpbmUgc3R5bGU9InN0cm9rZTojMTgxODE4O3N0cm9rZS13aWR0aDowLjU7IiB4MT0iMzE5IiB4Mj0iNDQ4IiB5MT0iOTcwLjQ2ODgiIHkyPSI5NzAuNDY4OCIvPjwvZz48IS0tbGluayBVc2VyIHRvIFN0dWRlbnQtLT48ZyBjbGFzcz0ibGluayIgZGF0YS1lbnRpdHktMT0iVXNlciIgZGF0YS1lbnRpdHktMj0iU3R1ZGVudCIgZGF0YS1zb3VyY2UtbGluZT0iNzMiIGRhdGEtdWlkPSJsbmsxMiIgaWQ9ImxpbmtfVXNlcl9TdHVkZW50Ij48cGF0aCBjb2RlTGluZT0iNzMiIGQ9Ik0xODEuNDY5LDEyMi42ODc0IEMxNzAuMDg5LDE0Ni40ODc0IDE2OC4wMzY3LDE1MC43NjE4IDE1Ny4xMjY3LDE3My41NzE4IiBmaWxsPSJub25lIiBpZD0iVXNlci1TdHVkZW50IiBzdHlsZT0ic3Ryb2tlOiMxODE4MTg7c3Ryb2tlLXdpZHRoOjE7Ii8+PGxpbmUgc3R5bGU9InN0cm9rZTojMTgxODE4O3N0cm9rZS13aWR0aDoxOyIgeDE9IjE3OS41ODU4IiB4Mj0iMTg2LjgwMzIiIHkxPSIxMTcuMzUzMiIgeTI9IjEyMC44MDQyIi8+PGxpbmUgc3R5bGU9InN0cm9rZTojMTgxODE4O3N0cm9rZS13aWR0aDoxOyIgeDE9IjE3OC4yOTE3IiB4Mj0iMTg1LjUwOTEiIHkxPSIxMjAuMDU5NyIgeTI9IjEyMy41MTA3Ii8+PGxpbmUgc3R5bGU9InN0cm9rZTojMTgxODE4O3N0cm9rZS13aWR0aDoxOyIgeDE9IjE4MS40NjkiIHgyPSIxODQuOTIiIHkxPSIxMjIuNjg3NCIgeTI9IjExNS40NyIvPjxsaW5lIHN0eWxlPSJzdHJva2U6IzE4MTgxODtzdHJva2Utd2lkdGg6MTsiIHgxPSIxNTIuODExOSIgeDI9IjE1NC43NzI3IiB5MT0iMTgyLjU5MyIgeTI9IjE5Mi4zOTg5Ii8+PGxpbmUgc3R5bGU9InN0cm9rZTojMTgxODE4O3N0cm9rZS13aWR0aDoxOyIgeDE9IjE1Mi44MTE5IiB4Mj0iMTQzLjk0NzMiIHkxPSIxODIuNTkzIiB5Mj0iMTg3LjIyMTEiLz48bGluZSBzdHlsZT0ic3Ryb2tlOiMxODE4MTg7c3Ryb2tlLXdpZHRoOjE7IiB4MT0iMTUyLjgxMTkiIHgyPSIxNDkuMzYiIHkxPSIxODIuNTkzIiB5Mj0iMTg5LjgxIi8+PGVsbGlwc2UgY3g9IjE1NS40MDA4IiBjeT0iMTc3LjE4MDMiIGZpbGw9Im5vbmUiIHJ4PSI0IiByeT0iNCIgc3R5bGU9InN0cm9rZTojMTgxODE4O3N0cm9rZS13aWR0aDoxOyIvPjx0ZXh0IGZpbGw9IiMwMDAwMDAiIGZvbnQtZmFtaWx5PSJzYW5zLXNlcmlmIiBmb250LXNpemU9IjEzIiBsZW5ndGhBZGp1c3Q9InNwYWNpbmciIHRleHRMZW5ndGg9IjI2IiB4PSIxNzAuNSIgeT0iMTU4LjI4OTEiPmlzX2E8L3RleHQ+PC9nPjwhLS1saW5rIFVzZXIgdG8gQWRtaW5pc3RyYXRvci0tPjxnIGNsYXNzPSJsaW5rIiBkYXRhLWVudGl0eS0xPSJVc2VyIiBkYXRhLWVudGl0eS0yPSJBZG1pbmlzdHJhdG9yIiBkYXRhLXNvdXJjZS1saW5lPSI3NCIgZGF0YS11aWQ9ImxuazEzIiBpZD0ibGlua19Vc2VyX0FkbWluaXN0cmF0b3IiPjxwYXRoIGNvZGVMaW5lPSI3NCIgZD0iTTI1Mi4wMzA1LDEyMi4wNDk4IEMyNzAuMzUwNSwxNDguNTM5OCAyNzcuMjQ4MSwxNTguNTE3OSAyOTMuODY4MSwxODIuNTM3OSIgZmlsbD0ibm9uZSIgaWQ9IlVzZXItQWRtaW5pc3RyYXRvciIgc3R5bGU9InN0cm9rZTojMTgxODE4O3N0cm9rZS13aWR0aDoxOyIvPjxsaW5lIHN0eWxlPSJzdHJva2U6IzE4MTgxODtzdHJva2Utd2lkdGg6MTsiIHgxPSIyNDYuNDY1MyIgeDI9IjI1My4wNDUxIiB5MT0iMTIxLjAzNTEiIHkyPSIxMTYuNDg0NyIvPjxsaW5lIHN0eWxlPSJzdHJva2U6IzE4MTgxODtzdHJva2Utd2lkdGg6MTsiIHgxPSIyNDguMTcxOCIgeDI9IjI1NC43NTE1IiB5MT0iMTIzLjUwMjUiIHkyPSIxMTguOTUyMSIvPjxsaW5lIHN0eWxlPSJzdHJva2U6IzE4MTgxODtzdHJva2Utd2lkdGg6MTsiIHgxPSIyNTIuMDMwNSIgeDI9IjI0Ny40OCIgeTE9IjEyMi4wNDk4IiB5Mj0iMTE1LjQ3Ii8+PGxpbmUgc3R5bGU9InN0cm9rZTojMTgxODE4O3N0cm9rZS13aWR0aDoxOyIgeDE9IjI5OS41NTgiIHgyPSIzMDkuMDQ0IiB5MT0iMTkwLjc2MTMiIHkyPSIxOTMuOTI2Ii8+PGxpbmUgc3R5bGU9InN0cm9rZTojMTgxODE4O3N0cm9rZS13aWR0aDoxOyIgeDE9IjI5OS41NTgiIHgyPSIyOTkuMTc2IiB5MT0iMTkwLjc2MTMiIHkyPSIyMDAuNzU0Ii8+PGxpbmUgc3R5bGU9InN0cm9rZTojMTgxODE4O3N0cm9rZS13aWR0aDoxOyIgeDE9IjI5OS41NTgiIHgyPSIzMDQuMTEiIHkxPSIxOTAuNzYxMyIgeTI9IjE5Ny4zNCIvPjxlbGxpcHNlIGN4PSIyOTYuMTQ0MSIgY3k9IjE4NS44MjcyIiBmaWxsPSJub25lIiByeD0iNCIgcnk9IjQiIHN0eWxlPSJzdHJva2U6IzE4MTgxODtzdHJva2Utd2lkdGg6MTsiLz48dGV4dCBmaWxsPSIjMDAwMDAwIiBmb250LWZhbWlseT0ic2Fucy1zZXJpZiIgZm9udC1zaXplPSIxMyIgbGVuZ3RoQWRqdXN0PSJzcGFjaW5nIiB0ZXh0TGVuZ3RoPSIyNiIgeD0iMjc5LjUiIHk9IjE1OC4yODkxIj5pc19hPC90ZXh0PjwvZz48IS0tbGluayBTdHVkZW50IHRvIFByb2dyZXNzLS0+PGcgY2xhc3M9ImxpbmsiIGRhdGEtZW50aXR5LTE9IlN0dWRlbnQiIGRhdGEtZW50aXR5LTI9IlByb2dyZXNzIiBkYXRhLXNvdXJjZS1saW5lPSI3NSIgZGF0YS11aWQ9ImxuazE0IiBpZD0ibGlua19TdHVkZW50X1Byb2dyZXNzIj48cGF0aCBjb2RlTGluZT0iNzUiIGQ9Ik0xNTAuMDYwOSwyOTAuNTMxOSBDMTU5LjY4MDksMzEzLjE1MTkgMTYxLjI1NDYsMzE2Ljg0NjEgMTcxLjYyNDYsMzQxLjIyNjEiIGZpbGw9Im5vbmUiIGlkPSJTdHVkZW50LVByb2dyZXNzIiBzdHlsZT0ic3Ryb2tlOiMxODE4MTg7c3Ryb2tlLXdpZHRoOjE7Ii8+PGxpbmUgc3R5bGU9InN0cm9rZTojMTgxODE4O3N0cm9rZS13aWR0aDoxOyIgeDE9IjE0NC44MTQ1IiB4Mj0iMTUyLjE3NjQiIHkxPSIyODguNDE2NCIgeTI9IjI4NS4yODU1Ii8+PGxpbmUgc3R5bGU9InN0cm9rZTojMTgxODE4O3N0cm9rZS13aWR0aDoxOyIgeDE9IjE0NS45ODg2IiB4Mj0iMTUzLjM1MDUiIHkxPSIyOTEuMTc3MSIgeTI9IjI4OC4wNDYyIi8+PGxpbmUgc3R5bGU9InN0cm9rZTojMTgxODE4O3N0cm9rZS13aWR0aDoxOyIgeDE9IjE1MC4wNjA5IiB4Mj0iMTQ2LjkzIiB5MT0iMjkwLjUzMTkiIHkyPSIyODMuMTciLz48bGluZSBzdHlsZT0ic3Ryb2tlOiMxODE4MTg7c3Ryb2tlLXdpZHRoOjE7IiB4MT0iMTc1LjUzODciIHgyPSIxODQuMTkxMyIgeTE9IjM1MC40MjgzIiB5Mj0iMzU1LjQ0MTUiLz48bGluZSBzdHlsZT0ic3Ryb2tlOiMxODE4MTg7c3Ryb2tlLXdpZHRoOjE7IiB4MT0iMTc1LjUzODciIHgyPSIxNzMuMTQ4NyIgeTE9IjM1MC40MjgzIiB5Mj0iMzYwLjEzODUiLz48bGluZSBzdHlsZT0ic3Ryb2tlOiMxODE4MTg7c3Ryb2tlLXdpZHRoOjE7IiB4MT0iMTc1LjUzODciIHgyPSIxNzguNjciIHkxPSIzNTAuNDI4MyIgeTI9IjM1Ny43OSIvPjxlbGxpcHNlIGN4PSIxNzMuMTkwMiIgY3k9IjM0NC45MDciIGZpbGw9Im5vbmUiIHJ4PSI0IiByeT0iNCIgc3R5bGU9InN0cm9rZTojMTgxODE4O3N0cm9rZS13aWR0aDoxOyIvPjx0ZXh0IGZpbGw9IiMwMDAwMDAiIGZvbnQtZmFtaWx5PSJzYW5zLXNlcmlmIiBmb250LXNpemU9IjEzIiBsZW5ndGhBZGp1c3Q9InNwYWNpbmciIHRleHRMZW5ndGg9IjE5LjUiIHg9IjE2Ny41IiB5PSIzMjYuMjg5MSI+aGFzPC90ZXh0PjwvZz48IS0tbGluayBQcm9ncmVzcyB0byBDb250ZW50LS0+PGcgY2xhc3M9ImxpbmsiIGRhdGEtZW50aXR5LTE9IlByb2dyZXNzIiBkYXRhLWVudGl0eS0yPSJDb250ZW50IiBkYXRhLXNvdXJjZS1saW5lPSI3NiIgZGF0YS11aWQ9ImxuazE1IiBpZD0ibGlua19Qcm9ncmVzc19Db250ZW50Ij48cGF0aCBjb2RlTGluZT0iNzYiIGQ9Ik0yNTcuMzA3Nyw0OTUuNzU1NCBDMjc0LjQ2NzcsNTIwLjIxNTQgMjc5LjAwNDYsNTI2LjY4MTYgMjk0LjkzNDYsNTQ5LjM4MTYiIGZpbGw9Im5vbmUiIGlkPSJQcm9ncmVzcy1Db250ZW50IiBzdHlsZT0ic3Ryb2tlOiMxODE4MTg7c3Ryb2tlLXdpZHRoOjE7Ii8+PGxpbmUgc3R5bGU9InN0cm9rZTojMTgxODE4O3N0cm9rZS13aWR0aDoxOyIgeDE9IjI1MS41NjQ1IiB4Mj0iMjQyLjA1ODIiIHkxPSI0ODcuNTY5MSIgeTI9IjQ4NC40NjU5Ii8+PGxpbmUgc3R5bGU9InN0cm9rZTojMTgxODE4O3N0cm9rZS13aWR0aDoxOyIgeDE9IjI1MS41NjQ1IiB4Mj0iMjUxLjg4MTgiIHkxPSI0ODcuNTY5MSIgeTI9IjQ3Ny41NzQxIi8+PGxpbmUgc3R5bGU9InN0cm9rZTojMTgxODE4O3N0cm9rZS13aWR0aDoxOyIgeDE9IjI1MS41NjQ1IiB4Mj0iMjQ2Ljk3IiB5MT0iNDg3LjU2OTEiIHkyPSI0ODEuMDIiLz48ZWxsaXBzZSBjeD0iMjU1LjAxMDQiIGN5PSI0OTIuNDgwOSIgZmlsbD0ibm9uZSIgcng9IjQiIHJ5PSI0IiBzdHlsZT0ic3Ryb2tlOiMxODE4MTg7c3Ryb2tlLXdpZHRoOjE7Ii8+PGxpbmUgc3R5bGU9InN0cm9rZTojMTgxODE4O3N0cm9rZS13aWR0aDoxOyIgeDE9IjMwMC41MDY1IiB4Mj0iMjkzLjk1ODEiIHkxPSI1NTAuMzU4MSIgeTI9IjU1NC45NTM1Ii8+PGxpbmUgc3R5bGU9InN0cm9rZTojMTgxODE4O3N0cm9rZS13aWR0aDoxOyIgeDE9IjI5OC43ODMyIiB4Mj0iMjkyLjIzNDgiIHkxPSI1NDcuOTAyNCIgeTI9IjU1Mi40OTc4Ii8+PGxpbmUgc3R5bGU9InN0cm9rZTojMTgxODE4O3N0cm9rZS13aWR0aDoxOyIgeDE9IjI5NC45MzQ2IiB4Mj0iMjk5LjUzIiB5MT0iNTQ5LjM4MTYiIHkyPSI1NTUuOTMiLz48dGV4dCBmaWxsPSIjMDAwMDAwIiBmb250LWZhbWlseT0ic2Fucy1zZXJpZiIgZm9udC1zaXplPSIxMyIgbGVuZ3RoQWRqdXN0PSJzcGFjaW5nIiB0ZXh0TGVuZ3RoPSIzOSIgeD0iMjc3LjUiIHk9IjUyNC4yODkxIj50cmFja3M8L3RleHQ+PC9nPjwhLS1saW5rIFByb2dyZXNzIHRvIFRlc3QtLT48ZyBjbGFzcz0ibGluayIgZGF0YS1lbnRpdHktMT0iUHJvZ3Jlc3MiIGRhdGEtZW50aXR5LTI9IlRlc3QiIGRhdGEtc291cmNlLWxpbmU9Ijc3IiBkYXRhLXVpZD0ibG5rMTYiIGlkPSJsaW5rX1Byb2dyZXNzX1Rlc3QiPjxwYXRoIGNvZGVMaW5lPSI3NyIgZD0iTTE5Mi4xNDU0LDQ5OS4xNjE3IEMxODEuNDI1NCw1NjcuMzcxNyAxNjkuMzQ2Miw2NDQuMjYxNSAxNTkuMTY2Miw3MDkuMTExNSIgZmlsbD0ibm9uZSIgaWQ9IlByb2dyZXNzLVRlc3QiIHN0eWxlPSJzdHJva2U6IzE4MTgxODtzdHJva2Utd2lkdGg6MTsiLz48bGluZSBzdHlsZT0ic3Ryb2tlOiMxODE4MTg7c3Ryb2tlLXdpZHRoOjE7IiB4MT0iMTkzLjY5OCIgeDI9IjE4OS4wMTI4IiB5MT0iNDg5LjI4MyIgeTI9IjQ4MC40NDg1Ii8+PGxpbmUgc3R5bGU9InN0cm9rZTojMTgxODE4O3N0cm9rZS13aWR0aDoxOyIgeDE9IjE5My42OTgiIHgyPSIyMDAuODY3MiIgeTE9IjQ4OS4yODMiIHkyPSI0ODIuMzExNSIvPjxsaW5lIHN0eWxlPSJzdHJva2U6IzE4MTgxODtzdHJva2Utd2lkdGg6MTsiIHgxPSIxOTMuNjk4IiB4Mj0iMTk0Ljk0IiB5MT0iNDg5LjI4MyIgeTI9IjQ4MS4zOCIvPjxlbGxpcHNlIGN4PSIxOTIuNzY2NCIgY3k9IjQ5NS4yMTAyIiBmaWxsPSJub25lIiByeD0iNCIgcnk9IjQiIHN0eWxlPSJzdHJva2U6IzE4MTgxODtzdHJva2Utd2lkdGg6MTsiLz48bGluZSBzdHlsZT0ic3Ryb2tlOiMxODE4MTg7c3Ryb2tlLXdpZHRoOjE7IiB4MT0iMTU4LjU0NTkiIHgyPSIxNTYuODQiIHkxPSI3MTMuMDYzMSIgeTI9IjcyMy45MyIvPjxlbGxpcHNlIGN4PSIxNTguNTQ1OSIgY3k9IjcxMy4wNjMxIiBmaWxsPSJub25lIiByeD0iNCIgcnk9IjQiIHN0eWxlPSJzdHJva2U6IzE4MTgxODtzdHJva2Utd2lkdGg6MTsiLz48bGluZSBzdHlsZT0ic3Ryb2tlOiMxODE4MTg7c3Ryb2tlLXdpZHRoOjE7IiB4MT0iMTYxLjQxMTkiIHgyPSIxNTMuNTA4NyIgeTE9IjcyMC41OTg3IiB5Mj0iNzE5LjM1ODEiLz48dGV4dCBmaWxsPSIjMDAwMDAwIiBmb250LWZhbWlseT0ic2Fucy1zZXJpZiIgZm9udC1zaXplPSIxMyIgbGVuZ3RoQWRqdXN0PSJzcGFjaW5nIiB0ZXh0TGVuZ3RoPSI1OC41IiB4PSIxODQuNSIgeT0iNjA4LjI4OTEiPmV2YWx1YXRlczwvdGV4dD48L2c+PCEtLWxpbmsgQ29udGVudCB0byBUZXN0LS0+PGcgY2xhc3M9ImxpbmsiIGRhdGEtZW50aXR5LTE9IkNvbnRlbnQiIGRhdGEtZW50aXR5LTI9IlRlc3QiIGRhdGEtc291cmNlLWxpbmU9Ijc4IiBkYXRhLXVpZD0ibG5rMTciIGlkPSJsaW5rX0NvbnRlbnRfVGVzdCI+PHBhdGggY29kZUxpbmU9Ijc4IiBkPSJNMjc3LjYxMzcsNjU0LjU5MzQgQzI1My40NjM3LDY3Ny40ODM0IDI0Mi45NDMyLDY4Ny40NjY0IDIxNy43NjMyLDcxMS4zMzY0IiBmaWxsPSJub25lIiBpZD0iQ29udGVudC1UZXN0IiBzdHlsZT0ic3Ryb2tlOiMxODE4MTg7c3Ryb2tlLXdpZHRoOjE7Ii8+PGxpbmUgc3R5bGU9InN0cm9rZTojMTgxODE4O3N0cm9rZS13aWR0aDoxOyIgeDE9IjI3Ny43NjUyIiB4Mj0iMjgzLjI2ODUiIHkxPSI2NDguOTM4NSIgeTI9IjY1NC43NDQ4Ii8+PGxpbmUgc3R5bGU9InN0cm9rZTojMTgxODE4O3N0cm9rZS13aWR0aDoxOyIgeDE9IjI3NS41ODc4IiB4Mj0iMjgxLjA5MTIiIHkxPSI2NTEuMDAyMyIgeTI9IjY1Ni44MDg2Ii8+PGxpbmUgc3R5bGU9InN0cm9rZTojMTgxODE4O3N0cm9rZS13aWR0aDoxOyIgeDE9IjI3Ny42MTM3IiB4Mj0iMjgzLjQyIiB5MT0iNjU0LjU5MzQiIHkyPSI2NDkuMDkiLz48bGluZSBzdHlsZT0ic3Ryb2tlOiMxODE4MTg7c3Ryb2tlLXdpZHRoOjE7IiB4MT0iMjEwLjUwNTkiIHgyPSIyMDguODI3OSIgeTE9IjcxOC4yMTYyIiB5Mj0iNzI4LjA3NDQiLz48bGluZSBzdHlsZT0ic3Ryb2tlOiMxODE4MTg7c3Ryb2tlLXdpZHRoOjE7IiB4MT0iMjEwLjUwNTkiIHgyPSIyMDAuNTcyMSIgeTE9IjcxOC4yMTYyIiB5Mj0iNzE5LjM2NTYiLz48bGluZSBzdHlsZT0ic3Ryb2tlOiMxODE4MTg7c3Ryb2tlLXdpZHRoOjE7IiB4MT0iMjEwLjUwNTkiIHgyPSIyMDQuNyIgeTE9IjcxOC4yMTYyIiB5Mj0iNzIzLjcyIi8+PGVsbGlwc2UgY3g9IjIxNC44NjAzIiBjeT0iNzE0LjA4ODMiIGZpbGw9Im5vbmUiIHJ4PSI0IiByeT0iNCIgc3R5bGU9InN0cm9rZTojMTgxODE4O3N0cm9rZS13aWR0aDoxOyIvPjx0ZXh0IGZpbGw9IiMwMDAwMDAiIGZvbnQtZmFtaWx5PSJzYW5zLXNlcmlmIiBmb250LXNpemU9IjEzIiBsZW5ndGhBZGp1c3Q9InNwYWNpbmciIHRleHRMZW5ndGg9IjE5LjUiIHg9IjI1Mi41IiB5PSI2OTIuMjg5MSI+aGFzPC90ZXh0PjwvZz48IS0tbGluayBTdHVkZW50IHRvIFRlc3QtLT48ZyBjbGFzcz0ibGluayIgZGF0YS1lbnRpdHktMT0iU3R1ZGVudCIgZGF0YS1lbnRpdHktMj0iVGVzdCIgZGF0YS1zb3VyY2UtbGluZT0iNzkiIGRhdGEtdWlkPSJsbmsxOCIgaWQ9ImxpbmtfU3R1ZGVudF9UZXN0Ij48cGF0aCBjb2RlTGluZT0iNzkiIGQ9Ik0xMjEuMTUzMSwzMDEuMTQzNiBDMTE5LjA3MzEsMzIzLjY0MzYgMTE4LjUzLDMzMy4yNSAxMTcuNSwzNTggQzExNS4yNCw0MTIuNjIgMTE0LjY1LDQyNi40MSAxMTcuNSw0ODEgQzEyMS45NSw1NjYuMjcgMTMxLjI1Miw2NDYuOTM5OSAxMzguOTMyLDcwNi4wNzk5IiBmaWxsPSJub25lIiBpZD0iU3R1ZGVudC1UZXN0IiBzdHlsZT0ic3Ryb2tlOiMxODE4MTg7c3Ryb2tlLXdpZHRoOjE7Ii8+PGxpbmUgc3R5bGU9InN0cm9rZTojMTgxODE4O3N0cm9rZS13aWR0aDoxOyIgeDE9IjEyMi4wNzM2IiB4Mj0iMTE2LjgzNTUiIHkxPSIyOTEuMTg2IiB5Mj0iMjgyLjY2NzciLz48bGluZSBzdHlsZT0ic3Ryb2tlOiMxODE4MTg7c3Ryb2tlLXdpZHRoOjE7IiB4MT0iMTIyLjA3MzYiIHgyPSIxMjguNzg0NSIgeTE9IjI5MS4xODYiIHkyPSIyODMuNzcyMyIvPjxsaW5lIHN0eWxlPSJzdHJva2U6IzE4MTgxODtzdHJva2Utd2lkdGg6MTsiIHgxPSIxMjIuMDczNiIgeDI9IjEyMi44MSIgeTE9IjI5MS4xODYiIHkyPSIyODMuMjIiLz48ZWxsaXBzZSBjeD0iMTIxLjUyMTMiIGN5PSIyOTcuMTYwNiIgZmlsbD0ibm9uZSIgcng9IjQiIHJ5PSI0IiBzdHlsZT0ic3Ryb2tlOiMxODE4MTg7c3Ryb2tlLXdpZHRoOjE7Ii8+PGxpbmUgc3R5bGU9InN0cm9rZTojMTgxODE4O3N0cm9rZS13aWR0aDoxOyIgeDE9IjE0MC4yMTk4IiB4Mj0iMTQ3LjIiIHkxPSI3MTUuOTk2NiIgeTI9IjcyMy4xNTczIi8+PGxpbmUgc3R5bGU9InN0cm9rZTojMTgxODE4O3N0cm9rZS13aWR0aDoxOyIgeDE9IjE0MC4yMTk4IiB4Mj0iMTM1LjMiIHkxPSI3MTUuOTk2NiIgeTI9IjcyNC43MDI3Ii8+PGxpbmUgc3R5bGU9InN0cm9rZTojMTgxODE4O3N0cm9rZS13aWR0aDoxOyIgeDE9IjE0MC4yMTk4IiB4Mj0iMTQxLjI1IiB5MT0iNzE1Ljk5NjYiIHkyPSI3MjMuOTMiLz48ZWxsaXBzZSBjeD0iMTM5LjQ0NzEiIGN5PSI3MTAuMDQ2NiIgZmlsbD0ibm9uZSIgcng9IjQiIHJ5PSI0IiBzdHlsZT0ic3Ryb2tlOiMxODE4MTg7c3Ryb2tlLXdpZHRoOjE7Ii8+PHRleHQgZmlsbD0iIzAwMDAwMCIgZm9udC1mYW1pbHk9InNhbnMtc2VyaWYiIGZvbnQtc2l6ZT0iMTMiIGxlbmd0aEFkanVzdD0ic3BhY2luZyIgdGV4dExlbmd0aD0iMzIuNSIgeD0iMTIxLjUiIHk9IjUyNC4yODkxIj50YWtlczwvdGV4dD48L2c+PCEtLWxpbmsgU3R1ZGVudCB0byBTdHVkZW50X1Rlc3QtLT48ZyBjbGFzcz0ibGluayIgZGF0YS1lbnRpdHktMT0iU3R1ZGVudCIgZGF0YS1lbnRpdHktMj0iU3R1ZGVudF9UZXN0IiBkYXRhLXNvdXJjZS1saW5lPSI4MCIgZGF0YS11aWQ9ImxuazE5IiBpZD0ibGlua19TdHVkZW50X1N0dWRlbnRfVGVzdCI+PHBhdGggY29kZUxpbmU9IjgwIiBkPSJNNzIuMTg5MSwyODguOTg0OSBDNDAuNzQ5MSwzMjIuODc0OSAxMS41LDM2Ni4yNSAxMS41LDQxOC41IEMxMS41LDQxOC41IDExLjUsNDE4LjUgMTEuNSw3NzkgQzExLjUsODE5LjMyIDIwLjQwMTIsODQ1Ljg1NzYgMzYuNTQxMiw4NzYuODI3NiIgZmlsbD0ibm9uZSIgaWQ9IlN0dWRlbnQtU3R1ZGVudF9UZXN0IiBzdHlsZT0ic3Ryb2tlOiMxODE4MTg7c3Ryb2tlLXdpZHRoOjE7Ii8+PGxpbmUgc3R5bGU9InN0cm9rZTojMTgxODE4O3N0cm9rZS13aWR0aDoxOyIgeDE9IjcxLjk3NzEiIHgyPSI3Ny44NDIiIHkxPSIyODMuMzMyIiB5Mj0iMjg4Ljc3MjkiLz48bGluZSBzdHlsZT0ic3Ryb2tlOiMxODE4MTg7c3Ryb2tlLXdpZHRoOjE7IiB4MT0iNjkuOTM2OCIgeDI9Ijc1LjgwMTciIHkxPSIyODUuNTMxMyIgeTI9IjI5MC45NzIyIi8+PGxpbmUgc3R5bGU9InN0cm9rZTojMTgxODE4O3N0cm9rZS13aWR0aDoxOyIgeDE9IjcyLjE4OTEiIHgyPSI3Ny42MyIgeTE9IjI4OC45ODQ5IiB5Mj0iMjgzLjEyIi8+PGxpbmUgc3R5bGU9InN0cm9rZTojMTgxODE4O3N0cm9rZS13aWR0aDoxOyIgeDE9IjQxLjE2MjgiIHgyPSI1MC4xODA4IiB5MT0iODg1LjY5NTYiIHkyPSI4OTAuMDE3MSIvPjxsaW5lIHN0eWxlPSJzdHJva2U6IzE4MTgxODtzdHJva2Utd2lkdGg6MTsiIHgxPSI0MS4xNjI4IiB4Mj0iMzkuNTM5MiIgeTE9Ijg4NS42OTU2IiB5Mj0iODk1LjU2MjkiLz48bGluZSBzdHlsZT0ic3Ryb2tlOiMxODE4MTg7c3Ryb2tlLXdpZHRoOjE7IiB4MT0iNDEuMTYyOCIgeDI9IjQ0Ljg2IiB5MT0iODg1LjY5NTYiIHkyPSI4OTIuNzkiLz48ZWxsaXBzZSBjeD0iMzguMzg5OCIgY3k9Ijg4MC4zNzQ4IiBmaWxsPSJub25lIiByeD0iNCIgcnk9IjQiIHN0eWxlPSJzdHJva2U6IzE4MTgxODtzdHJva2Utd2lkdGg6MTsiLz48L2c+PCEtLWxpbmsgVGVzdCB0byBTdHVkZW50X1Rlc3QtLT48ZyBjbGFzcz0ibGluayIgZGF0YS1lbnRpdHktMT0iVGVzdCIgZGF0YS1lbnRpdHktMj0iU3R1ZGVudF9UZXN0IiBkYXRhLXNvdXJjZS1saW5lPSI4MSIgZGF0YS11aWQ9ImxuazIwIiBpZD0ibGlua19UZXN0X1N0dWRlbnRfVGVzdCI+PHBhdGggY29kZUxpbmU9IjgxIiBkPSJNMTE5Ljc0OTUsODM5LjMzMjQgQzExMC4zNzk1LDg1OS4wMDI0IDExMS4wMzMxLDg1Ny42MzA2IDEwMi4wMDMxLDg3Ni41ODA2IiBmaWxsPSJub25lIiBpZD0iVGVzdC1TdHVkZW50X1Rlc3QiIHN0eWxlPSJzdHJva2U6IzE4MTgxODtzdHJva2Utd2lkdGg6MTsiLz48bGluZSBzdHlsZT0ic3Ryb2tlOiMxODE4MTg7c3Ryb2tlLXdpZHRoOjE7IiB4MT0iMTE3Ljg1ODYiIHgyPSIxMjUuMDgxIiB5MT0iODM0LjAwMSIgeTI9IjgzNy40NDE0Ii8+PGxpbmUgc3R5bGU9InN0cm9rZTojMTgxODE4O3N0cm9rZS13aWR0aDoxOyIgeDE9IjExNi41Njg0IiB4Mj0iMTIzLjc5MDgiIHkxPSI4MzYuNzA5NCIgeTI9Ijg0MC4xNDk4Ii8+PGxpbmUgc3R5bGU9InN0cm9rZTojMTgxODE4O3N0cm9rZS13aWR0aDoxOyIgeDE9IjExOS43NDk1IiB4Mj0iMTIzLjE5IiB5MT0iODM5LjMzMjQiIHkyPSI4MzIuMTEiLz48bGluZSBzdHlsZT0ic3Ryb2tlOiMxODE4MTg7c3Ryb2tlLXdpZHRoOjE7IiB4MT0iOTcuNzAxNCIgeDI9Ijk5LjY3NjUiIHkxPSI4ODUuNjA4IiB5Mj0iODk1LjQxMSIvPjxsaW5lIHN0eWxlPSJzdHJva2U6IzE4MTgxODtzdHJva2Utd2lkdGg6MTsiIHgxPSI5Ny43MDE0IiB4Mj0iODguODQzNSIgeTE9Ijg4NS42MDgiIHkyPSI4OTAuMjQ5Ii8+PGxpbmUgc3R5bGU9InN0cm9rZTojMTgxODE4O3N0cm9rZS13aWR0aDoxOyIgeDE9Ijk3LjcwMTQiIHgyPSI5NC4yNiIgeTE9Ijg4NS42MDgiIHkyPSI4OTIuODMiLz48ZWxsaXBzZSBjeD0iMTAwLjI4MjQiIGN5PSI4ODAuMTkxNiIgZmlsbD0ibm9uZSIgcng9IjQiIHJ5PSI0IiBzdHlsZT0ic3Ryb2tlOiMxODE4MTg7c3Ryb2tlLXdpZHRoOjE7Ii8+PC9nPjwhLS1saW5rIENvbnRlbnQgdG8gVGFnLS0+PGcgY2xhc3M9ImxpbmsiIGRhdGEtZW50aXR5LTE9IkNvbnRlbnQiIGRhdGEtZW50aXR5LTI9IlRhZyIgZGF0YS1zb3VyY2UtbGluZT0iODIiIGRhdGEtdWlkPSJsbmsyMSIgaWQ9ImxpbmtfQ29udGVudF9UYWciPjxwYXRoIGNvZGVMaW5lPSI4MiIgZD0iTTMyNS4yNzc3LDY2Ny4wMDQ1IEMzMjIuNTQ3Nyw2OTQuOTE0NSAzMjIuNTk0Miw2OTQuMzk1NyAzMjAuMDA0Miw3MjAuODQ1NyIgZmlsbD0ibm9uZSIgaWQ9IkNvbnRlbnQtVGFnIiBzdHlsZT0ic3Ryb2tlOiMxODE4MTg7c3Ryb2tlLXdpZHRoOjE7Ii8+PGxpbmUgc3R5bGU9InN0cm9rZTojMTgxODE4O3N0cm9rZS13aWR0aDoxOyIgeDE9IjMyNi4yNTEyIiB4Mj0iMzIxLjA1ODUiIHkxPSI2NTcuMDUyIiB5Mj0iNjQ4LjUwNTkiLz48bGluZSBzdHlsZT0ic3Ryb2tlOiMxODE4MTg7c3Ryb2tlLXdpZHRoOjE7IiB4MT0iMzI2LjI1MTIiIHgyPSIzMzMuMDAxNSIgeTE9IjY1Ny4wNTIiIHkyPSI2NDkuNjc0MSIvPjxsaW5lIHN0eWxlPSJzdHJva2U6IzE4MTgxODtzdHJva2Utd2lkdGg6MTsiIHgxPSIzMjYuMjUxMiIgeDI9IjMyNy4wMyIgeTE9IjY1Ny4wNTIiIHkyPSI2NDkuMDkiLz48ZWxsaXBzZSBjeD0iMzI1LjY2NzEiIGN5PSI2NjMuMDIzNSIgZmlsbD0ibm9uZSIgcng9IjQiIHJ5PSI0IiBzdHlsZT0ic3Ryb2tlOiMxODE4MTg7c3Ryb2tlLXdpZHRoOjE7Ii8+PGxpbmUgc3R5bGU9InN0cm9rZTojMTgxODE4O3N0cm9rZS13aWR0aDoxOyIgeDE9IjMxOS4wMjk2IiB4Mj0iMzI0LjIyMTQiIHkxPSI3MzAuNzk4MSIgeTI9IjczOS4zNDQ3Ii8+PGxpbmUgc3R5bGU9InN0cm9rZTojMTgxODE4O3N0cm9rZS13aWR0aDoxOyIgeDE9IjMxOS4wMjk2IiB4Mj0iMzEyLjI3ODYiIHkxPSI3MzAuNzk4MSIgeTI9IjczOC4xNzUzIi8+PGxpbmUgc3R5bGU9InN0cm9rZTojMTgxODE4O3N0cm9rZS13aWR0aDoxOyIgeDE9IjMxOS4wMjk2IiB4Mj0iMzE4LjI1IiB5MT0iNzMwLjc5ODEiIHkyPSI3MzguNzYiLz48ZWxsaXBzZSBjeD0iMzE5LjYxNDQiIGN5PSI3MjQuODI2NiIgZmlsbD0ibm9uZSIgcng9IjQiIHJ5PSI0IiBzdHlsZT0ic3Ryb2tlOiMxODE4MTg7c3Ryb2tlLXdpZHRoOjE7Ii8+PHRleHQgZmlsbD0iIzAwMDAwMCIgZm9udC1mYW1pbHk9InNhbnMtc2VyaWYiIGZvbnQtc2l6ZT0iMTMiIGxlbmd0aEFkanVzdD0ic3BhY2luZyIgdGV4dExlbmd0aD0iMTkuNSIgeD0iMzI1LjUiIHk9IjY5Mi4yODkxIj5oYXM8L3RleHQ+PC9nPjwhLS1saW5rIENvbnRlbnQgdG8gQ29udGVudF9UYWctLT48ZyBjbGFzcz0ibGluayIgZGF0YS1lbnRpdHktMT0iQ29udGVudCIgZGF0YS1lbnRpdHktMj0iQ29udGVudF9UYWciIGRhdGEtc291cmNlLWxpbmU9IjgzIiBkYXRhLXVpZD0ibG5rMjIiIGlkPSJsaW5rX0NvbnRlbnRfQ29udGVudF9UYWciPjxwYXRoIGNvZGVMaW5lPSI4MyIgZD0iTTM1OS45Njc0LDY1Ni40NjQ3IEMzNzAuNTQ3NCw2NzguMzg0NyAzNzguMTgsNjk4LjIzIDM4My41LDcyNCBDMzk2LjA0LDc4NC43MiAzOTMuOTk3NSw4MzkuMjczMSAzODkuODI3NSw4ODIuNTIzMSIgZmlsbD0ibm9uZSIgaWQ9IkNvbnRlbnQtQ29udGVudF9UYWciIHN0eWxlPSJzdHJva2U6IzE4MTgxODtzdHJva2Utd2lkdGg6MTsiLz48bGluZSBzdHlsZT0ic3Ryb2tlOiMxODE4MTg7c3Ryb2tlLXdpZHRoOjE7IiB4MT0iMzU0LjYyNjQiIHgyPSIzNjEuODMxMSIgeTE9IjY1NC42MDExIiB5Mj0iNjUxLjEyMzYiLz48bGluZSBzdHlsZT0ic3Ryb2tlOiMxODE4MTg7c3Ryb2tlLXdpZHRoOjE7IiB4MT0iMzU1LjkzMDQiIHgyPSIzNjMuMTM1MSIgeTE9IjY1Ny4zMDI4IiB5Mj0iNjUzLjgyNTQiLz48bGluZSBzdHlsZT0ic3Ryb2tlOiMxODE4MTg7c3Ryb2tlLXdpZHRoOjE7IiB4MT0iMzU5Ljk2NzQiIHgyPSIzNTYuNDkiIHkxPSI2NTYuNDY0NyIgeTI9IjY0OS4yNiIvPjxsaW5lIHN0eWxlPSJzdHJva2U6IzE4MTgxODtzdHJva2Utd2lkdGg6MTsiIHgxPSIzODguODY3OCIgeDI9IjM5NC4wNzIzIiB5MT0iODkyLjQ3NjkiIHkyPSI5MDEuMDE1OCIvPjxsaW5lIHN0eWxlPSJzdHJva2U6IzE4MTgxODtzdHJva2Utd2lkdGg6MTsiIHgxPSIzODguODY3OCIgeDI9IjM4Mi4xMjc3IiB5MT0iODkyLjQ3NjkiIHkyPSI4OTkuODY0MiIvPjxsaW5lIHN0eWxlPSJzdHJva2U6IzE4MTgxODtzdHJva2Utd2lkdGg6MTsiIHgxPSIzODguODY3OCIgeDI9IjM4OC4xIiB5MT0iODkyLjQ3NjkiIHkyPSI5MDAuNDQiLz48ZWxsaXBzZSBjeD0iMzg5LjQ0MzYiIGN5PSI4ODYuNTA0NiIgZmlsbD0ibm9uZSIgcng9IjQiIHJ5PSI0IiBzdHlsZT0ic3Ryb2tlOiMxODE4MTg7c3Ryb2tlLXdpZHRoOjE7Ii8+PC9nPjwhLS1saW5rIFRhZyB0byBDb250ZW50X1RhZy0tPjxnIGNsYXNzPSJsaW5rIiBkYXRhLWVudGl0eS0xPSJUYWciIGRhdGEtZW50aXR5LTI9IkNvbnRlbnRfVGFnIiBkYXRhLXNvdXJjZS1saW5lPSI4NCIgZGF0YS11aWQ9ImxuazIzIiBpZD0ibGlua19UYWdfQ29udGVudF9UYWciPjxwYXRoIGNvZGVMaW5lPSI4NCIgZD0iTTMzNC4yMDUzLDgyNC41NDI5IEMzNDUuMDg1Myw4NDkuNzAyOSAzNDguOTYzMiw4NTguNjU5NiAzNTkuODQzMiw4ODMuODA5NiIgZmlsbD0ibm9uZSIgaWQ9IlRhZy1Db250ZW50X1RhZyIgc3R5bGU9InN0cm9rZTojMTgxODE4O3N0cm9rZS13aWR0aDoxOyIvPjxsaW5lIHN0eWxlPSJzdHJva2U6IzE4MTgxODtzdHJva2Utd2lkdGg6MTsiIHgxPSIzMjguOTQ2MiIgeDI9IjMzNi4yODkxIiB5MT0iODIyLjQ1OTEiIHkyPSI4MTkuMjgzOCIvPjxsaW5lIHN0eWxlPSJzdHJva2U6IzE4MTgxODtzdHJva2Utd2lkdGg6MTsiIHgxPSIzMzAuMTM2OSIgeDI9IjMzNy40Nzk4IiB5MT0iODI1LjIxMjYiIHkyPSI4MjIuMDM3NCIvPjxsaW5lIHN0eWxlPSJzdHJva2U6IzE4MTgxODtzdHJva2Utd2lkdGg6MTsiIHgxPSIzMzQuMjA1MyIgeDI9IjMzMS4wMyIgeTE9IjgyNC41NDI5IiB5Mj0iODE3LjIiLz48bGluZSBzdHlsZT0ic3Ryb2tlOiMxODE4MTg7c3Ryb2tlLXdpZHRoOjE7IiB4MT0iMzYzLjgxMzYiIHgyPSIzNzIuNDk2OCIgeTE9Ijg5Mi45ODc2IiB5Mj0iODk3Ljk0NzciLz48bGluZSBzdHlsZT0ic3Ryb2tlOiMxODE4MTg7c3Ryb2tlLXdpZHRoOjE7IiB4MT0iMzYzLjgxMzYiIHgyPSIzNjEuNDgzMiIgeTE9Ijg5Mi45ODc2IiB5Mj0iOTAyLjcxMjMiLz48bGluZSBzdHlsZT0ic3Ryb2tlOiMxODE4MTg7c3Ryb2tlLXdpZHRoOjE7IiB4MT0iMzYzLjgxMzYiIHgyPSIzNjYuOTkiIHkxPSI4OTIuOTg3NiIgeTI9IjkwMC4zMyIvPjxlbGxpcHNlIGN4PSIzNjEuNDMxNCIgY3k9Ijg4Ny40ODA4IiBmaWxsPSJub25lIiByeD0iNCIgcnk9IjQiIHN0eWxlPSJzdHJva2U6IzE4MTgxODtzdHJva2Utd2lkdGg6MTsiLz48L2c+PCEtLWxpbmsgQWRtaW5pc3RyYXRvciB0byBSZXBvcnQtLT48ZyBjbGFzcz0ibGluayIgZGF0YS1lbnRpdHktMT0iQWRtaW5pc3RyYXRvciIgZGF0YS1lbnRpdHktMj0iUmVwb3J0IiBkYXRhLXNvdXJjZS1saW5lPSI4NSIgZGF0YS11aWQ9ImxuazI0IiBpZD0ibGlua19BZG1pbmlzdHJhdG9yX1JlcG9ydCI+PHBhdGggY29kZUxpbmU9Ijg1IiBkPSJNMzQwLjcwNjEsMjgzLjcwMTYgQzM0Ni45NjYxLDMxMi4wMzE2IDM0OS45MDcsMzI1LjMwMzggMzU2LjUxNywzNTUuMjIzOCIgZmlsbD0ibm9uZSIgaWQ9IkFkbWluaXN0cmF0b3ItUmVwb3J0IiBzdHlsZT0ic3Ryb2tlOiMxODE4MTg7c3Ryb2tlLXdpZHRoOjE7Ii8+PGxpbmUgc3R5bGU9InN0cm9rZTojMTgxODE4O3N0cm9rZS13aWR0aDoxOyIgeDE9IjMzNS45MzczIiB4Mj0iMzQzLjc0ODgiIHkxPSIyODAuNjU4OCIgeTI9IjI3OC45MzI3Ii8+PGxpbmUgc3R5bGU9InN0cm9rZTojMTgxODE4O3N0cm9rZS13aWR0aDoxOyIgeDE9IjMzNi41ODQ2IiB4Mj0iMzQ0LjM5NjEiIHkxPSIyODMuNTg4MiIgeTI9IjI4MS44NjIxIi8+PGxpbmUgc3R5bGU9InN0cm9rZTojMTgxODE4O3N0cm9rZS13aWR0aDoxOyIgeDE9IjM0MC43MDYxIiB4Mj0iMzM4Ljk4IiB5MT0iMjgzLjcwMTYiIHkyPSIyNzUuODkiLz48bGluZSBzdHlsZT0ic3Ryb2tlOiMxODE4MTg7c3Ryb2tlLXdpZHRoOjE7IiB4MT0iMzU4LjY3NDIiIHgyPSIzNjYuMjU4NyIgeTE9IjM2NC45ODg0IiB5Mj0iMzcxLjUwNTciLz48bGluZSBzdHlsZT0ic3Ryb2tlOiMxODE4MTg7c3Ryb2tlLXdpZHRoOjE7IiB4MT0iMzU4LjY3NDIiIHgyPSIzNTQuNTQxMyIgeTE9IjM2NC45ODg0IiB5Mj0iMzc0LjA5NDMiLz48bGluZSBzdHlsZT0ic3Ryb2tlOiMxODE4MTg7c3Ryb2tlLXdpZHRoOjE7IiB4MT0iMzU4LjY3NDIiIHgyPSIzNjAuNCIgeTE9IjM2NC45ODg0IiB5Mj0iMzcyLjgiLz48ZWxsaXBzZSBjeD0iMzU3LjM3OTkiIGN5PSIzNTkuMTI5NiIgZmlsbD0ibm9uZSIgcng9IjQiIHJ5PSI0IiBzdHlsZT0ic3Ryb2tlOiMxODE4MTg7c3Ryb2tlLXdpZHRoOjE7Ii8+PHRleHQgZmlsbD0iIzAwMDAwMCIgZm9udC1mYW1pbHk9InNhbnMtc2VyaWYiIGZvbnQtc2l6ZT0iMTMiIGxlbmd0aEFkanVzdD0ic3BhY2luZyIgdGV4dExlbmd0aD0iNTguNSIgeD0iMzUxLjUiIHk9IjMyNi4yODkxIj5nZW5lcmF0ZXM8L3RleHQ+PC9nPjwhLS1TUkM9W1ZMRERReUNtM0J0eEx2WFUyZU55V1R0NnMyd3hiNnV4MXY2ZWdNYVExcmlmQXF0Xy0gLUo0RGV2SlRjZHItVkpxaDZwYlVxVUE1NWcxcGhaOXBPejVpdjV0OFVMRTNjb05nZk9sU2xfOVdRQlc3blZodTg5aTZqc3dGeUJnckFhQXNqQnNNMmJld0lPVThXOS1xTDJwN0ozangzdzNkTUNWQmpSWTVUaUt2Uk0tZzR2UENhMHd5V0NOXzFTZkdOWko3SUt5Z2pkRGtxRU95OVUyb3JRMmlwVXdDTVhqMEVnemRvQ2o1ZnNNTWVvUzhlR3NUSUVLOVEzMWZiRV9lR2EzMlBmeWJXakRadjlxN0IzTjlndmg5WV9sSW1JUzJGWWc2V1dNbXZiY2QxdWZocU5CNWxEZEtnbFpLTEszZHFNdlViUF83Nkt3T0l0U0JYVGc1aFpJMWYteVM5YmVqTVFNdzNWVm5yT1VpMExJa2hDZHJMbFhGVzB2WmFNWHh6Qkp1cmZiSXJZYTVXU1AyYUF6aG1jZG1rYUpNMTdUWG93QVNQSVVCc1NQZkpmZDFOZ0tKWE5FdVhOUTBMVzI0SmV5bGl5eHgzMXZ3ZW1QV1pGUWQ1TWdrUFdBZG9OMmcwMDhaUC1LU0tYNDV3eGVJTldmYkktT3B2Q242LXBHa0V0LTAwMDBdLS0+PC9nPjwvc3ZnPg==;" vertex="1" parent="1">
            <mxGeometry x="460" y="-130" width="456" height="992" as="geometry" />
          </mxCell>
        </UserObject>
        <UserObject label="" plantUmlData="{&#xa;  &quot;data&quot;: &quot;@startuml\n&#39; Entities\nentity \&quot;User\&quot; {\n  * user_id : PK\n  --\n  username\n  role\n  technical_specialty\n}\n\nentity \&quot;Student\&quot; {\n  * student_id : PK\n  --\n  user_id : FK\n  level\n}\n\nentity \&quot;Teacher\&quot; {\n  * teacher_id : PK\n  --\n  user_id : FK\n  specialization\n}\n\nentity \&quot;Administrator\&quot; {\n  * admin_id : PK\n  --\n  user_id : FK\n}\n\nentity \&quot;Content\&quot; {\n  * content_id : PK\n  --\n  teacher_id : FK\n  content_text\n  context\n}\n\nentity \&quot;Progress\&quot; {\n  * progress_id : PK\n  --\n  student_id : FK\n  content_id : FK\n  test_id : FK\n  progress_status\n}\n\nentity \&quot;Tag\&quot; {\n  * tag_id : PK\n  --\n  tag_name\n}\n\nentity \&quot;Report\&quot; {\n  * report_id : PK\n  --\n  admin_id : FK\n  report_data\n}\n\nentity \&quot;Test\&quot; {\n  * test_id : PK\n  --\n  content_id : FK\n  teacher_id : FK\n  test_name\n  difficulty_level\n}\n\nentity \&quot;Student_Test\&quot; {\n  * student_id : FK\n  * test_id : FK\n  --\n  score\n}\n\nentity \&quot;Content_Tag\&quot; {\n  * content_id : FK\n  * tag_id : FK\n}\n\nentity \&quot;Teacher_Student\&quot; {\n  * teacher_id : FK\n  * student_id : FK\n}\n\n&#39; Relationships\nUser ||--o{ Student : is_a\nUser ||--o{ Teacher : is_a\nUser ||--o{ Administrator : is_a\nStudent ||--o{ Progress : has\nProgress }o--|| Content : tracks\nProgress }o--o| Test : evaluates\nContent ||--o{ Test : has\nStudent }o--o{ Test : takes\nStudent ||--o{ Student_Test\nTest ||--o{ Student_Test\nContent }o--o{ Tag : has\nContent ||--o{ Content_Tag\nTag ||--o{ Content_Tag\nAdministrator ||--o{ Report : generates\nTeacher ||--o{ Content : manages\nTeacher ||--o{ Test : creates\nTeacher }o--o{ Student : oversees\nTeacher ||--o{ Teacher_Student\nStudent ||--o{ Teacher_Student\n\n@enduml&quot;,&#xa;  &quot;format&quot;: &quot;svg&quot;&#xa;}" id="eH3C5GJAdZREXU2qmAJp-2">
          <mxCell style="shape=image;noLabel=1;verticalAlign=top;aspect=fixed;imageAspect=0;image=data:image/svg+xml,PHN2ZyB4bWxucz0iaHR0cDovL3d3dy53My5vcmcvMjAwMC9zdmciIHhtbG5zOnhsaW5rPSJodHRwOi8vd3d3LnczLm9yZy8xOTk5L3hsaW5rIiBjb250ZW50U3R5bGVUeXBlPSJ0ZXh0L2NzcyIgZGF0YS1kaWFncmFtLXR5cGU9IkNMQVNTIiBoZWlnaHQ9IjExOTBweCIgcHJlc2VydmVBc3BlY3RSYXRpbz0ibm9uZSIgc3R5bGU9IndpZHRoOjc1NXB4O2hlaWdodDoxMTkwcHg7YmFja2dyb3VuZDojRkZGRkZGOyIgdmVyc2lvbj0iMS4xIiB2aWV3Qm94PSIwIDAgNzU1IDExOTAiIHdpZHRoPSI3NTVweCIgem9vbUFuZFBhbj0ibWFnbmlmeSI+PGRlZnMvPjxnPjwhLS1jbGFzcyBVc2VyLS0+PGcgY2xhc3M9ImVudGl0eSIgZGF0YS1lbnRpdHk9IlVzZXIiIGRhdGEtc291cmNlLWxpbmU9IjIiIGRhdGEtdWlkPSJlbnQwMDAyIiBpZD0iZW50aXR5X1VzZXIiPjxyZWN0IGZpbGw9IiNGMUYxRjEiIGhlaWdodD0iMTA3LjkzNzUiIHJ4PSIyLjUiIHJ5PSIyLjUiIHN0eWxlPSJzdHJva2U6IzE4MTgxODtzdHJva2Utd2lkdGg6MC41OyIgd2lkdGg9IjE0NSIgeD0iNDQ3IiB5PSI3Ii8+PGVsbGlwc2UgY3g9IjUwMS4yNSIgY3k9IjIzIiBmaWxsPSIjQUREMUIyIiByeD0iMTEiIHJ5PSIxMSIgc3R5bGU9InN0cm9rZTojMTgxODE4O3N0cm9rZS13aWR0aDoxOyIvPjxwYXRoIGQ9Ik01MDQuODc1LDI5IEw1MDQuODc1LDI3LjI1IEw0OTkuNTYyNSwyNy4yNSBRNDk5LjU2MjUsMjcuMjUgNDk5LjU2MjUsMjMuNjg3NSBMNTAzLjgxMjUsMjMuNjg3NSBMNTAzLjgxMjUsMjEuOTM3NSBMNDk5LjU2MjUsMjEuOTM3NSBMNDk5LjU2MjUsMTkuNDM3NSBMNTA0Ljg3NSwxOS40Mzc1IEw1MDQuODc1LDE3LjY4NzUgTDQ5Ny44MTI1LDE3LjY4NzUgUTQ5Ny44MTI1LDE3LjY4NzUgNDk3LjgxMjUsMjkgTDUwNC44NzUsMjkgWiAiIGZpbGw9IiMwMDAwMDAiLz48dGV4dCBmaWxsPSIjMDAwMDAwIiBmb250LWZhbWlseT0ic2Fucy1zZXJpZiIgZm9udC1zaXplPSIxNCIgbGVuZ3RoQWRqdXN0PSJzcGFjaW5nIiB0ZXh0TGVuZ3RoPSIyOCIgeD0iNTIxLjc1IiB5PSIyOC43NDIyIj5Vc2VyPC90ZXh0PjxsaW5lIHN0eWxlPSJzdHJva2U6IzE4MTgxODtzdHJva2Utd2lkdGg6MC41OyIgeDE9IjQ0OCIgeDI9IjU5MSIgeTE9IjM5IiB5Mj0iMzkiLz48ZWxsaXBzZSBjeD0iNDU4IiBjeT0iNTEuOTkyMiIgZmlsbD0iIzAwMDAwMCIgcng9IjMiIHJ5PSIzIiBzdHlsZT0ic3Ryb2tlOiMwMDAwMDA7c3Ryb2tlLXdpZHRoOjE7Ii8+PHRleHQgZmlsbD0iIzAwMDAwMCIgZm9udC1mYW1pbHk9InNhbnMtc2VyaWYiIGZvbnQtc2l6ZT0iMTQiIGxlbmd0aEFkanVzdD0ic3BhY2luZyIgdGV4dExlbmd0aD0iODQiIHg9IjQ2NyIgeT0iNTYuMjM0NCI+dXNlcl9pZCA6IFBLPC90ZXh0PjxsaW5lIHN0eWxlPSJzdHJva2U6IzE4MTgxODtzdHJva2Utd2lkdGg6MTsiIHgxPSI0NDgiIHgyPSI1OTEiIHkxPSI2MS45ODQ0IiB5Mj0iNjEuOTg0NCIvPjx0ZXh0IGZpbGw9IiMwMDAwMDAiIGZvbnQtZmFtaWx5PSJzYW5zLXNlcmlmIiBmb250LXNpemU9IjE0IiBsZW5ndGhBZGp1c3Q9InNwYWNpbmciIHRleHRMZW5ndGg9IjU2IiB4PSI0NTMiIHk9Ijc5LjIxODgiPnVzZXJuYW1lPC90ZXh0Pjx0ZXh0IGZpbGw9IiMwMDAwMDAiIGZvbnQtZmFtaWx5PSJzYW5zLXNlcmlmIiBmb250LXNpemU9IjE0IiBsZW5ndGhBZGp1c3Q9InNwYWNpbmciIHRleHRMZW5ndGg9IjI4IiB4PSI0NTMiIHk9Ijk0LjIwMzEiPnJvbGU8L3RleHQ+PHRleHQgZmlsbD0iIzAwMDAwMCIgZm9udC1mYW1pbHk9InNhbnMtc2VyaWYiIGZvbnQtc2l6ZT0iMTQiIGxlbmd0aEFkanVzdD0ic3BhY2luZyIgdGV4dExlbmd0aD0iMTMzIiB4PSI0NTMiIHk9IjEwOS4xODc1Ij50ZWNobmljYWxfc3BlY2lhbHR5PC90ZXh0PjwvZz48IS0tY2xhc3MgU3R1ZGVudC0tPjxnIGNsYXNzPSJlbnRpdHkiIGRhdGEtZW50aXR5PSJTdHVkZW50IiBkYXRhLXNvdXJjZS1saW5lPSIxMCIgZGF0YS11aWQ9ImVudDAwMDMiIGlkPSJlbnRpdHlfU3R1ZGVudCI+PHJlY3QgZmlsbD0iI0YxRjFGMSIgaGVpZ2h0PSI5Mi45NTMxIiByeD0iMi41IiByeT0iMi41IiBzdHlsZT0ic3Ryb2tlOiMxODE4MTg7c3Ryb2tlLXdpZHRoOjAuNTsiIHdpZHRoPSIxMzEiIHg9IjQ1NCIgeT0iMzU4Ii8+PGVsbGlwc2UgY3g9IjQ5MS41IiBjeT0iMzc0IiBmaWxsPSIjQUREMUIyIiByeD0iMTEiIHJ5PSIxMSIgc3R5bGU9InN0cm9rZTojMTgxODE4O3N0cm9rZS13aWR0aDoxOyIvPjxwYXRoIGQ9Ik00OTUuMTI1LDM4MCBMNDk1LjEyNSwzNzguMjUgTDQ4OS44MTI1LDM3OC4yNSBRNDg5LjgxMjUsMzc4LjI1IDQ4OS44MTI1LDM3NC42ODc1IEw0OTQuMDYyNSwzNzQuNjg3NSBMNDk0LjA2MjUsMzcyLjkzNzUgTDQ4OS44MTI1LDM3Mi45Mzc1IEw0ODkuODEyNSwzNzAuNDM3NSBMNDk1LjEyNSwzNzAuNDM3NSBMNDk1LjEyNSwzNjguNjg3NSBMNDg4LjA2MjUsMzY4LjY4NzUgUTQ4OC4wNjI1LDM2OC42ODc1IDQ4OC4wNjI1LDM4MCBMNDk1LjEyNSwzODAgWiAiIGZpbGw9IiMwMDAwMDAiLz48dGV4dCBmaWxsPSIjMDAwMDAwIiBmb250LWZhbWlseT0ic2Fucy1zZXJpZiIgZm9udC1zaXplPSIxNCIgbGVuZ3RoQWRqdXN0PSJzcGFjaW5nIiB0ZXh0TGVuZ3RoPSI0OSIgeD0iNTEwLjUiIHk9IjM3OS43NDIyIj5TdHVkZW50PC90ZXh0PjxsaW5lIHN0eWxlPSJzdHJva2U6IzE4MTgxODtzdHJva2Utd2lkdGg6MC41OyIgeDE9IjQ1NSIgeDI9IjU4NCIgeTE9IjM5MCIgeTI9IjM5MCIvPjxlbGxpcHNlIGN4PSI0NjUiIGN5PSI0MDIuOTkyMiIgZmlsbD0iIzAwMDAwMCIgcng9IjMiIHJ5PSIzIiBzdHlsZT0ic3Ryb2tlOiMwMDAwMDA7c3Ryb2tlLXdpZHRoOjE7Ii8+PHRleHQgZmlsbD0iIzAwMDAwMCIgZm9udC1mYW1pbHk9InNhbnMtc2VyaWYiIGZvbnQtc2l6ZT0iMTQiIGxlbmd0aEFkanVzdD0ic3BhY2luZyIgdGV4dExlbmd0aD0iMTA1IiB4PSI0NzQiIHk9IjQwNy4yMzQ0Ij5zdHVkZW50X2lkIDogUEs8L3RleHQ+PGxpbmUgc3R5bGU9InN0cm9rZTojMTgxODE4O3N0cm9rZS13aWR0aDoxOyIgeDE9IjQ1NSIgeDI9IjU4NCIgeTE9IjQxMi45ODQ0IiB5Mj0iNDEyLjk4NDQiLz48dGV4dCBmaWxsPSIjMDAwMDAwIiBmb250LWZhbWlseT0ic2Fucy1zZXJpZiIgZm9udC1zaXplPSIxNCIgbGVuZ3RoQWRqdXN0PSJzcGFjaW5nIiB0ZXh0TGVuZ3RoPSI4NCIgeD0iNDYwIiB5PSI0MzAuMjE4OCI+dXNlcl9pZCA6IEZLPC90ZXh0Pjx0ZXh0IGZpbGw9IiMwMDAwMDAiIGZvbnQtZmFtaWx5PSJzYW5zLXNlcmlmIiBmb250LXNpemU9IjE0IiBsZW5ndGhBZGp1c3Q9InNwYWNpbmciIHRleHRMZW5ndGg9IjM1IiB4PSI0NjAiIHk9IjQ0NS4yMDMxIj5sZXZlbDwvdGV4dD48L2c+PCEtLWNsYXNzIFRlYWNoZXItLT48ZyBjbGFzcz0iZW50aXR5IiBkYXRhLWVudGl0eT0iVGVhY2hlciIgZGF0YS1zb3VyY2UtbGluZT0iMTciIGRhdGEtdWlkPSJlbnQwMDA0IiBpZD0iZW50aXR5X1RlYWNoZXIiPjxyZWN0IGZpbGw9IiNGMUYxRjEiIGhlaWdodD0iOTIuOTUzMSIgcng9IjIuNSIgcnk9IjIuNSIgc3R5bGU9InN0cm9rZTojMTgxODE4O3N0cm9rZS13aWR0aDowLjU7IiB3aWR0aD0iMTMxIiB4PSIzMDkiIHk9IjE5MCIvPjxlbGxpcHNlIGN4PSIzNDYuNSIgY3k9IjIwNiIgZmlsbD0iI0FERDFCMiIgcng9IjExIiByeT0iMTEiIHN0eWxlPSJzdHJva2U6IzE4MTgxODtzdHJva2Utd2lkdGg6MTsiLz48cGF0aCBkPSJNMzUwLjEyNSwyMTIgTDM1MC4xMjUsMjEwLjI1IEwzNDQuODEyNSwyMTAuMjUgUTM0NC44MTI1LDIxMC4yNSAzNDQuODEyNSwyMDYuNjg3NSBMMzQ5LjA2MjUsMjA2LjY4NzUgTDM0OS4wNjI1LDIwNC45Mzc1IEwzNDQuODEyNSwyMDQuOTM3NSBMMzQ0LjgxMjUsMjAyLjQzNzUgTDM1MC4xMjUsMjAyLjQzNzUgTDM1MC4xMjUsMjAwLjY4NzUgTDM0My4wNjI1LDIwMC42ODc1IFEzNDMuMDYyNSwyMDAuNjg3NSAzNDMuMDYyNSwyMTIgTDM1MC4xMjUsMjEyIFogIiBmaWxsPSIjMDAwMDAwIi8+PHRleHQgZmlsbD0iIzAwMDAwMCIgZm9udC1mYW1pbHk9InNhbnMtc2VyaWYiIGZvbnQtc2l6ZT0iMTQiIGxlbmd0aEFkanVzdD0ic3BhY2luZyIgdGV4dExlbmd0aD0iNDkiIHg9IjM2NS41IiB5PSIyMTEuNzQyMiI+VGVhY2hlcjwvdGV4dD48bGluZSBzdHlsZT0ic3Ryb2tlOiMxODE4MTg7c3Ryb2tlLXdpZHRoOjAuNTsiIHgxPSIzMTAiIHgyPSI0MzkiIHkxPSIyMjIiIHkyPSIyMjIiLz48ZWxsaXBzZSBjeD0iMzIwIiBjeT0iMjM0Ljk5MjIiIGZpbGw9IiMwMDAwMDAiIHJ4PSIzIiByeT0iMyIgc3R5bGU9InN0cm9rZTojMDAwMDAwO3N0cm9rZS13aWR0aDoxOyIvPjx0ZXh0IGZpbGw9IiMwMDAwMDAiIGZvbnQtZmFtaWx5PSJzYW5zLXNlcmlmIiBmb250LXNpemU9IjE0IiBsZW5ndGhBZGp1c3Q9InNwYWNpbmciIHRleHRMZW5ndGg9IjEwNSIgeD0iMzI5IiB5PSIyMzkuMjM0NCI+dGVhY2hlcl9pZCA6IFBLPC90ZXh0PjxsaW5lIHN0eWxlPSJzdHJva2U6IzE4MTgxODtzdHJva2Utd2lkdGg6MTsiIHgxPSIzMTAiIHgyPSI0MzkiIHkxPSIyNDQuOTg0NCIgeTI9IjI0NC45ODQ0Ii8+PHRleHQgZmlsbD0iIzAwMDAwMCIgZm9udC1mYW1pbHk9InNhbnMtc2VyaWYiIGZvbnQtc2l6ZT0iMTQiIGxlbmd0aEFkanVzdD0ic3BhY2luZyIgdGV4dExlbmd0aD0iODQiIHg9IjMxNSIgeT0iMjYyLjIxODgiPnVzZXJfaWQgOiBGSzwvdGV4dD48dGV4dCBmaWxsPSIjMDAwMDAwIiBmb250LWZhbWlseT0ic2Fucy1zZXJpZiIgZm9udC1zaXplPSIxNCIgbGVuZ3RoQWRqdXN0PSJzcGFjaW5nIiB0ZXh0TGVuZ3RoPSI5OCIgeD0iMzE1IiB5PSIyNzcuMjAzMSI+c3BlY2lhbGl6YXRpb248L3RleHQ+PC9nPjwhLS1jbGFzcyBBZG1pbmlzdHJhdG9yLS0+PGcgY2xhc3M9ImVudGl0eSIgZGF0YS1lbnRpdHk9IkFkbWluaXN0cmF0b3IiIGRhdGEtc291cmNlLWxpbmU9IjI0IiBkYXRhLXVpZD0iZW50MDAwNSIgaWQ9ImVudGl0eV9BZG1pbmlzdHJhdG9yIj48cmVjdCBmaWxsPSIjRjFGMUYxIiBoZWlnaHQ9Ijc3Ljk2ODgiIHJ4PSIyLjUiIHJ5PSIyLjUiIHN0eWxlPSJzdHJva2U6IzE4MTgxODtzdHJva2Utd2lkdGg6MC41OyIgd2lkdGg9IjEyMyIgeD0iNjAyIiB5PSIxOTcuNSIvPjxlbGxpcHNlIGN4PSI2MTciIGN5PSIyMTMuNSIgZmlsbD0iI0FERDFCMiIgcng9IjExIiByeT0iMTEiIHN0eWxlPSJzdHJva2U6IzE4MTgxODtzdHJva2Utd2lkdGg6MTsiLz48cGF0aCBkPSJNNjIwLjYyNSwyMTkuNSBMNjIwLjYyNSwyMTcuNzUgTDYxNS4zMTI1LDIxNy43NSBRNjE1LjMxMjUsMjE3Ljc1IDYxNS4zMTI1LDIxNC4xODc1IEw2MTkuNTYyNSwyMTQuMTg3NSBMNjE5LjU2MjUsMjEyLjQzNzUgTDYxNS4zMTI1LDIxMi40Mzc1IEw2MTUuMzEyNSwyMDkuOTM3NSBMNjIwLjYyNSwyMDkuOTM3NSBMNjIwLjYyNSwyMDguMTg3NSBMNjEzLjU2MjUsMjA4LjE4NzUgUTYxMy41NjI1LDIwOC4xODc1IDYxMy41NjI1LDIxOS41IEw2MjAuNjI1LDIxOS41IFogIiBmaWxsPSIjMDAwMDAwIi8+PHRleHQgZmlsbD0iIzAwMDAwMCIgZm9udC1mYW1pbHk9InNhbnMtc2VyaWYiIGZvbnQtc2l6ZT0iMTQiIGxlbmd0aEFkanVzdD0ic3BhY2luZyIgdGV4dExlbmd0aD0iOTEiIHg9IjYzMSIgeT0iMjE5LjI0MjIiPkFkbWluaXN0cmF0b3I8L3RleHQ+PGxpbmUgc3R5bGU9InN0cm9rZTojMTgxODE4O3N0cm9rZS13aWR0aDowLjU7IiB4MT0iNjAzIiB4Mj0iNzI0IiB5MT0iMjI5LjUiIHkyPSIyMjkuNSIvPjxlbGxpcHNlIGN4PSI2MTMiIGN5PSIyNDIuNDkyMiIgZmlsbD0iIzAwMDAwMCIgcng9IjMiIHJ5PSIzIiBzdHlsZT0ic3Ryb2tlOiMwMDAwMDA7c3Ryb2tlLXdpZHRoOjE7Ii8+PHRleHQgZmlsbD0iIzAwMDAwMCIgZm9udC1mYW1pbHk9InNhbnMtc2VyaWYiIGZvbnQtc2l6ZT0iMTQiIGxlbmd0aEFkanVzdD0ic3BhY2luZyIgdGV4dExlbmd0aD0iOTEiIHg9IjYyMiIgeT0iMjQ2LjczNDQiPmFkbWluX2lkIDogUEs8L3RleHQ+PGxpbmUgc3R5bGU9InN0cm9rZTojMTgxODE4O3N0cm9rZS13aWR0aDoxOyIgeDE9IjYwMyIgeDI9IjcyNCIgeTE9IjI1Mi40ODQ0IiB5Mj0iMjUyLjQ4NDQiLz48dGV4dCBmaWxsPSIjMDAwMDAwIiBmb250LWZhbWlseT0ic2Fucy1zZXJpZiIgZm9udC1zaXplPSIxNCIgbGVuZ3RoQWRqdXN0PSJzcGFjaW5nIiB0ZXh0TGVuZ3RoPSI4NCIgeD0iNjA4IiB5PSIyNjkuNzE4OCI+dXNlcl9pZCA6IEZLPC90ZXh0PjwvZz48IS0tY2xhc3MgQ29udGVudC0tPjxnIGNsYXNzPSJlbnRpdHkiIGRhdGEtZW50aXR5PSJDb250ZW50IiBkYXRhLXNvdXJjZS1saW5lPSIzMCIgZGF0YS11aWQ9ImVudDAwMDYiIGlkPSJlbnRpdHlfQ29udGVudCI+PHJlY3QgZmlsbD0iI0YxRjFGMSIgaGVpZ2h0PSIxMDcuOTM3NSIgcng9IjIuNSIgcnk9IjIuNSIgc3R5bGU9InN0cm9rZTojMTgxODE4O3N0cm9rZS13aWR0aDowLjU7IiB3aWR0aD0iMTMxIiB4PSI0NyIgeT0iNzI0Ii8+PGVsbGlwc2UgY3g9Ijg0LjUiIGN5PSI3NDAiIGZpbGw9IiNBREQxQjIiIHJ4PSIxMSIgcnk9IjExIiBzdHlsZT0ic3Ryb2tlOiMxODE4MTg7c3Ryb2tlLXdpZHRoOjE7Ii8+PHBhdGggZD0iTTg4LjEyNSw3NDYgTDg4LjEyNSw3NDQuMjUgTDgyLjgxMjUsNzQ0LjI1IFE4Mi44MTI1LDc0NC4yNSA4Mi44MTI1LDc0MC42ODc1IEw4Ny4wNjI1LDc0MC42ODc1IEw4Ny4wNjI1LDczOC45Mzc1IEw4Mi44MTI1LDczOC45Mzc1IEw4Mi44MTI1LDczNi40Mzc1IEw4OC4xMjUsNzM2LjQzNzUgTDg4LjEyNSw3MzQuNjg3NSBMODEuMDYyNSw3MzQuNjg3NSBRODEuMDYyNSw3MzQuNjg3NSA4MS4wNjI1LDc0NiBMODguMTI1LDc0NiBaICIgZmlsbD0iIzAwMDAwMCIvPjx0ZXh0IGZpbGw9IiMwMDAwMDAiIGZvbnQtZmFtaWx5PSJzYW5zLXNlcmlmIiBmb250LXNpemU9IjE0IiBsZW5ndGhBZGp1c3Q9InNwYWNpbmciIHRleHRMZW5ndGg9IjQ5IiB4PSIxMDMuNSIgeT0iNzQ1Ljc0MjIiPkNvbnRlbnQ8L3RleHQ+PGxpbmUgc3R5bGU9InN0cm9rZTojMTgxODE4O3N0cm9rZS13aWR0aDowLjU7IiB4MT0iNDgiIHgyPSIxNzciIHkxPSI3NTYiIHkyPSI3NTYiLz48ZWxsaXBzZSBjeD0iNTgiIGN5PSI3NjguOTkyMiIgZmlsbD0iIzAwMDAwMCIgcng9IjMiIHJ5PSIzIiBzdHlsZT0ic3Ryb2tlOiMwMDAwMDA7c3Ryb2tlLXdpZHRoOjE7Ii8+PHRleHQgZmlsbD0iIzAwMDAwMCIgZm9udC1mYW1pbHk9InNhbnMtc2VyaWYiIGZvbnQtc2l6ZT0iMTQiIGxlbmd0aEFkanVzdD0ic3BhY2luZyIgdGV4dExlbmd0aD0iMTA1IiB4PSI2NyIgeT0iNzczLjIzNDQiPmNvbnRlbnRfaWQgOiBQSzwvdGV4dD48bGluZSBzdHlsZT0ic3Ryb2tlOiMxODE4MTg7c3Ryb2tlLXdpZHRoOjE7IiB4MT0iNDgiIHgyPSIxNzciIHkxPSI3NzguOTg0NCIgeTI9Ijc3OC45ODQ0Ii8+PHRleHQgZmlsbD0iIzAwMDAwMCIgZm9udC1mYW1pbHk9InNhbnMtc2VyaWYiIGZvbnQtc2l6ZT0iMTQiIGxlbmd0aEFkanVzdD0ic3BhY2luZyIgdGV4dExlbmd0aD0iMTA1IiB4PSI1MyIgeT0iNzk2LjIxODgiPnRlYWNoZXJfaWQgOiBGSzwvdGV4dD48dGV4dCBmaWxsPSIjMDAwMDAwIiBmb250LWZhbWlseT0ic2Fucy1zZXJpZiIgZm9udC1zaXplPSIxNCIgbGVuZ3RoQWRqdXN0PSJzcGFjaW5nIiB0ZXh0TGVuZ3RoPSI4NCIgeD0iNTMiIHk9IjgxMS4yMDMxIj5jb250ZW50X3RleHQ8L3RleHQ+PHRleHQgZmlsbD0iIzAwMDAwMCIgZm9udC1mYW1pbHk9InNhbnMtc2VyaWYiIGZvbnQtc2l6ZT0iMTQiIGxlbmd0aEFkanVzdD0ic3BhY2luZyIgdGV4dExlbmd0aD0iNDkiIHg9IjUzIiB5PSI4MjYuMTg3NSI+Y29udGV4dDwvdGV4dD48L2c+PCEtLWNsYXNzIFByb2dyZXNzLS0+PGcgY2xhc3M9ImVudGl0eSIgZGF0YS1lbnRpdHk9IlByb2dyZXNzIiBkYXRhLXNvdXJjZS1saW5lPSIzOCIgZGF0YS11aWQ9ImVudDAwMDciIGlkPSJlbnRpdHlfUHJvZ3Jlc3MiPjxyZWN0IGZpbGw9IiNGMUYxRjEiIGhlaWdodD0iMTIyLjkyMTkiIHJ4PSIyLjUiIHJ5PSIyLjUiIHN0eWxlPSJzdHJva2U6IzE4MTgxODtzdHJva2Utd2lkdGg6MC41OyIgd2lkdGg9IjEzOCIgeD0iNDc4LjUiIHk9IjUyNiIvPjxlbGxpcHNlIGN4PSI1MTYiIGN5PSI1NDIiIGZpbGw9IiNBREQxQjIiIHJ4PSIxMSIgcnk9IjExIiBzdHlsZT0ic3Ryb2tlOiMxODE4MTg7c3Ryb2tlLXdpZHRoOjE7Ii8+PHBhdGggZD0iTTUxOS42MjUsNTQ4IEw1MTkuNjI1LDU0Ni4yNSBMNTE0LjMxMjUsNTQ2LjI1IFE1MTQuMzEyNSw1NDYuMjUgNTE0LjMxMjUsNTQyLjY4NzUgTDUxOC41NjI1LDU0Mi42ODc1IEw1MTguNTYyNSw1NDAuOTM3NSBMNTE0LjMxMjUsNTQwLjkzNzUgTDUxNC4zMTI1LDUzOC40Mzc1IEw1MTkuNjI1LDUzOC40Mzc1IEw1MTkuNjI1LDUzNi42ODc1IEw1MTIuNTYyNSw1MzYuNjg3NSBRNTEyLjU2MjUsNTM2LjY4NzUgNTEyLjU2MjUsNTQ4IEw1MTkuNjI1LDU0OCBaICIgZmlsbD0iIzAwMDAwMCIvPjx0ZXh0IGZpbGw9IiMwMDAwMDAiIGZvbnQtZmFtaWx5PSJzYW5zLXNlcmlmIiBmb250LXNpemU9IjE0IiBsZW5ndGhBZGp1c3Q9InNwYWNpbmciIHRleHRMZW5ndGg9IjU2IiB4PSI1MzUiIHk9IjU0Ny43NDIyIj5Qcm9ncmVzczwvdGV4dD48bGluZSBzdHlsZT0ic3Ryb2tlOiMxODE4MTg7c3Ryb2tlLXdpZHRoOjAuNTsiIHgxPSI0NzkuNSIgeDI9IjYxNS41IiB5MT0iNTU4IiB5Mj0iNTU4Ii8+PGVsbGlwc2UgY3g9IjQ4OS41IiBjeT0iNTcwLjk5MjIiIGZpbGw9IiMwMDAwMDAiIHJ4PSIzIiByeT0iMyIgc3R5bGU9InN0cm9rZTojMDAwMDAwO3N0cm9rZS13aWR0aDoxOyIvPjx0ZXh0IGZpbGw9IiMwMDAwMDAiIGZvbnQtZmFtaWx5PSJzYW5zLXNlcmlmIiBmb250LXNpemU9IjE0IiBsZW5ndGhBZGp1c3Q9InNwYWNpbmciIHRleHRMZW5ndGg9IjExMiIgeD0iNDk4LjUiIHk9IjU3NS4yMzQ0Ij5wcm9ncmVzc19pZCA6IFBLPC90ZXh0PjxsaW5lIHN0eWxlPSJzdHJva2U6IzE4MTgxODtzdHJva2Utd2lkdGg6MTsiIHgxPSI0NzkuNSIgeDI9IjYxNS41IiB5MT0iNTgwLjk4NDQiIHkyPSI1ODAuOTg0NCIvPjx0ZXh0IGZpbGw9IiMwMDAwMDAiIGZvbnQtZmFtaWx5PSJzYW5zLXNlcmlmIiBmb250LXNpemU9IjE0IiBsZW5ndGhBZGp1c3Q9InNwYWNpbmciIHRleHRMZW5ndGg9IjEwNSIgeD0iNDg0LjUiIHk9IjU5OC4yMTg4Ij5zdHVkZW50X2lkIDogRks8L3RleHQ+PHRleHQgZmlsbD0iIzAwMDAwMCIgZm9udC1mYW1pbHk9InNhbnMtc2VyaWYiIGZvbnQtc2l6ZT0iMTQiIGxlbmd0aEFkanVzdD0ic3BhY2luZyIgdGV4dExlbmd0aD0iMTA1IiB4PSI0ODQuNSIgeT0iNjEzLjIwMzEiPmNvbnRlbnRfaWQgOiBGSzwvdGV4dD48dGV4dCBmaWxsPSIjMDAwMDAwIiBmb250LWZhbWlseT0ic2Fucy1zZXJpZiIgZm9udC1zaXplPSIxNCIgbGVuZ3RoQWRqdXN0PSJzcGFjaW5nIiB0ZXh0TGVuZ3RoPSI4NCIgeD0iNDg0LjUiIHk9IjYyOC4xODc1Ij50ZXN0X2lkIDogRks8L3RleHQ+PHRleHQgZmlsbD0iIzAwMDAwMCIgZm9udC1mYW1pbHk9InNhbnMtc2VyaWYiIGZvbnQtc2l6ZT0iMTQiIGxlbmd0aEFkanVzdD0ic3BhY2luZyIgdGV4dExlbmd0aD0iMTA1IiB4PSI0ODQuNSIgeT0iNjQzLjE3MTkiPnByb2dyZXNzX3N0YXR1czwvdGV4dD48L2c+PCEtLWNsYXNzIFRhZy0tPjxnIGNsYXNzPSJlbnRpdHkiIGRhdGEtZW50aXR5PSJUYWciIGRhdGEtc291cmNlLWxpbmU9IjQ3IiBkYXRhLXVpZD0iZW50MDAwOCIgaWQ9ImVudGl0eV9UYWciPjxyZWN0IGZpbGw9IiNGMUYxRjEiIGhlaWdodD0iNzcuOTY4OCIgcng9IjIuNSIgcnk9IjIuNSIgc3R5bGU9InN0cm9rZTojMTgxODE4O3N0cm9rZS13aWR0aDowLjU7IiB3aWR0aD0iMTAzIiB4PSI4OSIgeT0iOTI5LjUiLz48ZWxsaXBzZSBjeD0iMTI2LjUiIGN5PSI5NDUuNSIgZmlsbD0iI0FERDFCMiIgcng9IjExIiByeT0iMTEiIHN0eWxlPSJzdHJva2U6IzE4MTgxODtzdHJva2Utd2lkdGg6MTsiLz48cGF0aCBkPSJNMTMwLjEyNSw5NTEuNSBMMTMwLjEyNSw5NDkuNzUgTDEyNC44MTI1LDk0OS43NSBRMTI0LjgxMjUsOTQ5Ljc1IDEyNC44MTI1LDk0Ni4xODc1IEwxMjkuMDYyNSw5NDYuMTg3NSBMMTI5LjA2MjUsOTQ0LjQzNzUgTDEyNC44MTI1LDk0NC40Mzc1IEwxMjQuODEyNSw5NDEuOTM3NSBMMTMwLjEyNSw5NDEuOTM3NSBMMTMwLjEyNSw5NDAuMTg3NSBMMTIzLjA2MjUsOTQwLjE4NzUgUTEyMy4wNjI1LDk0MC4xODc1IDEyMy4wNjI1LDk1MS41IEwxMzAuMTI1LDk1MS41IFogIiBmaWxsPSIjMDAwMDAwIi8+PHRleHQgZmlsbD0iIzAwMDAwMCIgZm9udC1mYW1pbHk9InNhbnMtc2VyaWYiIGZvbnQtc2l6ZT0iMTQiIGxlbmd0aEFkanVzdD0ic3BhY2luZyIgdGV4dExlbmd0aD0iMjEiIHg9IjE0NS41IiB5PSI5NTEuMjQyMiI+VGFnPC90ZXh0PjxsaW5lIHN0eWxlPSJzdHJva2U6IzE4MTgxODtzdHJva2Utd2lkdGg6MC41OyIgeDE9IjkwIiB4Mj0iMTkxIiB5MT0iOTYxLjUiIHkyPSI5NjEuNSIvPjxlbGxpcHNlIGN4PSIxMDAiIGN5PSI5NzQuNDkyMiIgZmlsbD0iIzAwMDAwMCIgcng9IjMiIHJ5PSIzIiBzdHlsZT0ic3Ryb2tlOiMwMDAwMDA7c3Ryb2tlLXdpZHRoOjE7Ii8+PHRleHQgZmlsbD0iIzAwMDAwMCIgZm9udC1mYW1pbHk9InNhbnMtc2VyaWYiIGZvbnQtc2l6ZT0iMTQiIGxlbmd0aEFkanVzdD0ic3BhY2luZyIgdGV4dExlbmd0aD0iNzciIHg9IjEwOSIgeT0iOTc4LjczNDQiPnRhZ19pZCA6IFBLPC90ZXh0PjxsaW5lIHN0eWxlPSJzdHJva2U6IzE4MTgxODtzdHJva2Utd2lkdGg6MTsiIHgxPSI5MCIgeDI9IjE5MSIgeTE9Ijk4NC40ODQ0IiB5Mj0iOTg0LjQ4NDQiLz48dGV4dCBmaWxsPSIjMDAwMDAwIiBmb250LWZhbWlseT0ic2Fucy1zZXJpZiIgZm9udC1zaXplPSIxNCIgbGVuZ3RoQWRqdXN0PSJzcGFjaW5nIiB0ZXh0TGVuZ3RoPSI1NiIgeD0iOTUiIHk9IjEwMDEuNzE4OCI+dGFnX25hbWU8L3RleHQ+PC9nPjwhLS1jbGFzcyBSZXBvcnQtLT48ZyBjbGFzcz0iZW50aXR5IiBkYXRhLWVudGl0eT0iUmVwb3J0IiBkYXRhLXNvdXJjZS1saW5lPSI1MyIgZGF0YS11aWQ9ImVudDAwMDkiIGlkPSJlbnRpdHlfUmVwb3J0Ij48cmVjdCBmaWxsPSIjRjFGMUYxIiBoZWlnaHQ9IjkyLjk1MzEiIHJ4PSIyLjUiIHJ5PSIyLjUiIHN0eWxlPSJzdHJva2U6IzE4MTgxODtzdHJva2Utd2lkdGg6MC41OyIgd2lkdGg9IjEyNCIgeD0iNjIwLjUiIHk9IjM1OCIvPjxlbGxpcHNlIGN4PSI2NTgiIGN5PSIzNzQiIGZpbGw9IiNBREQxQjIiIHJ4PSIxMSIgcnk9IjExIiBzdHlsZT0ic3Ryb2tlOiMxODE4MTg7c3Ryb2tlLXdpZHRoOjE7Ii8+PHBhdGggZD0iTTY2MS42MjUsMzgwIEw2NjEuNjI1LDM3OC4yNSBMNjU2LjMxMjUsMzc4LjI1IFE2NTYuMzEyNSwzNzguMjUgNjU2LjMxMjUsMzc0LjY4NzUgTDY2MC41NjI1LDM3NC42ODc1IEw2NjAuNTYyNSwzNzIuOTM3NSBMNjU2LjMxMjUsMzcyLjkzNzUgTDY1Ni4zMTI1LDM3MC40Mzc1IEw2NjEuNjI1LDM3MC40Mzc1IEw2NjEuNjI1LDM2OC42ODc1IEw2NTQuNTYyNSwzNjguNjg3NSBRNjU0LjU2MjUsMzY4LjY4NzUgNjU0LjU2MjUsMzgwIEw2NjEuNjI1LDM4MCBaICIgZmlsbD0iIzAwMDAwMCIvPjx0ZXh0IGZpbGw9IiMwMDAwMDAiIGZvbnQtZmFtaWx5PSJzYW5zLXNlcmlmIiBmb250LXNpemU9IjE0IiBsZW5ndGhBZGp1c3Q9InNwYWNpbmciIHRleHRMZW5ndGg9IjQyIiB4PSI2NzciIHk9IjM3OS43NDIyIj5SZXBvcnQ8L3RleHQ+PGxpbmUgc3R5bGU9InN0cm9rZTojMTgxODE4O3N0cm9rZS13aWR0aDowLjU7IiB4MT0iNjIxLjUiIHgyPSI3NDMuNSIgeTE9IjM5MCIgeTI9IjM5MCIvPjxlbGxpcHNlIGN4PSI2MzEuNSIgY3k9IjQwMi45OTIyIiBmaWxsPSIjMDAwMDAwIiByeD0iMyIgcnk9IjMiIHN0eWxlPSJzdHJva2U6IzAwMDAwMDtzdHJva2Utd2lkdGg6MTsiLz48dGV4dCBmaWxsPSIjMDAwMDAwIiBmb250LWZhbWlseT0ic2Fucy1zZXJpZiIgZm9udC1zaXplPSIxNCIgbGVuZ3RoQWRqdXN0PSJzcGFjaW5nIiB0ZXh0TGVuZ3RoPSI5OCIgeD0iNjQwLjUiIHk9IjQwNy4yMzQ0Ij5yZXBvcnRfaWQgOiBQSzwvdGV4dD48bGluZSBzdHlsZT0ic3Ryb2tlOiMxODE4MTg7c3Ryb2tlLXdpZHRoOjE7IiB4MT0iNjIxLjUiIHgyPSI3NDMuNSIgeTE9IjQxMi45ODQ0IiB5Mj0iNDEyLjk4NDQiLz48dGV4dCBmaWxsPSIjMDAwMDAwIiBmb250LWZhbWlseT0ic2Fucy1zZXJpZiIgZm9udC1zaXplPSIxNCIgbGVuZ3RoQWRqdXN0PSJzcGFjaW5nIiB0ZXh0TGVuZ3RoPSI5MSIgeD0iNjI2LjUiIHk9IjQzMC4yMTg4Ij5hZG1pbl9pZCA6IEZLPC90ZXh0Pjx0ZXh0IGZpbGw9IiMwMDAwMDAiIGZvbnQtZmFtaWx5PSJzYW5zLXNlcmlmIiBmb250LXNpemU9IjE0IiBsZW5ndGhBZGp1c3Q9InNwYWNpbmciIHRleHRMZW5ndGg9Ijc3IiB4PSI2MjYuNSIgeT0iNDQ1LjIwMzEiPnJlcG9ydF9kYXRhPC90ZXh0PjwvZz48IS0tY2xhc3MgVGVzdC0tPjxnIGNsYXNzPSJlbnRpdHkiIGRhdGEtZW50aXR5PSJUZXN0IiBkYXRhLXNvdXJjZS1saW5lPSI2MCIgZGF0YS11aWQ9ImVudDAwMTAiIGlkPSJlbnRpdHlfVGVzdCI+PHJlY3QgZmlsbD0iI0YxRjFGMSIgaGVpZ2h0PSIxMjIuOTIxOSIgcng9IjIuNSIgcnk9IjIuNSIgc3R5bGU9InN0cm9rZTojMTgxODE4O3N0cm9rZS13aWR0aDowLjU7IiB3aWR0aD0iMTI0IiB4PSI0ODUuNSIgeT0iOTA3Ii8+PGVsbGlwc2UgY3g9IjUyOS4zIiBjeT0iOTIzIiBmaWxsPSIjQUREMUIyIiByeD0iMTEiIHJ5PSIxMSIgc3R5bGU9InN0cm9rZTojMTgxODE4O3N0cm9rZS13aWR0aDoxOyIvPjxwYXRoIGQ9Ik01MzIuOTI1LDkyOSBMNTMyLjkyNSw5MjcuMjUgTDUyNy42MTI1LDkyNy4yNSBRNTI3LjYxMjUsOTI3LjI1IDUyNy42MTI1LDkyMy42ODc1IEw1MzEuODYyNSw5MjMuNjg3NSBMNTMxLjg2MjUsOTIxLjkzNzUgTDUyNy42MTI1LDkyMS45Mzc1IEw1MjcuNjEyNSw5MTkuNDM3NSBMNTMyLjkyNSw5MTkuNDM3NSBMNTMyLjkyNSw5MTcuNjg3NSBMNTI1Ljg2MjUsOTE3LjY4NzUgUTUyNS44NjI1LDkxNy42ODc1IDUyNS44NjI1LDkyOSBMNTMyLjkyNSw5MjkgWiAiIGZpbGw9IiMwMDAwMDAiLz48dGV4dCBmaWxsPSIjMDAwMDAwIiBmb250LWZhbWlseT0ic2Fucy1zZXJpZiIgZm9udC1zaXplPSIxNCIgbGVuZ3RoQWRqdXN0PSJzcGFjaW5nIiB0ZXh0TGVuZ3RoPSIyOCIgeD0iNTQ5LjciIHk9IjkyOC43NDIyIj5UZXN0PC90ZXh0PjxsaW5lIHN0eWxlPSJzdHJva2U6IzE4MTgxODtzdHJva2Utd2lkdGg6MC41OyIgeDE9IjQ4Ni41IiB4Mj0iNjA4LjUiIHkxPSI5MzkiIHkyPSI5MzkiLz48ZWxsaXBzZSBjeD0iNDk2LjUiIGN5PSI5NTEuOTkyMiIgZmlsbD0iIzAwMDAwMCIgcng9IjMiIHJ5PSIzIiBzdHlsZT0ic3Ryb2tlOiMwMDAwMDA7c3Ryb2tlLXdpZHRoOjE7Ii8+PHRleHQgZmlsbD0iIzAwMDAwMCIgZm9udC1mYW1pbHk9InNhbnMtc2VyaWYiIGZvbnQtc2l6ZT0iMTQiIGxlbmd0aEFkanVzdD0ic3BhY2luZyIgdGV4dExlbmd0aD0iODQiIHg9IjUwNS41IiB5PSI5NTYuMjM0NCI+dGVzdF9pZCA6IFBLPC90ZXh0PjxsaW5lIHN0eWxlPSJzdHJva2U6IzE4MTgxODtzdHJva2Utd2lkdGg6MTsiIHgxPSI0ODYuNSIgeDI9IjYwOC41IiB5MT0iOTYxLjk4NDQiIHkyPSI5NjEuOTg0NCIvPjx0ZXh0IGZpbGw9IiMwMDAwMDAiIGZvbnQtZmFtaWx5PSJzYW5zLXNlcmlmIiBmb250LXNpemU9IjE0IiBsZW5ndGhBZGp1c3Q9InNwYWNpbmciIHRleHRMZW5ndGg9IjEwNSIgeD0iNDkxLjUiIHk9Ijk3OS4yMTg4Ij5jb250ZW50X2lkIDogRks8L3RleHQ+PHRleHQgZmlsbD0iIzAwMDAwMCIgZm9udC1mYW1pbHk9InNhbnMtc2VyaWYiIGZvbnQtc2l6ZT0iMTQiIGxlbmd0aEFkanVzdD0ic3BhY2luZyIgdGV4dExlbmd0aD0iMTA1IiB4PSI0OTEuNSIgeT0iOTk0LjIwMzEiPnRlYWNoZXJfaWQgOiBGSzwvdGV4dD48dGV4dCBmaWxsPSIjMDAwMDAwIiBmb250LWZhbWlseT0ic2Fucy1zZXJpZiIgZm9udC1zaXplPSIxNCIgbGVuZ3RoQWRqdXN0PSJzcGFjaW5nIiB0ZXh0TGVuZ3RoPSI2MyIgeD0iNDkxLjUiIHk9IjEwMDkuMTg3NSI+dGVzdF9uYW1lPC90ZXh0Pjx0ZXh0IGZpbGw9IiMwMDAwMDAiIGZvbnQtZmFtaWx5PSJzYW5zLXNlcmlmIiBmb250LXNpemU9IjE0IiBsZW5ndGhBZGp1c3Q9InNwYWNpbmciIHRleHRMZW5ndGg9IjExMiIgeD0iNDkxLjUiIHk9IjEwMjQuMTcxOSI+ZGlmZmljdWx0eV9sZXZlbDwvdGV4dD48L2c+PCEtLWNsYXNzIFN0dWRlbnRfVGVzdC0tPjxnIGNsYXNzPSJlbnRpdHkiIGRhdGEtZW50aXR5PSJTdHVkZW50X1Rlc3QiIGRhdGEtc291cmNlLWxpbmU9IjY5IiBkYXRhLXVpZD0iZW50MDAxMSIgaWQ9ImVudGl0eV9TdHVkZW50X1Rlc3QiPjxyZWN0IGZpbGw9IiNGMUYxRjEiIGhlaWdodD0iOTIuOTUzMSIgcng9IjIuNSIgcnk9IjIuNSIgc3R5bGU9InN0cm9rZTojMTgxODE4O3N0cm9rZS13aWR0aDowLjU7IiB3aWR0aD0iMTMxIiB4PSI2MTciIHk9IjEwOTEiLz48ZWxsaXBzZSBjeD0iNjM4Ljc1IiBjeT0iMTEwNyIgZmlsbD0iI0FERDFCMiIgcng9IjExIiByeT0iMTEiIHN0eWxlPSJzdHJva2U6IzE4MTgxODtzdHJva2Utd2lkdGg6MTsiLz48cGF0aCBkPSJNNjQyLjM3NSwxMTEzIEw2NDIuMzc1LDExMTEuMjUgTDYzNy4wNjI1LDExMTEuMjUgUTYzNy4wNjI1LDExMTEuMjUgNjM3LjA2MjUsMTEwNy42ODc1IEw2NDEuMzEyNSwxMTA3LjY4NzUgTDY0MS4zMTI1LDExMDUuOTM3NSBMNjM3LjA2MjUsMTEwNS45Mzc1IEw2MzcuMDYyNSwxMTAzLjQzNzUgTDY0Mi4zNzUsMTEwMy40Mzc1IEw2NDIuMzc1LDExMDEuNjg3NSBMNjM1LjMxMjUsMTEwMS42ODc1IFE2MzUuMzEyNSwxMTAxLjY4NzUgNjM1LjMxMjUsMTExMyBMNjQyLjM3NSwxMTEzIFogIiBmaWxsPSIjMDAwMDAwIi8+PHRleHQgZmlsbD0iIzAwMDAwMCIgZm9udC1mYW1pbHk9InNhbnMtc2VyaWYiIGZvbnQtc2l6ZT0iMTQiIGxlbmd0aEFkanVzdD0ic3BhY2luZyIgdGV4dExlbmd0aD0iODQiIHg9IjY1NC4yNSIgeT0iMTExMi43NDIyIj5TdHVkZW50X1Rlc3Q8L3RleHQ+PGxpbmUgc3R5bGU9InN0cm9rZTojMTgxODE4O3N0cm9rZS13aWR0aDowLjU7IiB4MT0iNjE4IiB4Mj0iNzQ3IiB5MT0iMTEyMyIgeTI9IjExMjMiLz48ZWxsaXBzZSBjeD0iNjI4IiBjeT0iMTEzNS45OTIyIiBmaWxsPSIjMDAwMDAwIiByeD0iMyIgcnk9IjMiIHN0eWxlPSJzdHJva2U6IzAwMDAwMDtzdHJva2Utd2lkdGg6MTsiLz48dGV4dCBmaWxsPSIjMDAwMDAwIiBmb250LWZhbWlseT0ic2Fucy1zZXJpZiIgZm9udC1zaXplPSIxNCIgbGVuZ3RoQWRqdXN0PSJzcGFjaW5nIiB0ZXh0TGVuZ3RoPSIxMDUiIHg9IjYzNyIgeT0iMTE0MC4yMzQ0Ij5zdHVkZW50X2lkIDogRks8L3RleHQ+PGVsbGlwc2UgY3g9IjYyOCIgY3k9IjExNTAuOTc2NiIgZmlsbD0iIzAwMDAwMCIgcng9IjMiIHJ5PSIzIiBzdHlsZT0ic3Ryb2tlOiMwMDAwMDA7c3Ryb2tlLXdpZHRoOjE7Ii8+PHRleHQgZmlsbD0iIzAwMDAwMCIgZm9udC1mYW1pbHk9InNhbnMtc2VyaWYiIGZvbnQtc2l6ZT0iMTQiIGxlbmd0aEFkanVzdD0ic3BhY2luZyIgdGV4dExlbmd0aD0iODQiIHg9IjYzNyIgeT0iMTE1NS4yMTg4Ij50ZXN0X2lkIDogRks8L3RleHQ+PGxpbmUgc3R5bGU9InN0cm9rZTojMTgxODE4O3N0cm9rZS13aWR0aDoxOyIgeDE9IjYxOCIgeDI9Ijc0NyIgeTE9IjExNjAuOTY4OCIgeTI9IjExNjAuOTY4OCIvPjx0ZXh0IGZpbGw9IiMwMDAwMDAiIGZvbnQtZmFtaWx5PSJzYW5zLXNlcmlmIiBmb250LXNpemU9IjE0IiBsZW5ndGhBZGp1c3Q9InNwYWNpbmciIHRleHRMZW5ndGg9IjM1IiB4PSI2MjMiIHk9IjExNzguMjAzMSI+c2NvcmU8L3RleHQ+PC9nPjwhLS1jbGFzcyBDb250ZW50X1RhZy0tPjxnIGNsYXNzPSJlbnRpdHkiIGRhdGEtZW50aXR5PSJDb250ZW50X1RhZyIgZGF0YS1zb3VyY2UtbGluZT0iNzYiIGRhdGEtdWlkPSJlbnQwMDEyIiBpZD0iZW50aXR5X0NvbnRlbnRfVGFnIj48cmVjdCBmaWxsPSIjRjFGMUYxIiBoZWlnaHQ9Ijc3Ljk2ODgiIHJ4PSIyLjUiIHJ5PSIyLjUiIHN0eWxlPSJzdHJva2U6IzE4MTgxODtzdHJva2Utd2lkdGg6MC41OyIgd2lkdGg9IjEzMSIgeD0iNyIgeT0iMTA5OC41Ii8+PGVsbGlwc2UgY3g9IjMxLjkiIGN5PSIxMTE0LjUiIGZpbGw9IiNBREQxQjIiIHJ4PSIxMSIgcnk9IjExIiBzdHlsZT0ic3Ryb2tlOiMxODE4MTg7c3Ryb2tlLXdpZHRoOjE7Ii8+PHBhdGggZD0iTTM1LjUyNSwxMTIwLjUgTDM1LjUyNSwxMTE4Ljc1IEwzMC4yMTI1LDExMTguNzUgUTMwLjIxMjUsMTExOC43NSAzMC4yMTI1LDExMTUuMTg3NSBMMzQuNDYyNSwxMTE1LjE4NzUgTDM0LjQ2MjUsMTExMy40Mzc1IEwzMC4yMTI1LDExMTMuNDM3NSBMMzAuMjEyNSwxMTEwLjkzNzUgTDM1LjUyNSwxMTEwLjkzNzUgTDM1LjUyNSwxMTA5LjE4NzUgTDI4LjQ2MjUsMTEwOS4xODc1IFEyOC40NjI1LDExMDkuMTg3NSAyOC40NjI1LDExMjAuNSBMMzUuNTI1LDExMjAuNSBaICIgZmlsbD0iIzAwMDAwMCIvPjx0ZXh0IGZpbGw9IiMwMDAwMDAiIGZvbnQtZmFtaWx5PSJzYW5zLXNlcmlmIiBmb250LXNpemU9IjE0IiBsZW5ndGhBZGp1c3Q9InNwYWNpbmciIHRleHRMZW5ndGg9Ijc3IiB4PSI0OC4xIiB5PSIxMTIwLjI0MjIiPkNvbnRlbnRfVGFnPC90ZXh0PjxsaW5lIHN0eWxlPSJzdHJva2U6IzE4MTgxODtzdHJva2Utd2lkdGg6MC41OyIgeDE9IjgiIHgyPSIxMzciIHkxPSIxMTMwLjUiIHkyPSIxMTMwLjUiLz48ZWxsaXBzZSBjeD0iMTgiIGN5PSIxMTQzLjQ5MjIiIGZpbGw9IiMwMDAwMDAiIHJ4PSIzIiByeT0iMyIgc3R5bGU9InN0cm9rZTojMDAwMDAwO3N0cm9rZS13aWR0aDoxOyIvPjx0ZXh0IGZpbGw9IiMwMDAwMDAiIGZvbnQtZmFtaWx5PSJzYW5zLXNlcmlmIiBmb250LXNpemU9IjE0IiBsZW5ndGhBZGp1c3Q9InNwYWNpbmciIHRleHRMZW5ndGg9IjEwNSIgeD0iMjciIHk9IjExNDcuNzM0NCI+Y29udGVudF9pZCA6IEZLPC90ZXh0PjxlbGxpcHNlIGN4PSIxOCIgY3k9IjExNTguNDc2NiIgZmlsbD0iIzAwMDAwMCIgcng9IjMiIHJ5PSIzIiBzdHlsZT0ic3Ryb2tlOiMwMDAwMDA7c3Ryb2tlLXdpZHRoOjE7Ii8+PHRleHQgZmlsbD0iIzAwMDAwMCIgZm9udC1mYW1pbHk9InNhbnMtc2VyaWYiIGZvbnQtc2l6ZT0iMTQiIGxlbmd0aEFkanVzdD0ic3BhY2luZyIgdGV4dExlbmd0aD0iNzciIHg9IjI3IiB5PSIxMTYyLjcxODgiPnRhZ19pZCA6IEZLPC90ZXh0PjxsaW5lIHN0eWxlPSJzdHJva2U6IzE4MTgxODtzdHJva2Utd2lkdGg6MC41OyIgeDE9IjgiIHgyPSIxMzciIHkxPSIxMTY4LjQ2ODgiIHkyPSIxMTY4LjQ2ODgiLz48L2c+PCEtLWNsYXNzIFRlYWNoZXJfU3R1ZGVudC0tPjxnIGNsYXNzPSJlbnRpdHkiIGRhdGEtZW50aXR5PSJUZWFjaGVyX1N0dWRlbnQiIGRhdGEtc291cmNlLWxpbmU9IjgxIiBkYXRhLXVpZD0iZW50MDAxMyIgaWQ9ImVudGl0eV9UZWFjaGVyX1N0dWRlbnQiPjxyZWN0IGZpbGw9IiNGMUYxRjEiIGhlaWdodD0iNzcuOTY4OCIgcng9IjIuNSIgcnk9IjIuNSIgc3R5bGU9InN0cm9rZTojMTgxODE4O3N0cm9rZS13aWR0aDowLjU7IiB3aWR0aD0iMTM3IiB4PSIzMDYiIHk9IjU0OC41Ii8+PGVsbGlwc2UgY3g9IjMyMSIgY3k9IjU2NC41IiBmaWxsPSIjQUREMUIyIiByeD0iMTEiIHJ5PSIxMSIgc3R5bGU9InN0cm9rZTojMTgxODE4O3N0cm9rZS13aWR0aDoxOyIvPjxwYXRoIGQ9Ik0zMjQuNjI1LDU3MC41IEwzMjQuNjI1LDU2OC43NSBMMzE5LjMxMjUsNTY4Ljc1IFEzMTkuMzEyNSw1NjguNzUgMzE5LjMxMjUsNTY1LjE4NzUgTDMyMy41NjI1LDU2NS4xODc1IEwzMjMuNTYyNSw1NjMuNDM3NSBMMzE5LjMxMjUsNTYzLjQzNzUgTDMxOS4zMTI1LDU2MC45Mzc1IEwzMjQuNjI1LDU2MC45Mzc1IEwzMjQuNjI1LDU1OS4xODc1IEwzMTcuNTYyNSw1NTkuMTg3NSBRMzE3LjU2MjUsNTU5LjE4NzUgMzE3LjU2MjUsNTcwLjUgTDMyNC42MjUsNTcwLjUgWiAiIGZpbGw9IiMwMDAwMDAiLz48dGV4dCBmaWxsPSIjMDAwMDAwIiBmb250LWZhbWlseT0ic2Fucy1zZXJpZiIgZm9udC1zaXplPSIxNCIgbGVuZ3RoQWRqdXN0PSJzcGFjaW5nIiB0ZXh0TGVuZ3RoPSIxMDUiIHg9IjMzNSIgeT0iNTcwLjI0MjIiPlRlYWNoZXJfU3R1ZGVudDwvdGV4dD48bGluZSBzdHlsZT0ic3Ryb2tlOiMxODE4MTg7c3Ryb2tlLXdpZHRoOjAuNTsiIHgxPSIzMDciIHgyPSI0NDIiIHkxPSI1ODAuNSIgeTI9IjU4MC41Ii8+PGVsbGlwc2UgY3g9IjMxNyIgY3k9IjU5My40OTIyIiBmaWxsPSIjMDAwMDAwIiByeD0iMyIgcnk9IjMiIHN0eWxlPSJzdHJva2U6IzAwMDAwMDtzdHJva2Utd2lkdGg6MTsiLz48dGV4dCBmaWxsPSIjMDAwMDAwIiBmb250LWZhbWlseT0ic2Fucy1zZXJpZiIgZm9udC1zaXplPSIxNCIgbGVuZ3RoQWRqdXN0PSJzcGFjaW5nIiB0ZXh0TGVuZ3RoPSIxMDUiIHg9IjMyNiIgeT0iNTk3LjczNDQiPnRlYWNoZXJfaWQgOiBGSzwvdGV4dD48ZWxsaXBzZSBjeD0iMzE3IiBjeT0iNjA4LjQ3NjYiIGZpbGw9IiMwMDAwMDAiIHJ4PSIzIiByeT0iMyIgc3R5bGU9InN0cm9rZTojMDAwMDAwO3N0cm9rZS13aWR0aDoxOyIvPjx0ZXh0IGZpbGw9IiMwMDAwMDAiIGZvbnQtZmFtaWx5PSJzYW5zLXNlcmlmIiBmb250LXNpemU9IjE0IiBsZW5ndGhBZGp1c3Q9InNwYWNpbmciIHRleHRMZW5ndGg9IjEwNSIgeD0iMzI2IiB5PSI2MTIuNzE4OCI+c3R1ZGVudF9pZCA6IEZLPC90ZXh0PjxsaW5lIHN0eWxlPSJzdHJva2U6IzE4MTgxODtzdHJva2Utd2lkdGg6MC41OyIgeDE9IjMwNyIgeDI9IjQ0MiIgeTE9IjYxOC40Njg4IiB5Mj0iNjE4LjQ2ODgiLz48L2c+PCEtLWxpbmsgVXNlciB0byBTdHVkZW50LS0+PGcgY2xhc3M9ImxpbmsiIGRhdGEtZW50aXR5LTE9IlVzZXIiIGRhdGEtZW50aXR5LTI9IlN0dWRlbnQiIGRhdGEtc291cmNlLWxpbmU9Ijg3IiBkYXRhLXVpZD0ibG5rMTQiIGlkPSJsaW5rX1VzZXJfU3R1ZGVudCI+PHBhdGggY29kZUxpbmU9Ijg3IiBkPSJNNTE5LjUsMTIzLjM2IEM1MTkuNSwxOTAuMDUgNTE5LjUsMjc3LjA0IDUxOS41LDMzOS44OSIgZmlsbD0ibm9uZSIgaWQ9IlVzZXItU3R1ZGVudCIgc3R5bGU9InN0cm9rZTojMTgxODE4O3N0cm9rZS13aWR0aDoxOyIvPjxsaW5lIHN0eWxlPSJzdHJva2U6IzE4MTgxODtzdHJva2Utd2lkdGg6MTsiIHgxPSI1MTUuNSIgeDI9IjUyMy41IiB5MT0iMTE5LjM2IiB5Mj0iMTE5LjM2Ii8+PGxpbmUgc3R5bGU9InN0cm9rZTojMTgxODE4O3N0cm9rZS13aWR0aDoxOyIgeDE9IjUxNS41IiB4Mj0iNTIzLjUiIHkxPSIxMjIuMzYiIHkyPSIxMjIuMzYiLz48bGluZSBzdHlsZT0ic3Ryb2tlOiMxODE4MTg7c3Ryb2tlLXdpZHRoOjE7IiB4MT0iNTE5LjUiIHgyPSI1MTkuNSIgeTE9IjEyMy4zNiIgeTI9IjExNS4zNiIvPjxsaW5lIHN0eWxlPSJzdHJva2U6IzE4MTgxODtzdHJva2Utd2lkdGg6MTsiIHgxPSI1MTkuNSIgeDI9IjUyNS41IiB5MT0iMzQ5Ljg5IiB5Mj0iMzU3Ljg5Ii8+PGxpbmUgc3R5bGU9InN0cm9rZTojMTgxODE4O3N0cm9rZS13aWR0aDoxOyIgeDE9IjUxOS41IiB4Mj0iNTEzLjUiIHkxPSIzNDkuODkiIHkyPSIzNTcuODkiLz48bGluZSBzdHlsZT0ic3Ryb2tlOiMxODE4MTg7c3Ryb2tlLXdpZHRoOjE7IiB4MT0iNTE5LjUiIHgyPSI1MTkuNSIgeTE9IjM0OS44OSIgeTI9IjM1Ny44OSIvPjxlbGxpcHNlIGN4PSI1MTkuNSIgY3k9IjM0My44OSIgZmlsbD0ibm9uZSIgcng9IjQiIHJ5PSI0IiBzdHlsZT0ic3Ryb2tlOiMxODE4MTg7c3Ryb2tlLXdpZHRoOjE7Ii8+PHRleHQgZmlsbD0iIzAwMDAwMCIgZm9udC1mYW1pbHk9InNhbnMtc2VyaWYiIGZvbnQtc2l6ZT0iMTMiIGxlbmd0aEFkanVzdD0ic3BhY2luZyIgdGV4dExlbmd0aD0iMjYiIHg9IjUyMC41IiB5PSIyNDIuMjg5MSI+aXNfYTwvdGV4dD48L2c+PCEtLWxpbmsgVXNlciB0byBUZWFjaGVyLS0+PGcgY2xhc3M9ImxpbmsiIGRhdGEtZW50aXR5LTE9IlVzZXIiIGRhdGEtZW50aXR5LTI9IlRlYWNoZXIiIGRhdGEtc291cmNlLWxpbmU9Ijg4IiBkYXRhLXVpZD0ibG5rMTUiIGlkPSJsaW5rX1VzZXJfVGVhY2hlciI+PHBhdGggY29kZUxpbmU9Ijg4IiBkPSJNNDY5LjY3OTksMTIxLjYwODYgQzQ0OS43ODk5LDE0NS40MDg2IDQ0My4yOTUzLDE1My4xOTA0IDQyNC4yMjUzLDE3Ni4wMDA0IiBmaWxsPSJub25lIiBpZD0iVXNlci1UZWFjaGVyIiBzdHlsZT0ic3Ryb2tlOiMxODE4MTg7c3Ryb2tlLXdpZHRoOjE7Ii8+PGxpbmUgc3R5bGU9InN0cm9rZTojMTgxODE4O3N0cm9rZS13aWR0aDoxOyIgeDE9IjQ2OS4xNzU3IiB4Mj0iNDc1LjMxNDIiIHkxPSIxMTUuOTc0MiIgeTI9IjEyMS4xMDQzIi8+PGxpbmUgc3R5bGU9InN0cm9rZTojMTgxODE4O3N0cm9rZS13aWR0aDoxOyIgeDE9IjQ2Ny4yNTE5IiB4Mj0iNDczLjM5MDUiIHkxPSIxMTguMjc2MiIgeTI9IjEyMy40MDYzIi8+PGxpbmUgc3R5bGU9InN0cm9rZTojMTgxODE4O3N0cm9rZS13aWR0aDoxOyIgeDE9IjQ2OS42Nzk5IiB4Mj0iNDc0LjgxIiB5MT0iMTIxLjYwODYiIHkyPSIxMTUuNDciLz48bGluZSBzdHlsZT0ic3Ryb2tlOiMxODE4MTg7c3Ryb2tlLXdpZHRoOjE7IiB4MT0iNDE3LjgxMTMiIHgyPSI0MTcuMjgzMiIgeTE9IjE4My42NzI0IiB5Mj0iMTkzLjY1ODQiLz48bGluZSBzdHlsZT0ic3Ryb2tlOiMxODE4MTg7c3Ryb2tlLXdpZHRoOjE7IiB4MT0iNDE3LjgxMTMiIHgyPSI0MDguMDc2OCIgeTE9IjE4My42NzI0IiB5Mj0iMTg1Ljk2MTYiLz48bGluZSBzdHlsZT0ic3Ryb2tlOiMxODE4MTg7c3Ryb2tlLXdpZHRoOjE7IiB4MT0iNDE3LjgxMTMiIHgyPSI0MTIuNjgiIHkxPSIxODMuNjcyNCIgeTI9IjE4OS44MSIvPjxlbGxpcHNlIGN4PSI0MjEuNjU5NyIgY3k9IjE3OS4wNjkyIiBmaWxsPSJub25lIiByeD0iNCIgcnk9IjQiIHN0eWxlPSJzdHJva2U6IzE4MTgxODtzdHJva2Utd2lkdGg6MTsiLz48dGV4dCBmaWxsPSIjMDAwMDAwIiBmb250LWZhbWlseT0ic2Fucy1zZXJpZiIgZm9udC1zaXplPSIxMyIgbGVuZ3RoQWRqdXN0PSJzcGFjaW5nIiB0ZXh0TGVuZ3RoPSIyNiIgeD0iNDQ4LjUiIHk9IjE1OC4yODkxIj5pc19hPC90ZXh0PjwvZz48IS0tbGluayBVc2VyIHRvIEFkbWluaXN0cmF0b3ItLT48ZyBjbGFzcz0ibGluayIgZGF0YS1lbnRpdHktMT0iVXNlciIgZGF0YS1lbnRpdHktMj0iQWRtaW5pc3RyYXRvciIgZGF0YS1zb3VyY2UtbGluZT0iODkiIGRhdGEtdWlkPSJsbmsxNiIgaWQ9ImxpbmtfVXNlcl9BZG1pbmlzdHJhdG9yIj48cGF0aCBjb2RlTGluZT0iODkiIGQ9Ik01NjguOTg4NCwxMjEuNjI2NiBDNTkwLjk2ODQsMTQ4LjExNjYgNjAwLjM5MjgsMTU5LjQ3MDMgNjIwLjMzMjgsMTgzLjQ5MDMiIGZpbGw9Im5vbmUiIGlkPSJVc2VyLUFkbWluaXN0cmF0b3IiIHN0eWxlPSJzdHJva2U6IzE4MTgxODtzdHJva2Utd2lkdGg6MTsiLz48bGluZSBzdHlsZT0ic3Ryb2tlOiMxODE4MTg7c3Ryb2tlLXdpZHRoOjE7IiB4MT0iNTYzLjM1NTkiIHgyPSI1NjkuNTEyNSIgeTE9IjEyMS4xMDI1IiB5Mj0iMTE1Ljk5NDEiLz48bGluZSBzdHlsZT0ic3Ryb2tlOiMxODE4MTg7c3Ryb2tlLXdpZHRoOjE7IiB4MT0iNTY1LjI3MTYiIHgyPSI1NzEuNDI4MiIgeTE9IjEyMy40MTEzIiB5Mj0iMTE4LjMwMjgiLz48bGluZSBzdHlsZT0ic3Ryb2tlOiMxODE4MTg7c3Ryb2tlLXdpZHRoOjE7IiB4MT0iNTY4Ljk4ODQiIHgyPSI1NjMuODgiIHkxPSIxMjEuNjI2NiIgeTI9IjExNS40NyIvPjxsaW5lIHN0eWxlPSJzdHJva2U6IzE4MTgxODtzdHJva2Utd2lkdGg6MTsiIHgxPSI2MjYuNzIwMSIgeDI9IjYzNi40NDY2IiB5MT0iMTkxLjE4NDYiIHkyPSIxOTMuNTA3NiIvPjxsaW5lIHN0eWxlPSJzdHJva2U6IzE4MTgxODtzdHJva2Utd2lkdGg6MTsiIHgxPSI2MjYuNzIwMSIgeDI9IjYyNy4yMTM0IiB5MT0iMTkxLjE4NDYiIHkyPSIyMDEuMTcyNCIvPjxsaW5lIHN0eWxlPSJzdHJva2U6IzE4MTgxODtzdHJva2Utd2lkdGg6MTsiIHgxPSI2MjYuNzIwMSIgeDI9IjYzMS44MyIgeTE9IjE5MS4xODQ2IiB5Mj0iMTk3LjM0Ii8+PGVsbGlwc2UgY3g9IjYyMi44ODc3IiBjeT0iMTg2LjU2OCIgZmlsbD0ibm9uZSIgcng9IjQiIHJ5PSI0IiBzdHlsZT0ic3Ryb2tlOiMxODE4MTg7c3Ryb2tlLXdpZHRoOjE7Ii8+PHRleHQgZmlsbD0iIzAwMDAwMCIgZm9udC1mYW1pbHk9InNhbnMtc2VyaWYiIGZvbnQtc2l6ZT0iMTMiIGxlbmd0aEFkanVzdD0ic3BhY2luZyIgdGV4dExlbmd0aD0iMjYiIHg9IjYwMS41IiB5PSIxNTguMjg5MSI+aXNfYTwvdGV4dD48L2c+PCEtLWxpbmsgU3R1ZGVudCB0byBQcm9ncmVzcy0tPjxnIGNsYXNzPSJsaW5rIiBkYXRhLWVudGl0eS0xPSJTdHVkZW50IiBkYXRhLWVudGl0eS0yPSJQcm9ncmVzcyIgZGF0YS1zb3VyY2UtbGluZT0iOTAiIGRhdGEtdWlkPSJsbmsxNyIgaWQ9ImxpbmtfU3R1ZGVudF9Qcm9ncmVzcyI+PHBhdGggY29kZUxpbmU9IjkwIiBkPSJNNTI3Ljc4OTksNDU5LjA3NjQgQzUzMS4yNzk5LDQ4MS42OTY0IDUzMS41ODkzLDQ4My42MjE0IDUzNS4zNTkzLDUwOC4wMDE0IiBmaWxsPSJub25lIiBpZD0iU3R1ZGVudC1Qcm9ncmVzcyIgc3R5bGU9InN0cm9rZTojMTgxODE4O3N0cm9rZS13aWR0aDoxOyIvPjxsaW5lIHN0eWxlPSJzdHJva2U6IzE4MTgxODtzdHJva2Utd2lkdGg6MTsiIHgxPSI1MjMuMjI2NyIgeDI9IjUzMS4xMzMyIiB5MT0iNDU1LjczMzIiIHkyPSI0NTQuNTEzMyIvPjxsaW5lIHN0eWxlPSJzdHJva2U6IzE4MTgxODtzdHJva2Utd2lkdGg6MTsiIHgxPSI1MjMuNjg0MiIgeDI9IjUzMS41OTA2IiB5MT0iNDU4LjY5ODEiIHkyPSI0NTcuNDc4MiIvPjxsaW5lIHN0eWxlPSJzdHJva2U6IzE4MTgxODtzdHJva2Utd2lkdGg6MTsiIHgxPSI1MjcuNzg5OSIgeDI9IjUyNi41NyIgeTE9IjQ1OS4wNzY0IiB5Mj0iNDUxLjE3Ii8+PGxpbmUgc3R5bGU9InN0cm9rZTojMTgxODE4O3N0cm9rZS13aWR0aDoxOyIgeDE9IjUzNi44ODc1IiB4Mj0iNTQ0LjAzOTUiIHkxPSI1MTcuODg0IiB5Mj0iNTI0Ljg3MzEiLz48bGluZSBzdHlsZT0ic3Ryb2tlOiMxODE4MTg7c3Ryb2tlLXdpZHRoOjE7IiB4MT0iNTM2Ljg4NzUiIHgyPSI1MzIuMTgwNSIgeTE9IjUxNy44ODQiIHkyPSI1MjYuNzA2OSIvPjxsaW5lIHN0eWxlPSJzdHJva2U6IzE4MTgxODtzdHJva2Utd2lkdGg6MTsiIHgxPSI1MzYuODg3NSIgeDI9IjUzOC4xMSIgeTE9IjUxNy44ODQiIHkyPSI1MjUuNzkiLz48ZWxsaXBzZSBjeD0iNTM1Ljk3MDUiIGN5PSI1MTEuOTU0NCIgZmlsbD0ibm9uZSIgcng9IjQiIHJ5PSI0IiBzdHlsZT0ic3Ryb2tlOiMxODE4MTg7c3Ryb2tlLXdpZHRoOjE7Ii8+PHRleHQgZmlsbD0iIzAwMDAwMCIgZm9udC1mYW1pbHk9InNhbnMtc2VyaWYiIGZvbnQtc2l6ZT0iMTMiIGxlbmd0aEFkanVzdD0ic3BhY2luZyIgdGV4dExlbmd0aD0iMTkuNSIgeD0iNTM0LjUiIHk9IjQ5NC4yODkxIj5oYXM8L3RleHQ+PC9nPjwhLS1saW5rIFByb2dyZXNzIHRvIENvbnRlbnQtLT48ZyBjbGFzcz0ibGluayIgZGF0YS1lbnRpdHktMT0iUHJvZ3Jlc3MiIGRhdGEtZW50aXR5LTI9IkNvbnRlbnQiIGRhdGEtc291cmNlLWxpbmU9IjkxIiBkYXRhLXVpZD0ibG5rMTgiIGlkPSJsaW5rX1Byb2dyZXNzX0NvbnRlbnQiPjxwYXRoIGNvZGVMaW5lPSI5MSIgZD0iTTQ2Mi44MjI1LDY0OC4zNDIzIEM0NTYuOTUyNSw2NTEuOTIyMyA0NjYuMzcsNjQ1Ljk0IDQ2MC41LDY0OSBDMzY2LjU3LDY5Ny45IDI1Ny4zMjk4LDczNC41MDE4IDE4NS43NDk4LDc1Ni4wNzE4IiBmaWxsPSJub25lIiBpZD0iUHJvZ3Jlc3MtQ29udGVudCIgc3R5bGU9InN0cm9rZTojMTgxODE4O3N0cm9rZS13aWR0aDoxOyIvPjxsaW5lIHN0eWxlPSJzdHJva2U6IzE4MTgxODtzdHJva2Utd2lkdGg6MTsiIHgxPSI0NzEuMzYiIHgyPSI0NzUuMDY1OSIgeTE9IjY0My4xMzU1IiB5Mj0iNjMzLjg0NzUiLz48bGluZSBzdHlsZT0ic3Ryb2tlOiMxODE4MTg7c3Ryb2tlLXdpZHRoOjE7IiB4MT0iNDcxLjM2IiB4Mj0iNDgxLjMxNDEiIHkxPSI2NDMuMTM1NSIgeTI9IjY0NC4wOTI1Ii8+PGxpbmUgc3R5bGU9InN0cm9rZTojMTgxODE4O3N0cm9rZS13aWR0aDoxOyIgeDE9IjQ3MS4zNiIgeDI9IjQ3OC4xOSIgeTE9IjY0My4xMzU1IiB5Mj0iNjM4Ljk3Ii8+PGVsbGlwc2UgY3g9IjQ2Ni4yMzc1IiBjeT0iNjQ2LjI1OTYiIGZpbGw9Im5vbmUiIHJ4PSI0IiByeT0iNCIgc3R5bGU9InN0cm9rZTojMTgxODE4O3N0cm9rZS13aWR0aDoxOyIvPjxsaW5lIHN0eWxlPSJzdHJva2U6IzE4MTgxODtzdHJva2Utd2lkdGg6MTsiIHgxPSIxODMuMDc0IiB4Mj0iMTgwLjc2NTgiIHkxPSI3NjEuMDU1OCIgeTI9Ijc1My4zOTYiLz48bGluZSBzdHlsZT0ic3Ryb2tlOiMxODE4MTg7c3Ryb2tlLXdpZHRoOjE7IiB4MT0iMTg1Ljk0NjQiIHgyPSIxODMuNjM4MiIgeTE9Ijc2MC4xOTAyIiB5Mj0iNzUyLjUzMDQiLz48bGluZSBzdHlsZT0ic3Ryb2tlOiMxODE4MTg7c3Ryb2tlLXdpZHRoOjE7IiB4MT0iMTg1Ljc0OTgiIHgyPSIxNzguMDkiIHkxPSI3NTYuMDcxOCIgeTI9Ijc1OC4zOCIvPjx0ZXh0IGZpbGw9IiMwMDAwMDAiIGZvbnQtZmFtaWx5PSJzYW5zLXNlcmlmIiBmb250LXNpemU9IjEzIiBsZW5ndGhBZGp1c3Q9InNwYWNpbmciIHRleHRMZW5ndGg9IjM5IiB4PSIzOTguNSIgeT0iNjkyLjI4OTEiPnRyYWNrczwvdGV4dD48L2c+PCEtLWxpbmsgUHJvZ3Jlc3MgdG8gVGVzdC0tPjxnIGNsYXNzPSJsaW5rIiBkYXRhLWVudGl0eS0xPSJQcm9ncmVzcyIgZGF0YS1lbnRpdHktMj0iVGVzdCIgZGF0YS1zb3VyY2UtbGluZT0iOTIiIGRhdGEtdWlkPSJsbmsxOSIgaWQ9ImxpbmtfUHJvZ3Jlc3NfVGVzdCI+PHBhdGggY29kZUxpbmU9IjkyIiBkPSJNNTQ3LjUsNjY3LjM5IEM1NDcuNSw3MzguMTIgNTQ3LjUsODIxLjEgNTQ3LjUsODkxLjc2IiBmaWxsPSJub25lIiBpZD0iUHJvZ3Jlc3MtVGVzdCIgc3R5bGU9InN0cm9rZTojMTgxODE4O3N0cm9rZS13aWR0aDoxOyIvPjxsaW5lIHN0eWxlPSJzdHJva2U6IzE4MTgxODtzdHJva2Utd2lkdGg6MTsiIHgxPSI1NDcuNSIgeDI9IjU0MS41IiB5MT0iNjU3LjM5IiB5Mj0iNjQ5LjM5Ii8+PGxpbmUgc3R5bGU9InN0cm9rZTojMTgxODE4O3N0cm9rZS13aWR0aDoxOyIgeDE9IjU0Ny41IiB4Mj0iNTUzLjUiIHkxPSI2NTcuMzkiIHkyPSI2NDkuMzkiLz48bGluZSBzdHlsZT0ic3Ryb2tlOiMxODE4MTg7c3Ryb2tlLXdpZHRoOjE7IiB4MT0iNTQ3LjUiIHgyPSI1NDcuNSIgeTE9IjY1Ny4zOSIgeTI9IjY0OS4zOSIvPjxlbGxpcHNlIGN4PSI1NDcuNSIgY3k9IjY2My4zOSIgZmlsbD0ibm9uZSIgcng9IjQiIHJ5PSI0IiBzdHlsZT0ic3Ryb2tlOiMxODE4MTg7c3Ryb2tlLXdpZHRoOjE7Ii8+PGxpbmUgc3R5bGU9InN0cm9rZTojMTgxODE4O3N0cm9rZS13aWR0aDoxOyIgeDE9IjU0Ny41IiB4Mj0iNTQ3LjUiIHkxPSI4OTUuNzYiIHkyPSI5MDYuNzYiLz48ZWxsaXBzZSBjeD0iNTQ3LjUiIGN5PSI4OTUuNzYiIGZpbGw9Im5vbmUiIHJ4PSI0IiByeT0iNCIgc3R5bGU9InN0cm9rZTojMTgxODE4O3N0cm9rZS13aWR0aDoxOyIvPjxsaW5lIHN0eWxlPSJzdHJva2U6IzE4MTgxODtzdHJva2Utd2lkdGg6MTsiIHgxPSI1NTEuNSIgeDI9IjU0My41IiB5MT0iOTAyLjc2IiB5Mj0iOTAyLjc2Ii8+PHRleHQgZmlsbD0iIzAwMDAwMCIgZm9udC1mYW1pbHk9InNhbnMtc2VyaWYiIGZvbnQtc2l6ZT0iMTMiIGxlbmd0aEFkanVzdD0ic3BhY2luZyIgdGV4dExlbmd0aD0iNTguNSIgeD0iNTQ4LjUiIHk9Ijc4My43ODkxIj5ldmFsdWF0ZXM8L3RleHQ+PC9nPjwhLS1saW5rIENvbnRlbnQgdG8gVGVzdC0tPjxnIGNsYXNzPSJsaW5rIiBkYXRhLWVudGl0eS0xPSJDb250ZW50IiBkYXRhLWVudGl0eS0yPSJUZXN0IiBkYXRhLXNvdXJjZS1saW5lPSI5MyIgZGF0YS11aWQ9ImxuazIwIiBpZD0ibGlua19Db250ZW50X1Rlc3QiPjxwYXRoIGNvZGVMaW5lPSI5MyIgZD0iTTE0Ni4xODU2LDgzOC44MzMxIEMxNTcuNTg1Niw4NTUuMzQzMSAxNjcuNDksODY1LjU5IDE4NC41LDg3NyBDMjc3LjAxLDkzOS4wNCAzOTAuNTM3NCw5NTcuMTM0IDQ2Ny4yNTc0LDk2My4yNzQiIGZpbGw9Im5vbmUiIGlkPSJDb250ZW50LVRlc3QiIHN0eWxlPSJzdHJva2U6IzE4MTgxODtzdHJva2Utd2lkdGg6MTsiLz48bGluZSBzdHlsZT0ic3Ryb2tlOiMxODE4MTg7c3Ryb2tlLXdpZHRoOjE7IiB4MT0iMTQwLjYyMTIiIHgyPSIxNDcuMjA0NCIgeTE9IjgzNy44MTQ0IiB5Mj0iODMzLjI2ODgiLz48bGluZSBzdHlsZT0ic3Ryb2tlOiMxODE4MTg7c3Ryb2tlLXdpZHRoOjE7IiB4MT0iMTQyLjMyNTgiIHgyPSIxNDguOTA5IiB5MT0iODQwLjI4MyIgeTI9IjgzNS43Mzc0Ii8+PGxpbmUgc3R5bGU9InN0cm9rZTojMTgxODE4O3N0cm9rZS13aWR0aDoxOyIgeDE9IjE0Ni4xODU2IiB4Mj0iMTQxLjY0IiB5MT0iODM4LjgzMzEiIHkyPSI4MzIuMjUiLz48bGluZSBzdHlsZT0ic3Ryb2tlOiMxODE4MTg7c3Ryb2tlLXdpZHRoOjE7IiB4MT0iNDc3LjIyNTUiIHgyPSI0ODUuNjc4NyIgeTE9Ijk2NC4wNzE4IiB5Mj0iOTU4LjcyOTEiLz48bGluZSBzdHlsZT0ic3Ryb2tlOiMxODE4MTg7c3Ryb2tlLXdpZHRoOjE7IiB4MT0iNDc3LjIyNTUiIHgyPSI0ODQuNzIxMyIgeTE9Ijk2NC4wNzE4IiB5Mj0iOTcwLjY5MDkiLz48bGluZSBzdHlsZT0ic3Ryb2tlOiMxODE4MTg7c3Ryb2tlLXdpZHRoOjE7IiB4MT0iNDc3LjIyNTUiIHgyPSI0ODUuMiIgeTE9Ijk2NC4wNzE4IiB5Mj0iOTY0LjcxIi8+PGVsbGlwc2UgY3g9IjQ3MS4yNDQ2IiBjeT0iOTYzLjU5MzEiIGZpbGw9Im5vbmUiIHJ4PSI0IiByeT0iNCIgc3R5bGU9InN0cm9rZTojMTgxODE4O3N0cm9rZS13aWR0aDoxOyIvPjx0ZXh0IGZpbGw9IiMwMDAwMDAiIGZvbnQtZmFtaWx5PSJzYW5zLXNlcmlmIiBmb250LXNpemU9IjEzIiBsZW5ndGhBZGp1c3Q9InNwYWNpbmciIHRleHRMZW5ndGg9IjE5LjUiIHg9IjE4NS41IiB5PSI4NzUuMjg5MSI+aGFzPC90ZXh0PjwvZz48IS0tbGluayBTdHVkZW50IHRvIFRlc3QtLT48ZyBjbGFzcz0ibGluayIgZGF0YS1lbnRpdHktMT0iU3R1ZGVudCIgZGF0YS1lbnRpdHktMj0iVGVzdCIgZGF0YS1zb3VyY2UtbGluZT0iOTQiIGRhdGEtdWlkPSJsbmsyMSIgaWQ9ImxpbmtfU3R1ZGVudF9UZXN0Ij48cGF0aCBjb2RlTGluZT0iOTQiIGQ9Ik01OTEuNjI3Niw0NjMuMzk2NiBDNjEzLjIxNzYsNDgzLjcxNjYgNjIyLjA1LDQ5Ny4yNCA2MzMuNSw1MjYgQzY4My44OSw2NTIuNTggNjUzLjM2LDcwMS4xMyA2MTUuNSw4MzIgQzYwOC4xMSw4NTcuNTQgNjA0LjM3OTQsODY4LjA5NTIgNTkyLjM3OTQsODkwLjgwNTIiIGZpbGw9Im5vbmUiIGlkPSJTdHVkZW50LVRlc3QiIHN0eWxlPSJzdHJva2U6IzE4MTgxODtzdHJva2Utd2lkdGg6MTsiLz48bGluZSBzdHlsZT0ic3Ryb2tlOiMxODE4MTg7c3Ryb2tlLXdpZHRoOjE7IiB4MT0iNTg0LjM0NTYiIHgyPSI1NzQuNDA3OCIgeTE9IjQ1Ni41NDI5IiB5Mj0iNDU1LjQyOTIiLz48bGluZSBzdHlsZT0ic3Ryb2tlOiMxODE4MTg7c3Ryb2tlLXdpZHRoOjE7IiB4MT0iNTg0LjM0NTYiIHgyPSI1ODIuNjMyMiIgeTE9IjQ1Ni41NDI5IiB5Mj0iNDQ2LjY5MDgiLz48bGluZSBzdHlsZT0ic3Ryb2tlOiMxODE4MTg7c3Ryb2tlLXdpZHRoOjE7IiB4MT0iNTg0LjM0NTYiIHgyPSI1NzguNTIiIHkxPSI0NTYuNTQyOSIgeTI9IjQ1MS4wNiIvPjxlbGxpcHNlIGN4PSI1ODguNzE0OCIgY3k9IjQ2MC42NTUxIiBmaWxsPSJub25lIiByeD0iNCIgcnk9IjQiIHN0eWxlPSJzdHJva2U6IzE4MTgxODtzdHJva2Utd2lkdGg6MTsiLz48bGluZSBzdHlsZT0ic3Ryb2tlOiMxODE4MTg7c3Ryb2tlLXdpZHRoOjE7IiB4MT0iNTg3LjcwNzUiIHgyPSI1ODkuMjc0OSIgeTE9Ijg5OS42NDY3IiB5Mj0iOTA5LjUyMzEiLz48bGluZSBzdHlsZT0ic3Ryb2tlOiMxODE4MTg7c3Ryb2tlLXdpZHRoOjE7IiB4MT0iNTg3LjcwNzUiIHgyPSI1NzguNjY1MSIgeTE9Ijg5OS42NDY3IiB5Mj0iOTAzLjkxNjkiLz48bGluZSBzdHlsZT0ic3Ryb2tlOiMxODE4MTg7c3Ryb2tlLXdpZHRoOjE7IiB4MT0iNTg3LjcwNzUiIHgyPSI1ODMuOTciIHkxPSI4OTkuNjQ2NyIgeTI9IjkwNi43MiIvPjxlbGxpcHNlIGN4PSI1OTAuNTEwNyIgY3k9Ijg5NC4zNDE4IiBmaWxsPSJub25lIiByeD0iNCIgcnk9IjQiIHN0eWxlPSJzdHJva2U6IzE4MTgxODtzdHJva2Utd2lkdGg6MTsiLz48dGV4dCBmaWxsPSIjMDAwMDAwIiBmb250LWZhbWlseT0ic2Fucy1zZXJpZiIgZm9udC1zaXplPSIxMyIgbGVuZ3RoQWRqdXN0PSJzcGFjaW5nIiB0ZXh0TGVuZ3RoPSIzMi41IiB4PSI2NTguNSIgeT0iNjkyLjI4OTEiPnRha2VzPC90ZXh0PjwvZz48IS0tbGluayBTdHVkZW50IHRvIFN0dWRlbnRfVGVzdC0tPjxnIGNsYXNzPSJsaW5rIiBkYXRhLWVudGl0eS0xPSJTdHVkZW50IiBkYXRhLWVudGl0eS0yPSJTdHVkZW50X1Rlc3QiIGRhdGEtc291cmNlLWxpbmU9Ijk1IiBkYXRhLXVpZD0ibG5rMjIiIGlkPSJsaW5rX1N0dWRlbnRfU3R1ZGVudF9UZXN0Ij48cGF0aCBjb2RlTGluZT0iOTUiIGQ9Ik01OTIuMDMwNiw0NDcuNjIwOSBDNjU3LjE3MDYsNDg3LjU1MDkgNzQwLjUsNTQ1Ljk2IDc0MC41LDU4Ni41IEM3NDAuNSw1ODYuNSA3NDAuNSw1ODYuNSA3NDAuNSw5NjkuNSBDNzQwLjUsMTAxMi4zMiA3MzEuMDUxMSwxMDQxLjgyMzkgNzE1LjM3MTEsMTA3NC41ODM5IiBmaWxsPSJub25lIiBpZD0iU3R1ZGVudC1TdHVkZW50X1Rlc3QiIHN0eWxlPSJzdHJva2U6IzE4MTgxODtzdHJva2Utd2lkdGg6MTsiLz48bGluZSBzdHlsZT0ic3Ryb2tlOiMxODE4MTg7c3Ryb2tlLXdpZHRoOjE7IiB4MT0iNTg2LjUyOTgiIHgyPSI1OTAuNzEwNyIgeTE9IjQ0OC45NDA3IiB5Mj0iNDQyLjEyMDIiLz48bGluZSBzdHlsZT0ic3Ryb2tlOiMxODE4MTg7c3Ryb2tlLXdpZHRoOjE7IiB4MT0iNTg5LjA4NzUiIHgyPSI1OTMuMjY4NCIgeTE9IjQ1MC41MDg2IiB5Mj0iNDQzLjY4OCIvPjxsaW5lIHN0eWxlPSJzdHJva2U6IzE4MTgxODtzdHJva2Utd2lkdGg6MTsiIHgxPSI1OTIuMDMwNiIgeDI9IjU4NS4yMSIgeTE9IjQ0Ny42MjA5IiB5Mj0iNDQzLjQ0Ii8+PGxpbmUgc3R5bGU9InN0cm9rZTojMTgxODE4O3N0cm9rZS13aWR0aDoxOyIgeDE9IjcxMS4wNTM4IiB4Mj0iNzEzLjAxMiIgeTE9IjEwODMuNjA0IiB5Mj0iMTA5My40MTA0Ii8+PGxpbmUgc3R5bGU9InN0cm9rZTojMTgxODE4O3N0cm9rZS13aWR0aDoxOyIgeDE9IjcxMS4wNTM4IiB4Mj0iNzAyLjE4OCIgeTE9IjEwODMuNjA0IiB5Mj0iMTA4OC4yMjk2Ii8+PGxpbmUgc3R5bGU9InN0cm9rZTojMTgxODE4O3N0cm9rZS13aWR0aDoxOyIgeDE9IjcxMS4wNTM4IiB4Mj0iNzA3LjYiIHkxPSIxMDgzLjYwNCIgeTI9IjEwOTAuODIiLz48ZWxsaXBzZSBjeD0iNzEzLjY0NDIiIGN5PSIxMDc4LjE5MTkiIGZpbGw9Im5vbmUiIHJ4PSI0IiByeT0iNCIgc3R5bGU9InN0cm9rZTojMTgxODE4O3N0cm9rZS13aWR0aDoxOyIvPjwvZz48IS0tbGluayBUZXN0IHRvIFN0dWRlbnRfVGVzdC0tPjxnIGNsYXNzPSJsaW5rIiBkYXRhLWVudGl0eS0xPSJUZXN0IiBkYXRhLWVudGl0eS0yPSJTdHVkZW50X1Rlc3QiIGRhdGEtc291cmNlLWxpbmU9Ijk2IiBkYXRhLXVpZD0ibG5rMjMiIGlkPSJsaW5rX1Rlc3RfU3R1ZGVudF9UZXN0Ij48cGF0aCBjb2RlTGluZT0iOTYiIGQ9Ik02MDEuNjQ5NywxMDM2LjQ4MTEgQzYxNy44NTk3LDEwNTYuNTMxMSA2MTkuMjU2MywxMDU4LjI2IDYzNC4zNzYzLDEwNzYuOTciIGZpbGw9Im5vbmUiIGlkPSJUZXN0LVN0dWRlbnRfVGVzdCIgc3R5bGU9InN0cm9rZTojMTgxODE4O3N0cm9rZS13aWR0aDoxOyIvPjxsaW5lIHN0eWxlPSJzdHJva2U6IzE4MTgxODtzdHJva2Utd2lkdGg6MTsiIHgxPSI1OTYuMDI0MyIgeDI9IjYwMi4yNDU0IiB5MT0iMTAzNS44ODU0IiB5Mj0iMTAzMC44NTU3Ii8+PGxpbmUgc3R5bGU9InN0cm9rZTojMTgxODE4O3N0cm9rZS13aWR0aDoxOyIgeDE9IjU5Ny45MTA0IiB4Mj0iNjA0LjEzMTUiIHkxPSIxMDM4LjIxODMiIHkyPSIxMDMzLjE4ODciLz48bGluZSBzdHlsZT0ic3Ryb2tlOiMxODE4MTg7c3Ryb2tlLXdpZHRoOjE7IiB4MT0iNjAxLjY0OTciIHgyPSI1OTYuNjIiIHkxPSIxMDM2LjQ4MTEiIHkyPSIxMDMwLjI2Ii8+PGxpbmUgc3R5bGU9InN0cm9rZTojMTgxODE4O3N0cm9rZS13aWR0aDoxOyIgeDE9IjY0MC42NjE3IiB4Mj0iNjUwLjM1NjciIHkxPSIxMDg0Ljc0NzgiIHkyPSIxMDg3LjE5ODgiLz48bGluZSBzdHlsZT0ic3Ryb2tlOiMxODE4MTg7c3Ryb2tlLXdpZHRoOjE7IiB4MT0iNjQwLjY2MTciIHgyPSI2NDEuMDIzMyIgeTE9IjEwODQuNzQ3OCIgeTI9IjEwOTQuNzQxMiIvPjxsaW5lIHN0eWxlPSJzdHJva2U6IzE4MTgxODtzdHJva2Utd2lkdGg6MTsiIHgxPSI2NDAuNjYxNyIgeDI9IjY0NS42OSIgeTE9IjEwODQuNzQ3OCIgeTI9IjEwOTAuOTciLz48ZWxsaXBzZSBjeD0iNjM2Ljg5MDQiIGN5PSIxMDgwLjA4MTEiIGZpbGw9Im5vbmUiIHJ4PSI0IiByeT0iNCIgc3R5bGU9InN0cm9rZTojMTgxODE4O3N0cm9rZS13aWR0aDoxOyIvPjwvZz48IS0tbGluayBDb250ZW50IHRvIFRhZy0tPjxnIGNsYXNzPSJsaW5rIiBkYXRhLWVudGl0eS0xPSJDb250ZW50IiBkYXRhLWVudGl0eS0yPSJUYWciIGRhdGEtc291cmNlLWxpbmU9Ijk3IiBkYXRhLXVpZD0ibG5rMjQiIGlkPSJsaW5rX0NvbnRlbnRfVGFnIj48cGF0aCBjb2RlTGluZT0iOTciIGQ9Ik0xMTYuOTU5MSw4NDkuOTkxNiBDMTE4LjEzOTEsODY0LjYwMTYgMTE4LjMxLDg2Mi40OCAxMjAuNSw4NzcgQzEyMy4xMSw4OTQuMzQgMTIzLjA1MjMsODk1Ljc4OCAxMjYuNzkyMyw5MTEuODY4IiBmaWxsPSJub25lIiBpZD0iQ29udGVudC1UYWciIHN0eWxlPSJzdHJva2U6IzE4MTgxODtzdHJva2Utd2lkdGg6MTsiLz48bGluZSBzdHlsZT0ic3Ryb2tlOiMxODE4MTg7c3Ryb2tlLXdpZHRoOjE7IiB4MT0iMTE2LjE1NCIgeDI9IjEwOS41Mjk1IiB5MT0iODQwLjAyNCIgeTI9IjgzMi41MzMiLz48bGluZSBzdHlsZT0ic3Ryb2tlOiMxODE4MTg7c3Ryb2tlLXdpZHRoOjE7IiB4MT0iMTE2LjE1NCIgeDI9IjEyMS40OTA1IiB5MT0iODQwLjAyNCIgeTI9IjgzMS41NjciLz48bGluZSBzdHlsZT0ic3Ryb2tlOiMxODE4MTg7c3Ryb2tlLXdpZHRoOjE7IiB4MT0iMTE2LjE1NCIgeDI9IjExNS41MSIgeTE9Ijg0MC4wMjQiIHkyPSI4MzIuMDUiLz48ZWxsaXBzZSBjeD0iMTE2LjYzNzEiIGN5PSI4NDYuMDA0NiIgZmlsbD0ibm9uZSIgcng9IjQiIHJ5PSI0IiBzdHlsZT0ic3Ryb2tlOiMxODE4MTg7c3Ryb2tlLXdpZHRoOjE7Ii8+PGxpbmUgc3R5bGU9InN0cm9rZTojMTgxODE4O3N0cm9rZS13aWR0aDoxOyIgeDE9IjEyOS4wNTc3IiB4Mj0iMTM2LjcxNCIgeTE9IjkyMS42MDgiIHkyPSI5MjguMDQwOCIvPjxsaW5lIHN0eWxlPSJzdHJva2U6IzE4MTgxODtzdHJva2Utd2lkdGg6MTsiIHgxPSIxMjkuMDU3NyIgeDI9IjEyNS4wMjYiIHkxPSI5MjEuNjA4IiB5Mj0iOTMwLjc1OTIiLz48bGluZSBzdHlsZT0ic3Ryb2tlOiMxODE4MTg7c3Ryb2tlLXdpZHRoOjE7IiB4MT0iMTI5LjA1NzciIHgyPSIxMzAuODciIHkxPSI5MjEuNjA4IiB5Mj0iOTI5LjQiLz48ZWxsaXBzZSBjeD0iMTI3LjY5ODQiIGN5PSI5MTUuNzY0IiBmaWxsPSJub25lIiByeD0iNCIgcnk9IjQiIHN0eWxlPSJzdHJva2U6IzE4MTgxODtzdHJva2Utd2lkdGg6MTsiLz48dGV4dCBmaWxsPSIjMDAwMDAwIiBmb250LWZhbWlseT0ic2Fucy1zZXJpZiIgZm9udC1zaXplPSIxMyIgbGVuZ3RoQWRqdXN0PSJzcGFjaW5nIiB0ZXh0TGVuZ3RoPSIxOS41IiB4PSIxMjEuNSIgeT0iODc1LjI4OTEiPmhhczwvdGV4dD48L2c+PCEtLWxpbmsgQ29udGVudCB0byBDb250ZW50X1RhZy0tPjxnIGNsYXNzPSJsaW5rIiBkYXRhLWVudGl0eS0xPSJDb250ZW50IiBkYXRhLWVudGl0eS0yPSJDb250ZW50X1RhZyIgZGF0YS1zb3VyY2UtbGluZT0iOTgiIGRhdGEtdWlkPSJsbmsyNSIgaWQ9ImxpbmtfQ29udGVudF9Db250ZW50X1RhZyI+PHBhdGggY29kZUxpbmU9Ijk4IiBkPSJNODguNzEyNCw4MzkuODQyNyBDODAuODAyNCw4NjIuNDkyNyA3NS40Myw4ODEuODcgNzEuNSw5MDcgQzYzLjA2LDk2MS4wMSA3MS4yNCw5NzUuMzMgNzEuNSwxMDMwIEM3MS42MSwxMDUyLjU2IDcxLjY1MzMsMTA1OS44MDEgNzEuODYzMywxMDgwLjA1MSIgZmlsbD0ibm9uZSIgaWQ9IkNvbnRlbnQtQ29udGVudF9UYWciIHN0eWxlPSJzdHJva2U6IzE4MTgxODtzdHJva2Utd2lkdGg6MTsiLz48bGluZSBzdHlsZT0ic3Ryb2tlOiMxODE4MTg7c3Ryb2tlLXdpZHRoOjE7IiB4MT0iODYuMjU0OSIgeDI9IjkzLjgwNzUiIHkxPSI4MzQuNzQ3NSIgeTI9IjgzNy4zODUxIi8+PGxpbmUgc3R5bGU9InN0cm9rZTojMTgxODE4O3N0cm9rZS13aWR0aDoxOyIgeDE9Ijg1LjI2NTgiIHgyPSI5Mi44MTg0IiB5MT0iODM3LjU3OTgiIHkyPSI4NDAuMjE3NCIvPjxsaW5lIHN0eWxlPSJzdHJva2U6IzE4MTgxODtzdHJva2Utd2lkdGg6MTsiIHgxPSI4OC43MTI0IiB4Mj0iOTEuMzUiIHkxPSI4MzkuODQyNyIgeTI9IjgzMi4yOSIvPjxsaW5lIHN0eWxlPSJzdHJva2U6IzE4MTgxODtzdHJva2Utd2lkdGg6MTsiIHgxPSI3MS45NjciIHgyPSI3OC4wNDk3IiB5MT0iMTA5MC4wNTA0IiB5Mj0iMTA5Ny45ODc4Ii8+PGxpbmUgc3R5bGU9InN0cm9rZTojMTgxODE4O3N0cm9rZS13aWR0aDoxOyIgeDE9IjcxLjk2NyIgeDI9IjY2LjA1MDMiIHkxPSIxMDkwLjA1MDQiIHkyPSIxMDk4LjExMjIiLz48bGluZSBzdHlsZT0ic3Ryb2tlOiMxODE4MTg7c3Ryb2tlLXdpZHRoOjE7IiB4MT0iNzEuOTY3IiB4Mj0iNzIuMDUiIHkxPSIxMDkwLjA1MDQiIHkyPSIxMDk4LjA1Ii8+PGVsbGlwc2UgY3g9IjcxLjkwNDgiIGN5PSIxMDg0LjA1MDgiIGZpbGw9Im5vbmUiIHJ4PSI0IiByeT0iNCIgc3R5bGU9InN0cm9rZTojMTgxODE4O3N0cm9rZS13aWR0aDoxOyIvPjwvZz48IS0tbGluayBUYWcgdG8gQ29udGVudF9UYWctLT48ZyBjbGFzcz0ibGluayIgZGF0YS1lbnRpdHktMT0iVGFnIiBkYXRhLWVudGl0eS0yPSJDb250ZW50X1RhZyIgZGF0YS1zb3VyY2UtbGluZT0iOTkiIGRhdGEtdWlkPSJsbmsyNiIgaWQ9ImxpbmtfVGFnX0NvbnRlbnRfVGFnIj48cGF0aCBjb2RlTGluZT0iOTkiIGQ9Ik0xMjEuODgyOCwxMDE1LjIxOTIgQzExMC44MjI4LDEwNDIuMzc5MiAxMDUuODU2NywxMDU0LjU3ODQgOTQuODE2NywxMDgxLjY5ODQiIGZpbGw9Im5vbmUiIGlkPSJUYWctQ29udGVudF9UYWciIHN0eWxlPSJzdHJva2U6IzE4MTgxODtzdHJva2Utd2lkdGg6MTsiLz48bGluZSBzdHlsZT0ic3Ryb2tlOiMxODE4MTg7c3Ryb2tlLXdpZHRoOjE7IiB4MT0iMTE5LjY4NjgiIHgyPSIxMjcuMDk2IiB5MT0iMTAxMC4wMDYiIHkyPSIxMDEzLjAyMzIiLz48bGluZSBzdHlsZT0ic3Ryb2tlOiMxODE4MTg7c3Ryb2tlLXdpZHRoOjE7IiB4MT0iMTE4LjU1NTQiIHgyPSIxMjUuOTY0NiIgeTE9IjEwMTIuNzg0NSIgeTI9IjEwMTUuODAxNyIvPjxsaW5lIHN0eWxlPSJzdHJva2U6IzE4MTgxODtzdHJva2Utd2lkdGg6MTsiIHgxPSIxMjEuODgyOCIgeDI9IjEyNC45IiB5MT0iMTAxNS4yMTkyIiB5Mj0iMTAwNy44MSIvPjxsaW5lIHN0eWxlPSJzdHJva2U6IzE4MTgxODtzdHJva2Utd2lkdGg6MTsiIHgxPSI5MS4wNDYzIiB4Mj0iOTMuNTg3MiIgeTE9IjEwOTAuOTYwNCIgeTI9IjExMDAuNjMyMiIvPjxsaW5lIHN0eWxlPSJzdHJva2U6IzE4MTgxODtzdHJva2Utd2lkdGg6MTsiIHgxPSI5MS4wNDYzIiB4Mj0iODIuNDcyOCIgeTE9IjEwOTAuOTYwNCIgeTI9IjEwOTYuMTA3OCIvPjxsaW5lIHN0eWxlPSJzdHJva2U6IzE4MTgxODtzdHJva2Utd2lkdGg6MTsiIHgxPSI5MS4wNDYzIiB4Mj0iODguMDMiIHkxPSIxMDkwLjk2MDQiIHkyPSIxMDk4LjM3Ii8+PGVsbGlwc2UgY3g9IjkzLjMwODUiIGN5PSIxMDg1LjQwMzIiIGZpbGw9Im5vbmUiIHJ4PSI0IiByeT0iNCIgc3R5bGU9InN0cm9rZTojMTgxODE4O3N0cm9rZS13aWR0aDoxOyIvPjwvZz48IS0tbGluayBBZG1pbmlzdHJhdG9yIHRvIFJlcG9ydC0tPjxnIGNsYXNzPSJsaW5rIiBkYXRhLWVudGl0eS0xPSJBZG1pbmlzdHJhdG9yIiBkYXRhLWVudGl0eS0yPSJSZXBvcnQiIGRhdGEtc291cmNlLWxpbmU9IjEwMCIgZGF0YS11aWQ9ImxuazI3IiBpZD0ibGlua19BZG1pbmlzdHJhdG9yX1JlcG9ydCI+PHBhdGggY29kZUxpbmU9IjEwMCIgZD0iTTY2OC43NjgsMjgzLjUyODMgQzY3MS41NjgsMzA4LjAzODMgNjcyLjI3MjMsMzE0LjE4NjkgNjc1LjIzMjMsMzQwLjAzNjkiIGZpbGw9Im5vbmUiIGlkPSJBZG1pbmlzdHJhdG9yLVJlcG9ydCIgc3R5bGU9InN0cm9rZTojMTgxODE4O3N0cm9rZS13aWR0aDoxOyIvPjxsaW5lIHN0eWxlPSJzdHJva2U6IzE4MTgxODtzdHJva2Utd2lkdGg6MTsiIHgxPSI2NjQuMzM5OSIgeDI9IjY3Mi4yODgyIiB5MT0iMjgwLjAwODIiIHkyPSIyNzkuMTAwMSIvPjxsaW5lIHN0eWxlPSJzdHJva2U6IzE4MTgxODtzdHJva2Utd2lkdGg6MTsiIHgxPSI2NjQuNjgwNCIgeDI9IjY3Mi42Mjg3IiB5MT0iMjgyLjk4ODgiIHkyPSIyODIuMDgwOCIvPjxsaW5lIHN0eWxlPSJzdHJva2U6IzE4MTgxODtzdHJva2Utd2lkdGg6MTsiIHgxPSI2NjguNzY4IiB4Mj0iNjY3Ljg2IiB5MT0iMjgzLjUyODMiIHkyPSIyNzUuNTgiLz48bGluZSBzdHlsZT0ic3Ryb2tlOiMxODE4MTg7c3Ryb2tlLXdpZHRoOjE7IiB4MT0iNjc2LjM2OTkiIHgyPSI2ODMuMjQxIiB5MT0iMzQ5Ljk3MTkiIHkyPSIzNTcuMjM3NCIvPjxsaW5lIHN0eWxlPSJzdHJva2U6IzE4MTgxODtzdHJva2Utd2lkdGg6MTsiIHgxPSI2NzYuMzY5OSIgeDI9IjY3MS4zMTkiIHkxPSIzNDkuOTcxOSIgeTI9IjM1OC42MDI2Ii8+PGxpbmUgc3R5bGU9InN0cm9rZTojMTgxODE4O3N0cm9rZS13aWR0aDoxOyIgeDE9IjY3Ni4zNjk5IiB4Mj0iNjc3LjI4IiB5MT0iMzQ5Ljk3MTkiIHkyPSIzNTcuOTIiLz48ZWxsaXBzZSBjeD0iNjc1LjY4NzMiIGN5PSIzNDQuMDEwOSIgZmlsbD0ibm9uZSIgcng9IjQiIHJ5PSI0IiBzdHlsZT0ic3Ryb2tlOiMxODE4MTg7c3Ryb2tlLXdpZHRoOjE7Ii8+PHRleHQgZmlsbD0iIzAwMDAwMCIgZm9udC1mYW1pbHk9InNhbnMtc2VyaWYiIGZvbnQtc2l6ZT0iMTMiIGxlbmd0aEFkanVzdD0ic3BhY2luZyIgdGV4dExlbmd0aD0iNTguNSIgeD0iNjc0LjUiIHk9IjMyNi4yODkxIj5nZW5lcmF0ZXM8L3RleHQ+PC9nPjwhLS1saW5rIFRlYWNoZXIgdG8gQ29udGVudC0tPjxnIGNsYXNzPSJsaW5rIiBkYXRhLWVudGl0eS0xPSJUZWFjaGVyIiBkYXRhLWVudGl0eS0yPSJDb250ZW50IiBkYXRhLXNvdXJjZS1saW5lPSIxMDEiIGRhdGEtdWlkPSJsbmsyOCIgaWQ9ImxpbmtfVGVhY2hlcl9Db250ZW50Ij48cGF0aCBjb2RlTGluZT0iMTAxIiBkPSJNMzAxLjE5OTUsMjUyLjg0MzcgQzI2My42NDk1LDI2My42MDM3IDIyNi4xNCwyODAuMzUgMTk3LjUsMzEzIEM5NC44Nyw0MjkuOTYgOTYuMTg4Miw2MTAuOTY4OCAxMDQuNDk4Miw3MDUuNzY4OCIgZmlsbD0ibm9uZSIgaWQ9IlRlYWNoZXItQ29udGVudCIgc3R5bGU9InN0cm9rZTojMTgxODE4O3N0cm9rZS13aWR0aDoxOyIvPjxsaW5lIHN0eWxlPSJzdHJva2U6IzE4MTgxODtzdHJva2Utd2lkdGg6MTsiIHgxPSIzMDMuOTQyOSIgeDI9IjMwNi4xNDY2IiB5MT0iMjQ3Ljg5NjYiIHkyPSIyNTUuNTg3MSIvPjxsaW5lIHN0eWxlPSJzdHJva2U6IzE4MTgxODtzdHJva2Utd2lkdGg6MTsiIHgxPSIzMDEuMDU5IiB4Mj0iMzAzLjI2MjciIHkxPSIyNDguNzIzIiB5Mj0iMjU2LjQxMzUiLz48bGluZSBzdHlsZT0ic3Ryb2tlOiMxODE4MTg7c3Ryb2tlLXdpZHRoOjE7IiB4MT0iMzAxLjE5OTUiIHgyPSIzMDguODkiIHkxPSIyNTIuODQzNyIgeTI9IjI1MC42NCIvPjxsaW5lIHN0eWxlPSJzdHJva2U6IzE4MTgxODtzdHJva2Utd2lkdGg6MTsiIHgxPSIxMDUuMzcxNCIgeDI9IjExMi4wNDcxIiB5MT0iNzE1LjczMDYiIHkyPSI3MjMuMTc2MSIvPjxsaW5lIHN0eWxlPSJzdHJva2U6IzE4MTgxODtzdHJva2Utd2lkdGg6MTsiIHgxPSIxMDUuMzcxNCIgeDI9IjEwMC4wOTI5IiB5MT0iNzE1LjczMDYiIHkyPSI3MjQuMjIzOSIvPjxsaW5lIHN0eWxlPSJzdHJva2U6IzE4MTgxODtzdHJva2Utd2lkdGg6MTsiIHgxPSIxMDUuMzcxNCIgeDI9IjEwNi4wNyIgeTE9IjcxNS43MzA2IiB5Mj0iNzIzLjciLz48ZWxsaXBzZSBjeD0iMTA0Ljg0NzUiIGN5PSI3MDkuNzUzNSIgZmlsbD0ibm9uZSIgcng9IjQiIHJ5PSI0IiBzdHlsZT0ic3Ryb2tlOiMxODE4MTg7c3Ryb2tlLXdpZHRoOjE7Ii8+PHRleHQgZmlsbD0iIzAwMDAwMCIgZm9udC1mYW1pbHk9InNhbnMtc2VyaWYiIGZvbnQtc2l6ZT0iMTMiIGxlbmd0aEFkanVzdD0ic3BhY2luZyIgdGV4dExlbmd0aD0iNDUuNSIgeD0iMTE5LjUiIHk9IjQ5NC4yODkxIj5tYW5hZ2VzPC90ZXh0PjwvZz48IS0tbGluayBUZWFjaGVyIHRvIFRlc3QtLT48ZyBjbGFzcz0ibGluayIgZGF0YS1lbnRpdHktMT0iVGVhY2hlciIgZGF0YS1lbnRpdHktMj0iVGVzdCIgZGF0YS1zb3VyY2UtbGluZT0iMTAyIiBkYXRhLXVpZD0ibG5rMjkiIGlkPSJsaW5rX1RlYWNoZXJfVGVzdCI+PHBhdGggY29kZUxpbmU9IjEwMiIgZD0iTTMzNC4xODI1LDI4OS43OTczIEMyNzkuMDMyNSwzNjYuNTY3MyAxODkuMjEsNTE5LjExIDI0MS41LDY0OSBDMjkwLjU0LDc3MC44MiAzOTYuMzE1Niw4NjEuNjMwMyA0NzAuNjM1Niw5MTUuMzkwMyIgZmlsbD0ibm9uZSIgaWQ9IlRlYWNoZXItVGVzdCIgc3R5bGU9InN0cm9rZTojMTgxODE4O3N0cm9rZS13aWR0aDoxOyIvPjxsaW5lIHN0eWxlPSJzdHJva2U6IzE4MTgxODtzdHJva2Utd2lkdGg6MTsiIHgxPSIzMzMuMjY3NiIgeDI9IjMzOS43NjQ5IiB5MT0iMjg0LjIxNDkiIHkyPSIyODguODgyNCIvPjxsaW5lIHN0eWxlPSJzdHJva2U6IzE4MTgxODtzdHJva2Utd2lkdGg6MTsiIHgxPSIzMzEuNTE3MyIgeDI9IjMzOC4wMTQ2IiB5MT0iMjg2LjY1MTQiIHkyPSIyOTEuMzE4OSIvPjxsaW5lIHN0eWxlPSJzdHJva2U6IzE4MTgxODtzdHJva2Utd2lkdGg6MTsiIHgxPSIzMzQuMTgyNSIgeDI9IjMzOC44NSIgeTE9IjI4OS43OTczIiB5Mj0iMjgzLjMiLz48bGluZSBzdHlsZT0ic3Ryb2tlOiMxODE4MTg7c3Ryb2tlLXdpZHRoOjE7IiB4MT0iNDc4LjczODEiIHgyPSI0ODguNzM2NiIgeTE9IjkyMS4yNTEyIiB5Mj0iOTIxLjA3ODUiLz48bGluZSBzdHlsZT0ic3Ryb2tlOiMxODE4MTg7c3Ryb2tlLXdpZHRoOjE7IiB4MT0iNDc4LjczODEiIHgyPSI0ODEuNzAzNCIgeTE9IjkyMS4yNTEyIiB5Mj0iOTMwLjgwMTUiLz48bGluZSBzdHlsZT0ic3Ryb2tlOiMxODE4MTg7c3Ryb2tlLXdpZHRoOjE7IiB4MT0iNDc4LjczODEiIHgyPSI0ODUuMjIiIHkxPSI5MjEuMjUxMiIgeTI9IjkyNS45NCIvPjxlbGxpcHNlIGN4PSI0NzMuODc2NiIgY3k9IjkxNy43MzQ3IiBmaWxsPSJub25lIiByeD0iNCIgcnk9IjQiIHN0eWxlPSJzdHJva2U6IzE4MTgxODtzdHJva2Utd2lkdGg6MTsiLz48dGV4dCBmaWxsPSIjMDAwMDAwIiBmb250LWZhbWlseT0ic2Fucy1zZXJpZiIgZm9udC1zaXplPSIxMyIgbGVuZ3RoQWRqdXN0PSJzcGFjaW5nIiB0ZXh0TGVuZ3RoPSI0NS41IiB4PSIyNDIuNSIgeT0iNTkzLjI4OTEiPmNyZWF0ZXM8L3RleHQ+PC9nPjwhLS1saW5rIFRlYWNoZXIgdG8gU3R1ZGVudC0tPjxnIGNsYXNzPSJsaW5rIiBkYXRhLWVudGl0eS0xPSJUZWFjaGVyIiBkYXRhLWVudGl0eS0yPSJTdHVkZW50IiBkYXRhLXNvdXJjZS1saW5lPSIxMDMiIGRhdGEtdWlkPSJsbmszMCIgaWQ9ImxpbmtfVGVhY2hlcl9TdHVkZW50Ij48cGF0aCBjb2RlTGluZT0iMTAzIiBkPSJNNDE1LjMzMDcsMjk4LjE0MSBDNDI1LjczMDcsMzEyLjgzMSA0MjcuNCwzMTQuMTcgNDM5LjUsMzI4IEM0NDguMywzMzguMDYgNDQ1LjMyNjksMzM1Ljc2MSA0NTUuMTY2OSwzNDUuMjcxIiBmaWxsPSJub25lIiBpZD0iVGVhY2hlci1TdHVkZW50IiBzdHlsZT0ic3Ryb2tlOiMxODE4MTg7c3Ryb2tlLXdpZHRoOjE7Ii8+PGxpbmUgc3R5bGU9InN0cm9rZTojMTgxODE4O3N0cm9rZS13aWR0aDoxOyIgeDE9IjQwOS41NTI1IiB4Mj0iNDAwLjAzMyIgeTE9IjI4OS45NzkzIiB5Mj0iMjg2LjkxNjkiLz48bGluZSBzdHlsZT0ic3Ryb2tlOiMxODE4MTg7c3Ryb2tlLXdpZHRoOjE7IiB4MT0iNDA5LjU1MjUiIHgyPSI0MDkuODI3IiB5MT0iMjg5Ljk3OTMiIHkyPSIyNzkuOTgzMSIvPjxsaW5lIHN0eWxlPSJzdHJva2U6IzE4MTgxODtzdHJva2Utd2lkdGg6MTsiIHgxPSI0MDkuNTUyNSIgeDI9IjQwNC45MyIgeTE9IjI4OS45NzkzIiB5Mj0iMjgzLjQ1Ii8+PGVsbGlwc2UgY3g9IjQxMy4wMTk0IiBjeT0iMjk0Ljg3NjMiIGZpbGw9Im5vbmUiIHJ4PSI0IiByeT0iNCIgc3R5bGU9InN0cm9rZTojMTgxODE4O3N0cm9rZS13aWR0aDoxOyIvPjxsaW5lIHN0eWxlPSJzdHJva2U6IzE4MTgxODtzdHJva2Utd2lkdGg6MTsiIHgxPSI0NjIuMzU3NSIgeDI9IjQ3Mi4yNzk3IiB5MT0iMzUyLjIyMDQiIHkyPSIzNTMuNDY1NiIvPjxsaW5lIHN0eWxlPSJzdHJva2U6IzE4MTgxODtzdHJva2Utd2lkdGg6MTsiIHgxPSI0NjIuMzU3NSIgeDI9IjQ2My45NDAzIiB5MT0iMzUyLjIyMDQiIHkyPSIzNjIuMDk0NCIvPjxsaW5lIHN0eWxlPSJzdHJva2U6IzE4MTgxODtzdHJva2Utd2lkdGg6MTsiIHgxPSI0NjIuMzU3NSIgeDI9IjQ2OC4xMSIgeTE9IjM1Mi4yMjA0IiB5Mj0iMzU3Ljc4Ii8+PGVsbGlwc2UgY3g9IjQ1OC4wNDMxIiBjeT0iMzQ4LjA1MDciIGZpbGw9Im5vbmUiIHJ4PSI0IiByeT0iNCIgc3R5bGU9InN0cm9rZTojMTgxODE4O3N0cm9rZS13aWR0aDoxOyIvPjx0ZXh0IGZpbGw9IiMwMDAwMDAiIGZvbnQtZmFtaWx5PSJzYW5zLXNlcmlmIiBmb250LXNpemU9IjEzIiBsZW5ndGhBZGp1c3Q9InNwYWNpbmciIHRleHRMZW5ndGg9IjUyIiB4PSI0NDAuNSIgeT0iMzI2LjI4OTEiPm92ZXJzZWVzPC90ZXh0PjwvZz48IS0tbGluayBUZWFjaGVyIHRvIFRlYWNoZXJfU3R1ZGVudC0tPjxnIGNsYXNzPSJsaW5rIiBkYXRhLWVudGl0eS0xPSJUZWFjaGVyIiBkYXRhLWVudGl0eS0yPSJUZWFjaGVyX1N0dWRlbnQiIGRhdGEtc291cmNlLWxpbmU9IjEwNCIgZGF0YS11aWQ9ImxuazMxIiBpZD0ibGlua19UZWFjaGVyX1RlYWNoZXJfU3R1ZGVudCI+PHBhdGggY29kZUxpbmU9IjEwNCIgZD0iTTM3NC41LDI5MS4xMyBDMzc0LjUsMzYwLjYgMzc0LjUsNDY1LjY0IDM3NC41LDUzMC4zNiIgZmlsbD0ibm9uZSIgaWQ9IlRlYWNoZXItVGVhY2hlcl9TdHVkZW50IiBzdHlsZT0ic3Ryb2tlOiMxODE4MTg7c3Ryb2tlLXdpZHRoOjE7Ii8+PGxpbmUgc3R5bGU9InN0cm9rZTojMTgxODE4O3N0cm9rZS13aWR0aDoxOyIgeDE9IjM3MC41IiB4Mj0iMzc4LjUiIHkxPSIyODcuMTMiIHkyPSIyODcuMTMiLz48bGluZSBzdHlsZT0ic3Ryb2tlOiMxODE4MTg7c3Ryb2tlLXdpZHRoOjE7IiB4MT0iMzcwLjUiIHgyPSIzNzguNSIgeTE9IjI5MC4xMyIgeTI9IjI5MC4xMyIvPjxsaW5lIHN0eWxlPSJzdHJva2U6IzE4MTgxODtzdHJva2Utd2lkdGg6MTsiIHgxPSIzNzQuNSIgeDI9IjM3NC41IiB5MT0iMjkxLjEzIiB5Mj0iMjgzLjEzIi8+PGxpbmUgc3R5bGU9InN0cm9rZTojMTgxODE4O3N0cm9rZS13aWR0aDoxOyIgeDE9IjM3NC41IiB4Mj0iMzgwLjUiIHkxPSI1NDAuMzYiIHkyPSI1NDguMzYiLz48bGluZSBzdHlsZT0ic3Ryb2tlOiMxODE4MTg7c3Ryb2tlLXdpZHRoOjE7IiB4MT0iMzc0LjUiIHgyPSIzNjguNSIgeTE9IjU0MC4zNiIgeTI9IjU0OC4zNiIvPjxsaW5lIHN0eWxlPSJzdHJva2U6IzE4MTgxODtzdHJva2Utd2lkdGg6MTsiIHgxPSIzNzQuNSIgeDI9IjM3NC41IiB5MT0iNTQwLjM2IiB5Mj0iNTQ4LjM2Ii8+PGVsbGlwc2UgY3g9IjM3NC41IiBjeT0iNTM0LjM2IiBmaWxsPSJub25lIiByeD0iNCIgcnk9IjQiIHN0eWxlPSJzdHJva2U6IzE4MTgxODtzdHJva2Utd2lkdGg6MTsiLz48L2c+PCEtLWxpbmsgU3R1ZGVudCB0byBUZWFjaGVyX1N0dWRlbnQtLT48ZyBjbGFzcz0ibGluayIgZGF0YS1lbnRpdHktMT0iU3R1ZGVudCIgZGF0YS1lbnRpdHktMj0iVGVhY2hlcl9TdHVkZW50IiBkYXRhLXNvdXJjZS1saW5lPSIxMDUiIGRhdGEtdWlkPSJsbmszMiIgaWQ9ImxpbmtfU3R1ZGVudF9UZWFjaGVyX1N0dWRlbnQiPjxwYXRoIGNvZGVMaW5lPSIxMDUiIGQ9Ik00NzcuOTA4NCw0NTcuNDEzNyBDNDUzLjgyODQsNDg3LjQ3MzcgNDM4LjkzMTgsNTA2LjA2MDIgNDE2LjIxMTgsNTM0LjQzMDIiIGZpbGw9Im5vbmUiIGlkPSJTdHVkZW50LVRlYWNoZXJfU3R1ZGVudCIgc3R5bGU9InN0cm9rZTojMTgxODE4O3N0cm9rZS13aWR0aDoxOyIvPjxsaW5lIHN0eWxlPSJzdHJva2U6IzE4MTgxODtzdHJva2Utd2lkdGg6MTsiIHgxPSI0NzcuMjg3MyIgeDI9IjQ4My41MzEiIHkxPSI0NTEuNzkxIiB5Mj0iNDU2Ljc5MjciLz48bGluZSBzdHlsZT0ic3Ryb2tlOiMxODE4MTg7c3Ryb2tlLXdpZHRoOjE7IiB4MT0iNDc1LjQxMTciIHgyPSI0ODEuNjU1NCIgeTE9IjQ1NC4xMzI0IiB5Mj0iNDU5LjEzNCIvPjxsaW5lIHN0eWxlPSJzdHJva2U6IzE4MTgxODtzdHJva2Utd2lkdGg6MTsiIHgxPSI0NzcuOTA4NCIgeDI9IjQ4Mi45MSIgeTE9IjQ1Ny40MTM3IiB5Mj0iNDUxLjE3Ii8+PGxpbmUgc3R5bGU9InN0cm9rZTojMTgxODE4O3N0cm9rZS13aWR0aDoxOyIgeDE9IjQwOS45NjA4IiB4Mj0iNDA5LjY0MzMiIHkxPSI1NDIuMjM1NiIgeTI9IjU1Mi4yMzA2Ii8+PGxpbmUgc3R5bGU9InN0cm9rZTojMTgxODE4O3N0cm9rZS13aWR0aDoxOyIgeDE9IjQwOS45NjA4IiB4Mj0iNDAwLjI3NjciIHkxPSI1NDIuMjM1NiIgeTI9IjU0NC43Mjk0Ii8+PGxpbmUgc3R5bGU9InN0cm9rZTojMTgxODE4O3N0cm9rZS13aWR0aDoxOyIgeDE9IjQwOS45NjA4IiB4Mj0iNDA0Ljk2IiB5MT0iNTQyLjIzNTYiIHkyPSI1NDguNDgiLz48ZWxsaXBzZSBjeD0iNDEzLjcxMTQiIGN5PSI1MzcuNTUyMyIgZmlsbD0ibm9uZSIgcng9IjQiIHJ5PSI0IiBzdHlsZT0ic3Ryb2tlOiMxODE4MTg7c3Ryb2tlLXdpZHRoOjE7Ii8+PC9nPjwhLS1TUkM9W1hMRkJSa0dXNEJwcDVJWU5JOTd5MHhjamVqdEJOZzh5cGJPQlRwbWU3WkVZc3dERG5sRmwybld5V0F0VFlxc19Za2hndmJ4LTc1Y3BIWEJlM3Jfb3hmdEd0aWNCYUY5MUpreFN3YXUtb2tWVnBqNHF4a0R6OG5wSDdRcVBfOHpIN0tRak82WmZYNGgzbTVfWUFiUjBMdnV3VHF3T2o5WHhpOGxsYl9TRFVDT1hIdGIzSzhTUkNyeENfdzE0RmxlUk05aW5YX2xIN1ZNZVlJc21NSzcxRV95OWNJNHljUDZwampIWXJqSzVweTBmOUpCLXVNSXdLdVJ5UjRybGFJWDFkdzlUT25UQTVqV3Qzb0ZidldmNTMzbkg4SjNxZ3haR1JfZm1oWjNyaEU4NUp5UWswalhXck5NUGY4NTBwRWcwZVBta3lNc3FqODdQUXdtTURqSjVwVXBxbnVUTWF6bDRUaEQ5U0hfUl9Dd2piMC1yVDhsYW9iWlNzTzhzS3NfQkRMRXF0QTZ1cjZ0ckhCUXpSSGF3YjdsdldhRk9SM2hlNG1kX1NrS3lEdXN2bzhaZVNaTXJLOEpZZk5rWHViTWFYMEdMU3o5c2tsMDFJQXBjckpKREZDaWVZOGl3NUZMUDlQWFBVamJUNUN5bUpFMHE1Z2JZZkhWWTdabFQ3MmhOMkNDZEtpcWc3d2U4WU5rMVQ1SzJYM3hVTDc3OGZZZnlxZXd4YjJlY0IyXzJPVk91ZVd0VDlSTEIyOVRvWDE3d1JLOWlLYmFpb1lGWnNyWkQ2SXRYTmRzbktoTEVMVldsXS0tPjwvZz48L3N2Zz4=;" vertex="1" parent="1">
            <mxGeometry x="-630" y="-130" width="755" height="1190" as="geometry" />
          </mxCell>
        </UserObject>
      </root>
    </mxGraphModel>
  </diagram>
</mxfile>
